<?xml version="1.0" encoding="UTF-8" standalone="yes"?><svg xmlns="http://www.w3.org/2000/svg" xmlns:xlink="http://www.w3.org/1999/xlink" height="1933pt" style="width:2132px;height:1933px;" version="1.1" viewBox="0 0 2132 1933" width="2132pt"><defs><filter height="300%" id="f1" width="300%" x="-1" y="-1"><feGaussianBlur result="blurOut" stdDeviation="2.0"/><feColorMatrix in="blurOut" result="blurOut2" type="matrix" values="0 0 0 0 0 0 0 0 0 0 0 0 0 0 0 0 0 0 .4 0"/><feOffset dx="4.0" dy="4.0" in="blurOut2" result="blurOut3"/><feBlend in="SourceGraphic" in2="blurOut3" mode="normal"/></filter></defs><g><polygon fill="#C3B1A3" filter="url(#f1)" points="901,477,960,477,967,500.6094,1375,500.6094,1375,896,901,896,901,477" style="stroke: #000000; stroke-width: 2.0;"/><line style="stroke: #000000; stroke-width: 2.0;" x1="901" x2="967" y1="500.6094" y2="500.6094"/><text fill="#000000" font-size="14" font-weight="bold" lengthAdjust="spacingAndGlyphs" textLength="53" x="904" y="494">Entities</text><polygon fill="#FE6F4D" filter="url(#f1)" points="329,272,405,272,412,295.6094,877,295.6094,877,751,329,751,329,272" style="stroke: #000000; stroke-width: 2.0;"/><line style="stroke: #000000; stroke-width: 2.0;" x1="329" x2="412" y1="295.6094" y2="295.6094"/><text fill="#000000" font-size="14" font-weight="bold" lengthAdjust="spacingAndGlyphs" textLength="70" x="332" y="289">Managers</text><polygon fill="#FFFFFF" filter="url(#f1)" points="895,1453,1015,1453,1022,1476.6094,1669,1476.6094,1669,1926,895,1926,895,1453" style="stroke: #000000; stroke-width: 2.0;"/><line style="stroke: #000000; stroke-width: 2.0;" x1="895" x2="1022" y1="1476.6094" y2="1476.6094"/><text fill="#000000" font-size="14" font-weight="bold" lengthAdjust="spacingAndGlyphs" textLength="114" x="898" y="1470">CustomAttribute</text><polygon fill="#95ABD4" filter="url(#f1)" points="22,948,117,948,124,971.6094,1367,971.6094,1367,1419,22,1419,22,948" style="stroke: #000000; stroke-width: 2.0;"/><line style="stroke: #000000; stroke-width: 2.0;" x1="22" x2="124" y1="971.6094" y2="971.6094"/><text fill="#000000" font-size="14" font-weight="bold" lengthAdjust="spacingAndGlyphs" textLength="89" x="25" y="965">Components</text><polygon fill="#6B7EA8" filter="url(#f1)" points="1157,55,1221,55,1228,78.6094,1621,78.6094,1621,443,1157,443,1157,55" style="stroke: #000000; stroke-width: 2.0;"/><line style="stroke: #000000; stroke-width: 2.0;" x1="1157" x2="1228" y1="78.6094" y2="78.6094"/><text fill="#000000" font-size="14" font-weight="bold" lengthAdjust="spacingAndGlyphs" textLength="58" x="1160" y="72">Systems</text><rect fill="#FEFECE" filter="url(#f1)" height="365.4727" style="stroke: #A80036; stroke-width: 1.5;" width="441" x="917.75" y="514.5"/><ellipse cx="1096.5" cy="530.5" fill="#A9DCDF" rx="11" ry="11" style="stroke: #A80036; stroke-width: 1.0;"/><path d="M1098.6875,532.2656 L1094.5469,532.2656 L1094.125,533.2969 L1094.5469,533.2969 Q1095.1563,533.2969 1095.4219,533.5313 Q1095.6875,533.7656 1095.6875,534.1563 Q1095.6875,534.5313 1095.4219,534.7656 Q1095.1563,535 1094.5469,535 L1092.25,535 Q1091.6406,535 1091.3828,534.7656 Q1091.125,534.5313 1091.125,534.1406 Q1091.125,533.7656 1091.3984,533.5234 Q1091.6719,533.2813 1092.2969,533.2969 L1094.9688,526.6406 L1093.8594,526.6406 Q1093.25,526.6406 1092.9844,526.4063 Q1092.7188,526.1719 1092.7188,525.7813 Q1092.7188,525.4063 1092.9844,525.1719 Q1093.25,524.9375 1093.8594,524.9375 L1097.5313,524.9375 L1100.9219,533.2969 Q1101.5156,533.2969 1101.7031,533.4375 Q1102.0938,533.7031 1102.0938,534.1563 Q1102.0938,534.5313 1101.8359,534.7656 Q1101.5781,535 1100.9688,535 L1098.6719,535 Q1098.0625,535 1097.7969,534.7656 Q1097.5313,534.5313 1097.5313,534.1406 Q1097.5313,533.7656 1097.7969,533.5313 Q1098.0625,533.2969 1098.6719,533.2969 L1099.0938,533.2969 L1098.6875,532.2656 Z M1097.9688,530.5625 L1096.6094,527.1875 L1095.2344,530.5625 L1097.9688,530.5625 Z "/><text fill="#000000" font-size="12" font-style="italic" lengthAdjust="spacingAndGlyphs" textLength="75" x="1117" y="534.9531">AbstractEntity</text><line style="stroke: #A80036; stroke-width: 1.5;" x1="918.75" x2="1357.75" y1="546.5" y2="546.5"/><rect fill="none" height="6" style="stroke: #C82930; stroke-width: 1.0;" width="6" x="925.75" y="555.918"/><text fill="#000000" font-size="11" lengthAdjust="spacingAndGlyphs" textLength="156" x="937.75" y="561.5">static incrementType EntityID = 0</text><rect fill="none" height="6" style="stroke: #C82930; stroke-width: 1.0;" width="6" x="925.75" y="569.7539"/><text fill="#000000" font-size="11" lengthAdjust="spacingAndGlyphs" textLength="31" x="937.75" y="575.3359">long id</text><rect fill="none" height="6" style="stroke: #C82930; stroke-width: 1.0;" width="6" x="925.75" y="583.5898"/><text fill="#000000" font-size="11" lengthAdjust="spacingAndGlyphs" textLength="222" x="937.75" y="589.1719">std::vector&lt;AbstractComponent&gt; components</text><rect fill="none" height="6" style="stroke: #C82930; stroke-width: 1.0;" width="6" x="925.75" y="597.4258"/><text fill="#000000" font-size="11" lengthAdjust="spacingAndGlyphs" textLength="76" x="937.75" y="603.0078">string name = ""</text><rect fill="none" height="6" style="stroke: #C82930; stroke-width: 1.0;" width="6" x="925.75" y="611.2617"/><text fill="#000000" font-size="11" lengthAdjust="spacingAndGlyphs" textLength="111" x="937.75" y="616.8438">string type = "abstract"</text><line style="stroke: #A80036; stroke-width: 1.0;" x1="918.75" x2="1357.75" y1="623.6797" y2="623.6797"/><line style="stroke: #A80036; stroke-width: 1.0;" x1="918.75" x2="1357.75" y1="625.6797" y2="625.6797"/><ellipse cx="928.75" cy="653.9336" fill="#84BE84" rx="3" ry="3" style="stroke: #038048; stroke-width: 1.0;"/><text fill="#000000" font-size="11" lengthAdjust="spacingAndGlyphs" textLength="190" x="937.75" y="656.5156">AbstractEntity(std::string name, long id)</text><line style="stroke: #A80036; stroke-width: 1.0; stroke-dasharray: 1.0,2.0;" x1="917.75" x2="1108.25" y1="638.5977" y2="638.5977"/><text fill="#000000" font-size="11" lengthAdjust="spacingAndGlyphs" textLength="56" x="1110.25" y="642.1797">constructor</text><line style="stroke: #A80036; stroke-width: 1.0; stroke-dasharray: 1.0,2.0;" x1="1167.25" x2="1357.75" y1="638.5977" y2="638.5977"/><line style="stroke: #A80036; stroke-width: 1.0;" x1="917.75" x2="1100.75" y1="670.2695" y2="670.2695"/><text fill="#000000" font-size="11" lengthAdjust="spacingAndGlyphs" textLength="71" x="1102.75" y="673.8516">getters/setters</text><line style="stroke: #A80036; stroke-width: 1.0;" x1="1174.75" x2="1357.75" y1="670.2695" y2="670.2695"/><ellipse cx="928.75" cy="706.3594" fill="#84BE84" rx="3" ry="3" style="stroke: #038048; stroke-width: 1.0;"/><text fill="#000000" font-size="11" lengthAdjust="spacingAndGlyphs" textLength="55" x="937.75" y="708.9414">long getID()</text><ellipse cx="928.75" cy="720.1953" fill="#84BE84" rx="3" ry="3" style="stroke: #038048; stroke-width: 1.0;"/><text fill="#000000" font-size="11" lengthAdjust="spacingAndGlyphs" textLength="86" x="937.75" y="722.7773">void setID(long id)</text><line style="stroke: #A80036; stroke-width: 1.0; stroke-dasharray: 1.0,2.0;" x1="917.75" x2="1132.25" y1="691.0234" y2="691.0234"/><text fill="#000000" font-size="11" lengthAdjust="spacingAndGlyphs" textLength="8" x="1134.25" y="694.6055">id</text><line style="stroke: #A80036; stroke-width: 1.0; stroke-dasharray: 1.0,2.0;" x1="1143.25" x2="1357.75" y1="691.0234" y2="691.0234"/><ellipse cx="928.75" cy="751.8672" fill="#84BE84" rx="3" ry="3" style="stroke: #038048; stroke-width: 1.0;"/><text fill="#000000" font-size="11" lengthAdjust="spacingAndGlyphs" textLength="415" x="937.75" y="754.4492">std::list&lt;AbstractComponent&gt; getComponentsByFamily(enum ComponentFamily family)</text><ellipse cx="928.75" cy="765.7031" fill="#84BE84" rx="3" ry="3" style="stroke: #038048; stroke-width: 1.0;"/><text fill="#000000" font-size="11" lengthAdjust="spacingAndGlyphs" textLength="339" x="937.75" y="768.2852">std::list&lt;AbstarctComponent&gt; getComponentByName(std::string name)</text><ellipse cx="928.75" cy="779.5391" fill="#84BE84" rx="3" ry="3" style="stroke: #038048; stroke-width: 1.0;"/><text fill="#000000" font-size="11" lengthAdjust="spacingAndGlyphs" textLength="271" x="937.75" y="782.1211">void addComponent(AbstractComponent theComponent)</text><ellipse cx="928.75" cy="793.375" fill="#84BE84" rx="3" ry="3" style="stroke: #038048; stroke-width: 1.0;"/><text fill="#000000" font-size="11" lengthAdjust="spacingAndGlyphs" textLength="264" x="937.75" y="795.957">AbstractComponent::iterator traverseComponentTree()</text><line style="stroke: #A80036; stroke-width: 1.0; stroke-dasharray: 1.0,2.0;" x1="917.75" x2="1106.75" y1="736.5313" y2="736.5313"/><text fill="#000000" font-size="11" lengthAdjust="spacingAndGlyphs" textLength="59" x="1108.75" y="740.1133">components</text><line style="stroke: #A80036; stroke-width: 1.0; stroke-dasharray: 1.0,2.0;" x1="1168.75" x2="1357.75" y1="736.5313" y2="736.5313"/><ellipse cx="928.75" cy="825.0469" fill="#84BE84" rx="3" ry="3" style="stroke: #038048; stroke-width: 1.0;"/><text fill="#000000" font-size="11" lengthAdjust="spacingAndGlyphs" textLength="101" x="937.75" y="827.6289">std::string getName()</text><ellipse cx="928.75" cy="838.8828" fill="#84BE84" rx="3" ry="3" style="stroke: #038048; stroke-width: 1.0;"/><text fill="#000000" font-size="11" lengthAdjust="spacingAndGlyphs" textLength="127" x="937.75" y="841.4648">setName(std::string name)</text><line style="stroke: #A80036; stroke-width: 1.0; stroke-dasharray: 1.0,2.0;" x1="917.75" x2="1123.25" y1="809.7109" y2="809.7109"/><text fill="#000000" font-size="11" lengthAdjust="spacingAndGlyphs" textLength="26" x="1125.25" y="813.293">name</text><line style="stroke: #A80036; stroke-width: 1.0; stroke-dasharray: 1.0,2.0;" x1="1152.25" x2="1357.75" y1="809.7109" y2="809.7109"/><ellipse cx="928.75" cy="870.5547" fill="#84BE84" rx="3" ry="3" style="stroke: #038048; stroke-width: 1.0;"/><text fill="#000000" font-size="11" lengthAdjust="spacingAndGlyphs" textLength="77" x="937.75" y="873.1367">string getType()</text><line style="stroke: #A80036; stroke-width: 1.0; stroke-dasharray: 1.0,2.0;" x1="917.75" x2="1125.75" y1="855.2188" y2="855.2188"/><text fill="#000000" font-size="11" lengthAdjust="spacingAndGlyphs" textLength="21" x="1127.75" y="858.8008">type</text><line style="stroke: #A80036; stroke-width: 1.0; stroke-dasharray: 1.0,2.0;" x1="1149.75" x2="1357.75" y1="855.2188" y2="855.2188"/><rect fill="#FEFECE" filter="url(#f1)" height="61.8359" style="stroke: #A80036; stroke-width: 1.5;" width="216" x="345" y="337"/><ellipse cx="402.25" cy="353" fill="#A9DCDF" rx="11" ry="11" style="stroke: #A80036; stroke-width: 1.0;"/><path d="M404.4375,354.7656 L400.2969,354.7656 L399.875,355.7969 L400.2969,355.7969 Q400.9063,355.7969 401.1719,356.0313 Q401.4375,356.2656 401.4375,356.6563 Q401.4375,357.0313 401.1719,357.2656 Q400.9063,357.5 400.2969,357.5 L398,357.5 Q397.3906,357.5 397.1328,357.2656 Q396.875,357.0313 396.875,356.6406 Q396.875,356.2656 397.1484,356.0234 Q397.4219,355.7813 398.0469,355.7969 L400.7188,349.1406 L399.6094,349.1406 Q399,349.1406 398.7344,348.9063 Q398.4688,348.6719 398.4688,348.2813 Q398.4688,347.9063 398.7344,347.6719 Q399,347.4375 399.6094,347.4375 L403.2813,347.4375 L406.6719,355.7969 Q407.2656,355.7969 407.4531,355.9375 Q407.8438,356.2031 407.8438,356.6563 Q407.8438,357.0313 407.5859,357.2656 Q407.3281,357.5 406.7188,357.5 L404.4219,357.5 Q403.8125,357.5 403.5469,357.2656 Q403.2813,357.0313 403.2813,356.6406 Q403.2813,356.2656 403.5469,356.0313 Q403.8125,355.7969 404.4219,355.7969 L404.8438,355.7969 L404.4375,354.7656 Z M403.7188,353.0625 L402.3594,349.6875 L400.9844,353.0625 L403.7188,353.0625 Z "/><text fill="#000000" font-size="12" font-style="italic" lengthAdjust="spacingAndGlyphs" textLength="93" x="422.75" y="357.4531">AbstractManager</text><line style="stroke: #A80036; stroke-width: 1.5;" x1="346" x2="560" y1="369" y2="369"/><rect fill="none" height="6" style="stroke: #C82930; stroke-width: 1.0;" width="6" x="353" y="378.418"/><text fill="#000000" font-size="11" lengthAdjust="spacingAndGlyphs" textLength="190" x="365" y="384">enum ManagerType enumManagerType</text><line style="stroke: #A80036; stroke-width: 1.5;" x1="346" x2="560" y1="390.8359" y2="390.8359"/><rect fill="#FEFECE" filter="url(#f1)" height="75.6719" style="stroke: #A80036; stroke-width: 1.5;" width="106" x="400" y="659"/><ellipse cx="415" cy="675" fill="#EB937F" rx="11" ry="11" style="stroke: #A80036; stroke-width: 1.0;"/><path d="M413.8594,675.7969 L413.8594,678.2969 L418.1875,678.2969 L418.1875,677.375 Q418.1875,676.7656 418.4297,676.5 Q418.6719,676.2344 419.0469,676.2344 Q419.4219,676.2344 419.6563,676.5 Q419.8906,676.7656 419.8906,677.375 L419.8906,680 L411.8906,680 Q411.2656,680 411.0078,679.7656 Q410.75,679.5313 410.75,679.1406 Q410.75,678.7656 411.0156,678.5313 Q411.2813,678.2969 411.8906,678.2969 L412.1563,678.2969 L412.1563,671.6406 L411.8906,671.6406 Q411.2656,671.6406 411.0078,671.4063 Q410.75,671.1719 410.75,670.7813 Q410.75,670.4063 411.0078,670.1719 Q411.2656,669.9375 411.8906,669.9375 L419.5156,669.9375 L419.5156,672.5313 Q419.5156,673.1406 419.2891,673.3984 Q419.0625,673.6563 418.6719,673.6563 Q418.2969,673.6563 418.0625,673.3984 Q417.8281,673.1406 417.8281,672.5313 L417.8281,671.6406 L413.8594,671.6406 L413.8594,674.0938 L415.3438,674.0938 Q415.3438,673.4375 415.4688,673.25 Q415.7344,672.8438 416.2031,672.8438 Q416.5781,672.8438 416.8125,673.1016 Q417.0469,673.3594 417.0469,673.9688 L417.0469,675.9375 Q417.0469,676.4844 416.9219,676.6719 Q416.6563,677.0625 416.2031,677.0625 Q415.7344,677.0625 415.4688,676.6563 Q415.3438,676.4688 415.3438,675.7969 L413.8594,675.7969 Z "/><text fill="#000000" font-size="12" lengthAdjust="spacingAndGlyphs" textLength="74" x="429" y="679.4531">ManagerType</text><line style="stroke: #A80036; stroke-width: 1.5;" x1="401" x2="505" y1="691" y2="691"/><text fill="#000000" font-size="11" lengthAdjust="spacingAndGlyphs" textLength="35" x="406" y="706">ENTITY</text><text fill="#000000" font-size="11" lengthAdjust="spacingAndGlyphs" textLength="25" x="406" y="719.8359">VOID</text><line style="stroke: #A80036; stroke-width: 1.5;" x1="401" x2="505" y1="726.6719" y2="726.6719"/><rect fill="#FEFECE" filter="url(#f1)" height="117.1797" style="stroke: #A80036; stroke-width: 1.5;" width="230" x="631" y="309.5"/><ellipse cx="703.25" cy="325.5" fill="#ADD1B2" rx="11" ry="11" style="stroke: #A80036; stroke-width: 1.0;"/><path d="M706.0156,321.375 Q706.1719,321.1563 706.3594,321.0469 Q706.5469,320.9375 706.7656,320.9375 Q707.1406,320.9375 707.375,321.1953 Q707.6094,321.4531 707.6094,322.0625 L707.6094,323.5156 Q707.6094,324.125 707.375,324.3906 Q707.1406,324.6563 706.7656,324.6563 Q706.4219,324.6563 706.2188,324.4531 Q706.0156,324.2656 705.9063,323.75 Q705.8594,323.3906 705.6719,323.2031 Q705.3438,322.8281 704.7344,322.6094 Q704.125,322.3906 703.5,322.3906 Q702.7344,322.3906 702.1016,322.7188 Q701.4688,323.0469 700.9766,323.7969 Q700.4844,324.5469 700.4844,325.5781 L700.4844,326.6719 Q700.4844,327.9063 701.375,328.7266 Q702.2656,329.5469 703.8594,329.5469 Q704.7969,329.5469 705.4531,329.2969 Q705.8438,329.1406 706.2656,328.7031 Q706.5313,328.4375 706.6797,328.3594 Q706.8281,328.2813 707.0313,328.2813 Q707.3594,328.2813 707.6172,328.5391 Q707.875,328.7969 707.875,329.1406 Q707.875,329.4844 707.5313,329.8906 Q707.0313,330.4688 706.2344,330.7969 Q705.1563,331.25 703.8594,331.25 Q702.3438,331.25 701.1406,330.625 Q700.1563,330.125 699.4688,329.0547 Q698.7813,327.9844 698.7813,326.7031 L698.7813,325.5469 Q698.7813,324.2188 699.3984,323.0703 Q700.0156,321.9219 701.1094,321.3047 Q702.2031,320.6875 703.4375,320.6875 Q704.1719,320.6875 704.8203,320.8516 Q705.4688,321.0156 706.0156,321.375 Z "/><text fill="#000000" font-size="12" lengthAdjust="spacingAndGlyphs" textLength="77" x="723.75" y="329.9531">EntityManager</text><line style="stroke: #A80036; stroke-width: 1.5;" x1="632" x2="860" y1="341.5" y2="341.5"/><rect fill="none" height="6" style="stroke: #C82930; stroke-width: 1.0;" width="6" x="639" y="350.918"/><text fill="#000000" font-size="11" lengthAdjust="spacingAndGlyphs" textLength="178" x="651" y="356.5">std::vector&lt;AbstractEntity&gt; entityList</text><line style="stroke: #A80036; stroke-width: 1.0;" x1="632" x2="860" y1="363.3359" y2="363.3359"/><line style="stroke: #A80036; stroke-width: 1.0;" x1="632" x2="860" y1="365.3359" y2="365.3359"/><ellipse cx="642" cy="375.7539" fill="#84BE84" rx="3" ry="3" style="stroke: #038048; stroke-width: 1.0;"/><text fill="#000000" font-size="11" lengthAdjust="spacingAndGlyphs" textLength="172" x="651" y="378.3359">void addEntity(AbstractEntity entity)</text><ellipse cx="642" cy="389.5898" fill="#84BE84" rx="3" ry="3" style="stroke: #038048; stroke-width: 1.0;"/><text fill="#000000" font-size="11" lengthAdjust="spacingAndGlyphs" textLength="204" x="651" y="392.1719">std::vector&lt;AbstractEntity&gt; getAllEntities()</text><ellipse cx="642" cy="403.4258" fill="#84BE84" rx="3" ry="3" style="stroke: #038048; stroke-width: 1.0;"/><text fill="#000000" font-size="11" lengthAdjust="spacingAndGlyphs" textLength="142" x="651" y="406.0078">AbstractEntity getEntityByID()</text><ellipse cx="642" cy="417.2617" fill="none" rx="3" ry="3" style="stroke: #038048; stroke-width: 1.0;"/><text fill="#000000" font-size="11" lengthAdjust="spacingAndGlyphs" textLength="0" x="654" y="419.8438"/><rect fill="#FEFECE" filter="url(#f1)" height="214.0313" style="stroke: #A80036; stroke-width: 1.5;" width="214" x="1439" y="1490"/><ellipse cx="1482.35" cy="1506" fill="#ADD1B2" rx="11" ry="11" style="stroke: #A80036; stroke-width: 1.0;"/><path d="M1485.1156,1501.875 Q1485.2719,1501.6563 1485.4594,1501.5469 Q1485.6469,1501.4375 1485.8656,1501.4375 Q1486.2406,1501.4375 1486.475,1501.6953 Q1486.7094,1501.9531 1486.7094,1502.5625 L1486.7094,1504.0156 Q1486.7094,1504.625 1486.475,1504.8906 Q1486.2406,1505.1563 1485.8656,1505.1563 Q1485.5219,1505.1563 1485.3188,1504.9531 Q1485.1156,1504.7656 1485.0063,1504.25 Q1484.9594,1503.8906 1484.7719,1503.7031 Q1484.4438,1503.3281 1483.8344,1503.1094 Q1483.225,1502.8906 1482.6,1502.8906 Q1481.8344,1502.8906 1481.2016,1503.2188 Q1480.5688,1503.5469 1480.0766,1504.2969 Q1479.5844,1505.0469 1479.5844,1506.0781 L1479.5844,1507.1719 Q1479.5844,1508.4063 1480.475,1509.2266 Q1481.3656,1510.0469 1482.9594,1510.0469 Q1483.8969,1510.0469 1484.5531,1509.7969 Q1484.9438,1509.6406 1485.3656,1509.2031 Q1485.6313,1508.9375 1485.7797,1508.8594 Q1485.9281,1508.7813 1486.1313,1508.7813 Q1486.4594,1508.7813 1486.7172,1509.0391 Q1486.975,1509.2969 1486.975,1509.6406 Q1486.975,1509.9844 1486.6313,1510.3906 Q1486.1313,1510.9688 1485.3344,1511.2969 Q1484.2563,1511.75 1482.9594,1511.75 Q1481.4438,1511.75 1480.2406,1511.125 Q1479.2563,1510.625 1478.5688,1509.5547 Q1477.8813,1508.4844 1477.8813,1507.2031 L1477.8813,1506.0469 Q1477.8813,1504.7188 1478.4984,1503.5703 Q1479.1156,1502.4219 1480.2094,1501.8047 Q1481.3031,1501.1875 1482.5375,1501.1875 Q1483.2719,1501.1875 1483.9203,1501.3516 Q1484.5688,1501.5156 1485.1156,1501.875 Z "/><text fill="#000000" font-size="12" lengthAdjust="spacingAndGlyphs" textLength="119" x="1502.65" y="1510.4531">CustomAttributeValue</text><line style="stroke: #A80036; stroke-width: 1.5;" x1="1440" x2="1652" y1="1522" y2="1522"/><rect fill="none" height="6" style="stroke: #C82930; stroke-width: 1.0;" width="6" x="1447" y="1531.418"/><text fill="#000000" font-size="11" lengthAdjust="spacingAndGlyphs" textLength="188" x="1459" y="1537">enum AttributeType enumAttributeType</text><rect fill="none" height="6" style="stroke: #C82930; stroke-width: 1.0;" width="6" x="1447" y="1545.2539"/><text fill="#000000" font-size="11" lengthAdjust="spacingAndGlyphs" textLength="133" x="1459" y="1550.8359">CustomAttributeUnion value</text><line style="stroke: #A80036; stroke-width: 1.0;" x1="1440" x2="1652" y1="1557.6719" y2="1557.6719"/><line style="stroke: #A80036; stroke-width: 1.0;" x1="1440" x2="1652" y1="1559.6719" y2="1559.6719"/><ellipse cx="1450" cy="1570.0898" fill="#84BE84" rx="3" ry="3" style="stroke: #038048; stroke-width: 1.0;"/><text fill="#000000" font-size="11" lengthAdjust="spacingAndGlyphs" textLength="124" x="1459" y="1572.6719">void setValue(long long ll)</text><ellipse cx="1450" cy="1583.9258" fill="#84BE84" rx="3" ry="3" style="stroke: #038048; stroke-width: 1.0;"/><text fill="#000000" font-size="11" lengthAdjust="spacingAndGlyphs" textLength="125" x="1459" y="1586.5078">auto getValue(long long ll)</text><ellipse cx="1450" cy="1597.7617" fill="#84BE84" rx="3" ry="3" style="stroke: #038048; stroke-width: 1.0;"/><text fill="#000000" font-size="11" lengthAdjust="spacingAndGlyphs" textLength="90" x="1459" y="1600.3438">void setValue(int i)</text><ellipse cx="1450" cy="1611.5977" fill="#84BE84" rx="3" ry="3" style="stroke: #038048; stroke-width: 1.0;"/><text fill="#000000" font-size="11" lengthAdjust="spacingAndGlyphs" textLength="91" x="1459" y="1614.1797">auto getValue(int i)</text><ellipse cx="1450" cy="1625.4336" fill="#84BE84" rx="3" ry="3" style="stroke: #038048; stroke-width: 1.0;"/><text fill="#000000" font-size="11" lengthAdjust="spacingAndGlyphs" textLength="115" x="1459" y="1628.0156">void setValue(double d)</text><ellipse cx="1450" cy="1639.2695" fill="#84BE84" rx="3" ry="3" style="stroke: #038048; stroke-width: 1.0;"/><text fill="#000000" font-size="11" lengthAdjust="spacingAndGlyphs" textLength="116" x="1459" y="1641.8516">auto getValue(double d)</text><ellipse cx="1450" cy="1653.1055" fill="#84BE84" rx="3" ry="3" style="stroke: #038048; stroke-width: 1.0;"/><text fill="#000000" font-size="11" lengthAdjust="spacingAndGlyphs" textLength="102" x="1459" y="1655.6875">void setValue(float f)</text><ellipse cx="1450" cy="1666.9414" fill="#84BE84" rx="3" ry="3" style="stroke: #038048; stroke-width: 1.0;"/><text fill="#000000" font-size="11" lengthAdjust="spacingAndGlyphs" textLength="103" x="1459" y="1669.5234">auto getValue(float f)</text><ellipse cx="1450" cy="1680.7773" fill="#84BE84" rx="3" ry="3" style="stroke: #038048; stroke-width: 1.0;"/><text fill="#000000" font-size="11" lengthAdjust="spacingAndGlyphs" textLength="105" x="1459" y="1683.3594">void setValue(char c)</text><ellipse cx="1450" cy="1694.6133" fill="#84BE84" rx="3" ry="3" style="stroke: #038048; stroke-width: 1.0;"/><text fill="#000000" font-size="11" lengthAdjust="spacingAndGlyphs" textLength="106" x="1459" y="1697.1953">auto getValue(char c)</text><rect fill="#FEFECE" filter="url(#f1)" height="103.3438" style="stroke: #A80036; stroke-width: 1.5;" width="280" x="911" y="1545.5"/><ellipse cx="995.25" cy="1561.5" fill="#ADD1B2" rx="11" ry="11" style="stroke: #A80036; stroke-width: 1.0;"/><path d="M998.0156,1557.375 Q998.1719,1557.1563 998.3594,1557.0469 Q998.5469,1556.9375 998.7656,1556.9375 Q999.1406,1556.9375 999.375,1557.1953 Q999.6094,1557.4531 999.6094,1558.0625 L999.6094,1559.5156 Q999.6094,1560.125 999.375,1560.3906 Q999.1406,1560.6563 998.7656,1560.6563 Q998.4219,1560.6563 998.2188,1560.4531 Q998.0156,1560.2656 997.9063,1559.75 Q997.8594,1559.3906 997.6719,1559.2031 Q997.3438,1558.8281 996.7344,1558.6094 Q996.125,1558.3906 995.5,1558.3906 Q994.7344,1558.3906 994.1016,1558.7188 Q993.4688,1559.0469 992.9766,1559.7969 Q992.4844,1560.5469 992.4844,1561.5781 L992.4844,1562.6719 Q992.4844,1563.9063 993.375,1564.7266 Q994.2656,1565.5469 995.8594,1565.5469 Q996.7969,1565.5469 997.4531,1565.2969 Q997.8438,1565.1406 998.2656,1564.7031 Q998.5313,1564.4375 998.6797,1564.3594 Q998.8281,1564.2813 999.0313,1564.2813 Q999.3594,1564.2813 999.6172,1564.5391 Q999.875,1564.7969 999.875,1565.1406 Q999.875,1565.4844 999.5313,1565.8906 Q999.0313,1566.4688 998.2344,1566.7969 Q997.1563,1567.25 995.8594,1567.25 Q994.3438,1567.25 993.1406,1566.625 Q992.1563,1566.125 991.4688,1565.0547 Q990.7813,1563.9844 990.7813,1562.7031 L990.7813,1561.5469 Q990.7813,1560.2188 991.3984,1559.0703 Q992.0156,1557.9219 993.1094,1557.3047 Q994.2031,1556.6875 995.4375,1556.6875 Q996.1719,1556.6875 996.8203,1556.8516 Q997.4688,1557.0156 998.0156,1557.375 Z "/><text fill="#000000" font-size="12" lengthAdjust="spacingAndGlyphs" textLength="103" x="1015.75" y="1565.9531">CustomAttributePtr</text><line style="stroke: #A80036; stroke-width: 1.5;" x1="912" x2="1190" y1="1577.5" y2="1577.5"/><rect fill="none" height="6" style="stroke: #C82930; stroke-width: 1.0;" width="6" x="919" y="1586.918"/><text fill="#000000" font-size="11" lengthAdjust="spacingAndGlyphs" textLength="254" x="931" y="1592.5">enum AttributePointerType enumAttributePointerType</text><rect fill="none" height="6" style="stroke: #C82930; stroke-width: 1.0;" width="6" x="919" y="1600.7539"/><text fill="#000000" font-size="11" lengthAdjust="spacingAndGlyphs" textLength="66" x="931" y="1606.3359">void* valuePtr</text><line style="stroke: #A80036; stroke-width: 1.0;" x1="912" x2="1190" y1="1613.1719" y2="1613.1719"/><line style="stroke: #A80036; stroke-width: 1.0;" x1="912" x2="1190" y1="1615.1719" y2="1615.1719"/><ellipse cx="922" cy="1625.5898" fill="#84BE84" rx="3" ry="3" style="stroke: #038048; stroke-width: 1.0;"/><text fill="#000000" font-size="11" lengthAdjust="spacingAndGlyphs" textLength="60" x="931" y="1628.1719">auto getPtr()</text><ellipse cx="922" cy="1639.4258" fill="#84BE84" rx="3" ry="3" style="stroke: #038048; stroke-width: 1.0;"/><text fill="#000000" font-size="11" lengthAdjust="spacingAndGlyphs" textLength="85" x="931" y="1642.0078">void* getVoidPtr()</text><rect fill="#FEFECE" filter="url(#f1)" height="103.3438" style="stroke: #A80036; stroke-width: 1.5;" width="141" x="1262.75" y="1545.5"/><ellipse cx="1277.75" cy="1561.5" fill="#EB937F" rx="11" ry="11" style="stroke: #A80036; stroke-width: 1.0;"/><path d="M1276.6094,1562.2969 L1276.6094,1564.7969 L1280.9375,1564.7969 L1280.9375,1563.875 Q1280.9375,1563.2656 1281.1797,1563 Q1281.4219,1562.7344 1281.7969,1562.7344 Q1282.1719,1562.7344 1282.4063,1563 Q1282.6406,1563.2656 1282.6406,1563.875 L1282.6406,1566.5 L1274.6406,1566.5 Q1274.0156,1566.5 1273.7578,1566.2656 Q1273.5,1566.0313 1273.5,1565.6406 Q1273.5,1565.2656 1273.7656,1565.0313 Q1274.0313,1564.7969 1274.6406,1564.7969 L1274.9063,1564.7969 L1274.9063,1558.1406 L1274.6406,1558.1406 Q1274.0156,1558.1406 1273.7578,1557.9063 Q1273.5,1557.6719 1273.5,1557.2813 Q1273.5,1556.9063 1273.7578,1556.6719 Q1274.0156,1556.4375 1274.6406,1556.4375 L1282.2656,1556.4375 L1282.2656,1559.0313 Q1282.2656,1559.6406 1282.0391,1559.8984 Q1281.8125,1560.1563 1281.4219,1560.1563 Q1281.0469,1560.1563 1280.8125,1559.8984 Q1280.5781,1559.6406 1280.5781,1559.0313 L1280.5781,1558.1406 L1276.6094,1558.1406 L1276.6094,1560.5938 L1278.0938,1560.5938 Q1278.0938,1559.9375 1278.2188,1559.75 Q1278.4844,1559.3438 1278.9531,1559.3438 Q1279.3281,1559.3438 1279.5625,1559.6016 Q1279.7969,1559.8594 1279.7969,1560.4688 L1279.7969,1562.4375 Q1279.7969,1562.9844 1279.6719,1563.1719 Q1279.4063,1563.5625 1278.9531,1563.5625 Q1278.4844,1563.5625 1278.2188,1563.1563 Q1278.0938,1562.9688 1278.0938,1562.2969 L1276.6094,1562.2969 Z "/><text fill="#000000" font-size="12" lengthAdjust="spacingAndGlyphs" textLength="109" x="1291.75" y="1565.9531">AttributePointerType</text><line style="stroke: #A80036; stroke-width: 1.5;" x1="1263.75" x2="1402.75" y1="1577.5" y2="1577.5"/><text fill="#000000" font-size="11" lengthAdjust="spacingAndGlyphs" textLength="25" x="1268.75" y="1592.5">VOID</text><text fill="#000000" font-size="11" lengthAdjust="spacingAndGlyphs" textLength="90" x="1268.75" y="1606.3359">INTEGER_VECTOR</text><text fill="#000000" font-size="11" lengthAdjust="spacingAndGlyphs" textLength="89" x="1268.75" y="1620.1719">DOUBLE_VECTOR</text><text fill="#000000" font-size="11" lengthAdjust="spacingAndGlyphs" textLength="37" x="1268.75" y="1634.0078">STRING</text><line style="stroke: #A80036; stroke-width: 1.5;" x1="1263.75" x2="1402.75" y1="1640.8438" y2="1640.8438"/><rect fill="#FEFECE" filter="url(#f1)" height="117.1797" style="stroke: #A80036; stroke-width: 1.5;" width="102" x="1354" y="1788.5"/><ellipse cx="1369" cy="1804.5" fill="#EB937F" rx="11" ry="11" style="stroke: #A80036; stroke-width: 1.0;"/><path d="M1367.8594,1805.2969 L1367.8594,1807.7969 L1372.1875,1807.7969 L1372.1875,1806.875 Q1372.1875,1806.2656 1372.4297,1806 Q1372.6719,1805.7344 1373.0469,1805.7344 Q1373.4219,1805.7344 1373.6563,1806 Q1373.8906,1806.2656 1373.8906,1806.875 L1373.8906,1809.5 L1365.8906,1809.5 Q1365.2656,1809.5 1365.0078,1809.2656 Q1364.75,1809.0313 1364.75,1808.6406 Q1364.75,1808.2656 1365.0156,1808.0313 Q1365.2813,1807.7969 1365.8906,1807.7969 L1366.1563,1807.7969 L1366.1563,1801.1406 L1365.8906,1801.1406 Q1365.2656,1801.1406 1365.0078,1800.9063 Q1364.75,1800.6719 1364.75,1800.2813 Q1364.75,1799.9063 1365.0078,1799.6719 Q1365.2656,1799.4375 1365.8906,1799.4375 L1373.5156,1799.4375 L1373.5156,1802.0313 Q1373.5156,1802.6406 1373.2891,1802.8984 Q1373.0625,1803.1563 1372.6719,1803.1563 Q1372.2969,1803.1563 1372.0625,1802.8984 Q1371.8281,1802.6406 1371.8281,1802.0313 L1371.8281,1801.1406 L1367.8594,1801.1406 L1367.8594,1803.5938 L1369.3438,1803.5938 Q1369.3438,1802.9375 1369.4688,1802.75 Q1369.7344,1802.3438 1370.2031,1802.3438 Q1370.5781,1802.3438 1370.8125,1802.6016 Q1371.0469,1802.8594 1371.0469,1803.4688 L1371.0469,1805.4375 Q1371.0469,1805.9844 1370.9219,1806.1719 Q1370.6563,1806.5625 1370.2031,1806.5625 Q1369.7344,1806.5625 1369.4688,1806.1563 Q1369.3438,1805.9688 1369.3438,1805.2969 L1367.8594,1805.2969 Z "/><text fill="#000000" font-size="12" lengthAdjust="spacingAndGlyphs" textLength="70" x="1383" y="1808.9531">AttributeType</text><line style="stroke: #A80036; stroke-width: 1.5;" x1="1355" x2="1455" y1="1820.5" y2="1820.5"/><text fill="#000000" font-size="11" lengthAdjust="spacingAndGlyphs" textLength="58" x="1360" y="1835.5">LONGLONG</text><text fill="#000000" font-size="11" lengthAdjust="spacingAndGlyphs" textLength="42" x="1360" y="1849.3359">INTEGER</text><text fill="#000000" font-size="11" lengthAdjust="spacingAndGlyphs" textLength="41" x="1360" y="1863.1719">DOUBLE</text><text fill="#000000" font-size="11" lengthAdjust="spacingAndGlyphs" textLength="34" x="1360" y="1877.0078">FLOAT</text><text fill="#000000" font-size="11" lengthAdjust="spacingAndGlyphs" textLength="29" x="1360" y="1890.8438">CHAR</text><line style="stroke: #A80036; stroke-width: 1.5;" x1="1355" x2="1455" y1="1897.6797" y2="1897.6797"/><rect fill="#FEFECE" filter="url(#f1)" height="125.3672" style="stroke: #A80036; stroke-width: 1.5;" width="153" x="1491.75" y="1784.5"/><ellipse cx="1506.75" cy="1804.5938" fill="#FFFFFF" rx="11" ry="11" style="stroke: #A80036; stroke-width: 1.0;"/><path d="M1511.2344,1801.9844 L1511.2344,1806.8125 Q1511.2344,1808.3906 1510.1016,1809.4922 Q1508.9688,1810.5938 1507.375,1810.5938 Q1506.5938,1810.5938 1505.8984,1810.3125 Q1505.2031,1810.0313 1504.6484,1809.4922 Q1504.0938,1808.9531 1503.7891,1808.3672 Q1503.4844,1807.7813 1503.4844,1806.8125 L1503.4844,1801.9844 Q1502.9531,1801.9844 1502.6953,1801.7422 Q1502.4375,1801.5 1502.4375,1801.125 Q1502.4375,1800.75 1502.6953,1800.5156 Q1502.9531,1800.2813 1503.5625,1800.2813 L1505.7969,1800.2813 Q1506.4219,1800.2813 1506.6797,1800.5156 Q1506.9375,1800.75 1506.9375,1801.125 Q1506.9375,1801.5156 1506.6797,1801.75 Q1506.4219,1801.9844 1505.7969,1801.9844 L1505.1875,1801.9844 L1505.1875,1806.9531 Q1505.1875,1807.7188 1505.8203,1808.3047 Q1506.4531,1808.8906 1507.3594,1808.8906 Q1507.9531,1808.8906 1508.4766,1808.6094 Q1509,1808.3281 1509.3281,1807.7813 Q1509.5313,1807.4531 1509.5313,1806.9531 L1509.5313,1801.9844 L1508.9219,1801.9844 Q1508.3125,1801.9844 1508.0469,1801.75 Q1507.7813,1801.5156 1507.7813,1801.125 Q1507.7813,1800.75 1508.0469,1800.5156 Q1508.3125,1800.2813 1508.9219,1800.2813 L1511.1563,1800.2813 Q1511.7656,1800.2813 1512.0313,1800.5156 Q1512.2969,1800.75 1512.2969,1801.125 Q1512.2969,1801.5 1512.0391,1801.7422 Q1511.7813,1801.9844 1511.2344,1801.9844 Z "/><text fill="#000000" font-size="12" font-style="italic" lengthAdjust="spacingAndGlyphs" textLength="67" x="1547.75" y="1801.5">&lt;&lt; Union &gt;&gt;</text><text fill="#000000" font-size="12" lengthAdjust="spacingAndGlyphs" textLength="121" x="1520.75" y="1816.5938">CustomAttributeUnion</text><line style="stroke: #A80036; stroke-width: 1.5;" x1="1492.75" x2="1643.75" y1="1824.6875" y2="1824.6875"/><ellipse cx="1502.75" cy="1837.1055" fill="none" rx="3" ry="3" style="stroke: #038048; stroke-width: 1.0;"/><text fill="#000000" font-size="11" lengthAdjust="spacingAndGlyphs" textLength="50" x="1511.75" y="1839.6875">long long ll</text><ellipse cx="1502.75" cy="1850.9414" fill="none" rx="3" ry="3" style="stroke: #038048; stroke-width: 1.0;"/><text fill="#000000" font-size="11" lengthAdjust="spacingAndGlyphs" textLength="16" x="1511.75" y="1853.5234">int i</text><ellipse cx="1502.75" cy="1864.7773" fill="none" rx="3" ry="3" style="stroke: #038048; stroke-width: 1.0;"/><text fill="#000000" font-size="11" lengthAdjust="spacingAndGlyphs" textLength="41" x="1511.75" y="1867.3594">double d</text><ellipse cx="1502.75" cy="1878.6133" fill="none" rx="3" ry="3" style="stroke: #038048; stroke-width: 1.0;"/><text fill="#000000" font-size="11" lengthAdjust="spacingAndGlyphs" textLength="28" x="1511.75" y="1881.1953">float f</text><ellipse cx="1502.75" cy="1892.4492" fill="none" rx="3" ry="3" style="stroke: #038048; stroke-width: 1.0;"/><text fill="#000000" font-size="11" lengthAdjust="spacingAndGlyphs" textLength="31" x="1511.75" y="1895.0313">char c</text><line style="stroke: #A80036; stroke-width: 1.5;" x1="1492.75" x2="1643.75" y1="1901.8672" y2="1901.8672"/><rect fill="#FEFECE" filter="url(#f1)" height="417.8984" style="stroke: #A80036; stroke-width: 1.5;" width="425" x="925.75" y="985"/><ellipse cx="1079" cy="1001" fill="#A9DCDF" rx="11" ry="11" style="stroke: #A80036; stroke-width: 1.0;"/><path d="M1081.1875,1002.7656 L1077.0469,1002.7656 L1076.625,1003.7969 L1077.0469,1003.7969 Q1077.6563,1003.7969 1077.9219,1004.0313 Q1078.1875,1004.2656 1078.1875,1004.6563 Q1078.1875,1005.0313 1077.9219,1005.2656 Q1077.6563,1005.5 1077.0469,1005.5 L1074.75,1005.5 Q1074.1406,1005.5 1073.8828,1005.2656 Q1073.625,1005.0313 1073.625,1004.6406 Q1073.625,1004.2656 1073.8984,1004.0234 Q1074.1719,1003.7813 1074.7969,1003.7969 L1077.4688,997.1406 L1076.3594,997.1406 Q1075.75,997.1406 1075.4844,996.9063 Q1075.2188,996.6719 1075.2188,996.2813 Q1075.2188,995.9063 1075.4844,995.6719 Q1075.75,995.4375 1076.3594,995.4375 L1080.0313,995.4375 L1083.4219,1003.7969 Q1084.0156,1003.7969 1084.2031,1003.9375 Q1084.5938,1004.2031 1084.5938,1004.6563 Q1084.5938,1005.0313 1084.3359,1005.2656 Q1084.0781,1005.5 1083.4688,1005.5 L1081.1719,1005.5 Q1080.5625,1005.5 1080.2969,1005.2656 Q1080.0313,1005.0313 1080.0313,1004.6406 Q1080.0313,1004.2656 1080.2969,1004.0313 Q1080.5625,1003.7969 1081.1719,1003.7969 L1081.5938,1003.7969 L1081.1875,1002.7656 Z M1080.4688,1001.0625 L1079.1094,997.6875 L1077.7344,1001.0625 L1080.4688,1001.0625 Z "/><text fill="#000000" font-size="12" font-style="italic" lengthAdjust="spacingAndGlyphs" textLength="110" x="1099.5" y="1005.4531">AbstractComponent</text><line style="stroke: #A80036; stroke-width: 1.5;" x1="926.75" x2="1349.75" y1="1017" y2="1017"/><rect fill="none" height="6" style="stroke: #C82930; stroke-width: 1.0;" width="6" x="933.75" y="1026.418"/><text fill="#000000" font-size="11" lengthAdjust="spacingAndGlyphs" textLength="194" x="945.75" y="1032">static incrementType CustomValueID = 0</text><rect fill="none" height="6" style="stroke: #C82930; stroke-width: 1.0;" width="6" x="933.75" y="1040.2539"/><text fill="#000000" font-size="11" lengthAdjust="spacingAndGlyphs" textLength="179" x="945.75" y="1045.8359">static incrementType CustomPtrID = 0</text><rect fill="none" height="6" style="stroke: #C82930; stroke-width: 1.0;" width="6" x="933.75" y="1054.0898"/><text fill="#000000" font-size="11" lengthAdjust="spacingAndGlyphs" textLength="77" x="945.75" y="1059.6719">std::string name</text><rect fill="none" height="6" style="stroke: #C82930; stroke-width: 1.0;" width="6" x="933.75" y="1067.9258"/><text fill="#000000" font-size="11" lengthAdjust="spacingAndGlyphs" textLength="144" x="945.75" y="1073.5078">enum ComponentFamily family</text><rect fill="none" height="6" style="stroke: #C82930; stroke-width: 1.0;" width="6" x="933.75" y="1081.7617"/><text fill="#000000" font-size="11" lengthAdjust="spacingAndGlyphs" textLength="104" x="945.75" y="1087.3438">bool bIsParent = false</text><rect fill="none" height="6" style="stroke: #C82930; stroke-width: 1.0;" width="6" x="933.75" y="1095.5977"/><text fill="#000000" font-size="11" lengthAdjust="spacingAndGlyphs" textLength="321" x="945.75" y="1101.1797">std::map&lt;incrementType, CustomAttributeValue&gt; customValueMap</text><rect fill="none" height="6" style="stroke: #C82930; stroke-width: 1.0;" width="6" x="933.75" y="1109.4336"/><text fill="#000000" font-size="11" lengthAdjust="spacingAndGlyphs" textLength="291" x="945.75" y="1115.0156">std::map&lt;incrementType, CustomAttributePtr&gt; customPtrMap</text><rect fill="none" height="6" style="stroke: #C82930; stroke-width: 1.0;" width="6" x="933.75" y="1123.2695"/><text fill="#000000" font-size="11" lengthAdjust="spacingAndGlyphs" textLength="224" x="945.75" y="1128.8516">std::list&lt;AbstractComponent&gt; children = nullptr</text><line style="stroke: #A80036; stroke-width: 1.0;" x1="926.75" x2="1349.75" y1="1135.6875" y2="1135.6875"/><line style="stroke: #A80036; stroke-width: 1.0;" x1="926.75" x2="1349.75" y1="1137.6875" y2="1137.6875"/><ellipse cx="936.75" cy="1165.9414" fill="#84BE84" rx="3" ry="3" style="stroke: #038048; stroke-width: 1.0;"/><text fill="#000000" font-size="11" lengthAdjust="spacingAndGlyphs" textLength="399" x="945.75" y="1168.5234">AbstractComponent(std::string name, enum ComponentFamily family, bool isParent)</text><line style="stroke: #A80036; stroke-width: 1.0; stroke-dasharray: 1.0,2.0;" x1="925.75" x2="1108.25" y1="1150.6055" y2="1150.6055"/><text fill="#000000" font-size="11" lengthAdjust="spacingAndGlyphs" textLength="56" x="1110.25" y="1154.1875">constructor</text><line style="stroke: #A80036; stroke-width: 1.0; stroke-dasharray: 1.0,2.0;" x1="1167.25" x2="1349.75" y1="1150.6055" y2="1150.6055"/><ellipse cx="936.75" cy="1197.6133" fill="#84BE84" rx="3" ry="3" style="stroke: #038048; stroke-width: 1.0;"/><text fill="#000000" font-size="11" lengthAdjust="spacingAndGlyphs" textLength="101" x="945.75" y="1200.1953">std::string getName()</text><ellipse cx="936.75" cy="1211.4492" fill="#84BE84" rx="3" ry="3" style="stroke: #038048; stroke-width: 1.0;"/><text fill="#000000" font-size="11" lengthAdjust="spacingAndGlyphs" textLength="150" x="945.75" y="1214.0313">void setName(std::string name)</text><line style="stroke: #A80036; stroke-width: 1.0; stroke-dasharray: 1.0,2.0;" x1="925.75" x2="1123.25" y1="1182.2773" y2="1182.2773"/><text fill="#000000" font-size="11" lengthAdjust="spacingAndGlyphs" textLength="26" x="1125.25" y="1185.8594">name</text><line style="stroke: #A80036; stroke-width: 1.0; stroke-dasharray: 1.0,2.0;" x1="1152.25" x2="1349.75" y1="1182.2773" y2="1182.2773"/><ellipse cx="936.75" cy="1243.1211" fill="#84BE84" rx="3" ry="3" style="stroke: #038048; stroke-width: 1.0;"/><text fill="#000000" font-size="11" lengthAdjust="spacingAndGlyphs" textLength="169" x="945.75" y="1245.7031">enum ComponentFamily getFamily()</text><ellipse cx="936.75" cy="1256.957" fill="#84BE84" rx="3" ry="3" style="stroke: #038048; stroke-width: 1.0;"/><text fill="#000000" font-size="11" lengthAdjust="spacingAndGlyphs" textLength="220" x="945.75" y="1259.5391">void setFamily(enum ComponentFamily family)</text><line style="stroke: #A80036; stroke-width: 1.0; stroke-dasharray: 1.0,2.0;" x1="925.75" x2="1122.25" y1="1227.7852" y2="1227.7852"/><text fill="#000000" font-size="11" lengthAdjust="spacingAndGlyphs" textLength="28" x="1124.25" y="1231.3672">family</text><line style="stroke: #A80036; stroke-width: 1.0; stroke-dasharray: 1.0,2.0;" x1="1153.25" x2="1349.75" y1="1227.7852" y2="1227.7852"/><ellipse cx="936.75" cy="1288.6289" fill="#84BE84" rx="3" ry="3" style="stroke: #038048; stroke-width: 1.0;"/><text fill="#000000" font-size="11" lengthAdjust="spacingAndGlyphs" textLength="70" x="945.75" y="1291.2109">bool isParent()</text><line style="stroke: #A80036; stroke-width: 1.0; stroke-dasharray: 1.0,2.0;" x1="925.75" x2="1113.75" y1="1273.293" y2="1273.293"/><text fill="#000000" font-size="11" lengthAdjust="spacingAndGlyphs" textLength="45" x="1115.75" y="1276.875">bIsParent</text><line style="stroke: #A80036; stroke-width: 1.0; stroke-dasharray: 1.0,2.0;" x1="1161.75" x2="1349.75" y1="1273.293" y2="1273.293"/><ellipse cx="936.75" cy="1320.3008" fill="#84BE84" rx="3" ry="3" style="stroke: #038048; stroke-width: 1.0;"/><text fill="#000000" font-size="11" lengthAdjust="spacingAndGlyphs" textLength="223" x="945.75" y="1322.8828">incrementType setCustomAttributeValue(auto)</text><ellipse cx="936.75" cy="1334.1367" fill="#84BE84" rx="3" ry="3" style="stroke: #038048; stroke-width: 1.0;"/><text fill="#000000" font-size="11" lengthAdjust="spacingAndGlyphs" textLength="375" x="945.75" y="1336.7188">incrementType setCustomAttributePtr(auto, enumAttributePointerType = VOID)</text><ellipse cx="936.75" cy="1347.9727" fill="#84BE84" rx="3" ry="3" style="stroke: #038048; stroke-width: 1.0;"/><text fill="#000000" font-size="11" lengthAdjust="spacingAndGlyphs" textLength="307" x="945.75" y="1350.5547">CustomAttributeValue getCustomAttributeValue(incrementType)</text><ellipse cx="936.75" cy="1361.8086" fill="#84BE84" rx="3" ry="3" style="stroke: #038048; stroke-width: 1.0;"/><text fill="#000000" font-size="11" lengthAdjust="spacingAndGlyphs" textLength="277" x="945.75" y="1364.3906">CustomAttributePtr getCustomAttributePtr(incrementType)</text><line style="stroke: #A80036; stroke-width: 1.0; stroke-dasharray: 1.0,2.0;" x1="925.75" x2="1101.25" y1="1304.9648" y2="1304.9648"/><text fill="#000000" font-size="11" lengthAdjust="spacingAndGlyphs" textLength="70" x="1103.25" y="1308.5469">custom values</text><line style="stroke: #A80036; stroke-width: 1.0; stroke-dasharray: 1.0,2.0;" x1="1174.25" x2="1349.75" y1="1304.9648" y2="1304.9648"/><text fill="#000000" font-size="11" lengthAdjust="spacingAndGlyphs" textLength="168" x="931.75" y="1396.0625">void addChild(AbstractComponent)</text><line style="stroke: #A80036; stroke-width: 1.0; stroke-dasharray: 1.0,2.0;" x1="925.75" x2="1117.25" y1="1378.1445" y2="1378.1445"/><text fill="#000000" font-size="11" lengthAdjust="spacingAndGlyphs" textLength="38" x="1119.25" y="1381.7266">children</text><line style="stroke: #A80036; stroke-width: 1.0; stroke-dasharray: 1.0,2.0;" x1="1158.25" x2="1349.75" y1="1378.1445" y2="1378.1445"/><rect fill="#FEFECE" filter="url(#f1)" height="48" style="stroke: #A80036; stroke-width: 1.5;" width="142" x="368" y="1170"/><ellipse cx="383" cy="1186" fill="#ADD1B2" rx="11" ry="11" style="stroke: #A80036; stroke-width: 1.0;"/><path d="M385.7656,1181.875 Q385.9219,1181.6563 386.1094,1181.5469 Q386.2969,1181.4375 386.5156,1181.4375 Q386.8906,1181.4375 387.125,1181.6953 Q387.3594,1181.9531 387.3594,1182.5625 L387.3594,1184.0156 Q387.3594,1184.625 387.125,1184.8906 Q386.8906,1185.1563 386.5156,1185.1563 Q386.1719,1185.1563 385.9688,1184.9531 Q385.7656,1184.7656 385.6563,1184.25 Q385.6094,1183.8906 385.4219,1183.7031 Q385.0938,1183.3281 384.4844,1183.1094 Q383.875,1182.8906 383.25,1182.8906 Q382.4844,1182.8906 381.8516,1183.2188 Q381.2188,1183.5469 380.7266,1184.2969 Q380.2344,1185.0469 380.2344,1186.0781 L380.2344,1187.1719 Q380.2344,1188.4063 381.125,1189.2266 Q382.0156,1190.0469 383.6094,1190.0469 Q384.5469,1190.0469 385.2031,1189.7969 Q385.5938,1189.6406 386.0156,1189.2031 Q386.2813,1188.9375 386.4297,1188.8594 Q386.5781,1188.7813 386.7813,1188.7813 Q387.1094,1188.7813 387.3672,1189.0391 Q387.625,1189.2969 387.625,1189.6406 Q387.625,1189.9844 387.2813,1190.3906 Q386.7813,1190.9688 385.9844,1191.2969 Q384.9063,1191.75 383.6094,1191.75 Q382.0938,1191.75 380.8906,1191.125 Q379.9063,1190.625 379.2188,1189.5547 Q378.5313,1188.4844 378.5313,1187.2031 L378.5313,1186.0469 Q378.5313,1184.7188 379.1484,1183.5703 Q379.7656,1182.4219 380.8594,1181.8047 Q381.9531,1181.1875 383.1875,1181.1875 Q383.9219,1181.1875 384.5703,1181.3516 Q385.2188,1181.5156 385.7656,1181.875 Z "/><text fill="#000000" font-size="12" lengthAdjust="spacingAndGlyphs" textLength="110" x="397" y="1190.4531">PositionComponent</text><line style="stroke: #A80036; stroke-width: 1.5;" x1="369" x2="509" y1="1202" y2="1202"/><line style="stroke: #A80036; stroke-width: 1.5;" x1="369" x2="509" y1="1210" y2="1210"/><rect fill="#FEFECE" filter="url(#f1)" height="48" style="stroke: #A80036; stroke-width: 1.5;" width="129" x="545.75" y="1170"/><ellipse cx="560.75" cy="1186" fill="#ADD1B2" rx="11" ry="11" style="stroke: #A80036; stroke-width: 1.0;"/><path d="M563.5156,1181.875 Q563.6719,1181.6563 563.8594,1181.5469 Q564.0469,1181.4375 564.2656,1181.4375 Q564.6406,1181.4375 564.875,1181.6953 Q565.1094,1181.9531 565.1094,1182.5625 L565.1094,1184.0156 Q565.1094,1184.625 564.875,1184.8906 Q564.6406,1185.1563 564.2656,1185.1563 Q563.9219,1185.1563 563.7188,1184.9531 Q563.5156,1184.7656 563.4063,1184.25 Q563.3594,1183.8906 563.1719,1183.7031 Q562.8438,1183.3281 562.2344,1183.1094 Q561.625,1182.8906 561,1182.8906 Q560.2344,1182.8906 559.6016,1183.2188 Q558.9688,1183.5469 558.4766,1184.2969 Q557.9844,1185.0469 557.9844,1186.0781 L557.9844,1187.1719 Q557.9844,1188.4063 558.875,1189.2266 Q559.7656,1190.0469 561.3594,1190.0469 Q562.2969,1190.0469 562.9531,1189.7969 Q563.3438,1189.6406 563.7656,1189.2031 Q564.0313,1188.9375 564.1797,1188.8594 Q564.3281,1188.7813 564.5313,1188.7813 Q564.8594,1188.7813 565.1172,1189.0391 Q565.375,1189.2969 565.375,1189.6406 Q565.375,1189.9844 565.0313,1190.3906 Q564.5313,1190.9688 563.7344,1191.2969 Q562.6563,1191.75 561.3594,1191.75 Q559.8438,1191.75 558.6406,1191.125 Q557.6563,1190.625 556.9688,1189.5547 Q556.2813,1188.4844 556.2813,1187.2031 L556.2813,1186.0469 Q556.2813,1184.7188 556.8984,1183.5703 Q557.5156,1182.4219 558.6094,1181.8047 Q559.7031,1181.1875 560.9375,1181.1875 Q561.6719,1181.1875 562.3203,1181.3516 Q562.9688,1181.5156 563.5156,1181.875 Z "/><text fill="#000000" font-size="12" lengthAdjust="spacingAndGlyphs" textLength="97" x="574.75" y="1190.4531">SpriteComponent</text><line style="stroke: #A80036; stroke-width: 1.5;" x1="546.75" x2="673.75" y1="1202" y2="1202"/><line style="stroke: #A80036; stroke-width: 1.5;" x1="546.75" x2="673.75" y1="1210" y2="1210"/><rect fill="#FEFECE" filter="url(#f1)" height="48" style="stroke: #A80036; stroke-width: 1.5;" width="146" x="710" y="1170"/><ellipse cx="725" cy="1186" fill="#ADD1B2" rx="11" ry="11" style="stroke: #A80036; stroke-width: 1.0;"/><path d="M727.7656,1181.875 Q727.9219,1181.6563 728.1094,1181.5469 Q728.2969,1181.4375 728.5156,1181.4375 Q728.8906,1181.4375 729.125,1181.6953 Q729.3594,1181.9531 729.3594,1182.5625 L729.3594,1184.0156 Q729.3594,1184.625 729.125,1184.8906 Q728.8906,1185.1563 728.5156,1185.1563 Q728.1719,1185.1563 727.9688,1184.9531 Q727.7656,1184.7656 727.6563,1184.25 Q727.6094,1183.8906 727.4219,1183.7031 Q727.0938,1183.3281 726.4844,1183.1094 Q725.875,1182.8906 725.25,1182.8906 Q724.4844,1182.8906 723.8516,1183.2188 Q723.2188,1183.5469 722.7266,1184.2969 Q722.2344,1185.0469 722.2344,1186.0781 L722.2344,1187.1719 Q722.2344,1188.4063 723.125,1189.2266 Q724.0156,1190.0469 725.6094,1190.0469 Q726.5469,1190.0469 727.2031,1189.7969 Q727.5938,1189.6406 728.0156,1189.2031 Q728.2813,1188.9375 728.4297,1188.8594 Q728.5781,1188.7813 728.7813,1188.7813 Q729.1094,1188.7813 729.3672,1189.0391 Q729.625,1189.2969 729.625,1189.6406 Q729.625,1189.9844 729.2813,1190.3906 Q728.7813,1190.9688 727.9844,1191.2969 Q726.9063,1191.75 725.6094,1191.75 Q724.0938,1191.75 722.8906,1191.125 Q721.9063,1190.625 721.2188,1189.5547 Q720.5313,1188.4844 720.5313,1187.2031 L720.5313,1186.0469 Q720.5313,1184.7188 721.1484,1183.5703 Q721.7656,1182.4219 722.8594,1181.8047 Q723.9531,1181.1875 725.1875,1181.1875 Q725.9219,1181.1875 726.5703,1181.3516 Q727.2188,1181.5156 727.7656,1181.875 Z "/><text fill="#000000" font-size="12" lengthAdjust="spacingAndGlyphs" textLength="114" x="739" y="1190.4531">CollisionComponent</text><line style="stroke: #A80036; stroke-width: 1.5;" x1="711" x2="855" y1="1202" y2="1202"/><line style="stroke: #A80036; stroke-width: 1.5;" x1="711" x2="855" y1="1210" y2="1210"/><rect fill="#FEFECE" filter="url(#f1)" height="48" style="stroke: #A80036; stroke-width: 1.5;" width="119" x="213.75" y="1170"/><ellipse cx="228.75" cy="1186" fill="#ADD1B2" rx="11" ry="11" style="stroke: #A80036; stroke-width: 1.0;"/><path d="M231.5156,1181.875 Q231.6719,1181.6563 231.8594,1181.5469 Q232.0469,1181.4375 232.2656,1181.4375 Q232.6406,1181.4375 232.875,1181.6953 Q233.1094,1181.9531 233.1094,1182.5625 L233.1094,1184.0156 Q233.1094,1184.625 232.875,1184.8906 Q232.6406,1185.1563 232.2656,1185.1563 Q231.9219,1185.1563 231.7188,1184.9531 Q231.5156,1184.7656 231.4063,1184.25 Q231.3594,1183.8906 231.1719,1183.7031 Q230.8438,1183.3281 230.2344,1183.1094 Q229.625,1182.8906 229,1182.8906 Q228.2344,1182.8906 227.6016,1183.2188 Q226.9688,1183.5469 226.4766,1184.2969 Q225.9844,1185.0469 225.9844,1186.0781 L225.9844,1187.1719 Q225.9844,1188.4063 226.875,1189.2266 Q227.7656,1190.0469 229.3594,1190.0469 Q230.2969,1190.0469 230.9531,1189.7969 Q231.3438,1189.6406 231.7656,1189.2031 Q232.0313,1188.9375 232.1797,1188.8594 Q232.3281,1188.7813 232.5313,1188.7813 Q232.8594,1188.7813 233.1172,1189.0391 Q233.375,1189.2969 233.375,1189.6406 Q233.375,1189.9844 233.0313,1190.3906 Q232.5313,1190.9688 231.7344,1191.2969 Q230.6563,1191.75 229.3594,1191.75 Q227.8438,1191.75 226.6406,1191.125 Q225.6563,1190.625 224.9688,1189.5547 Q224.2813,1188.4844 224.2813,1187.2031 L224.2813,1186.0469 Q224.2813,1184.7188 224.8984,1183.5703 Q225.5156,1182.4219 226.6094,1181.8047 Q227.7031,1181.1875 228.9375,1181.1875 Q229.6719,1181.1875 230.3203,1181.3516 Q230.9688,1181.5156 231.5156,1181.875 Z "/><text fill="#000000" font-size="12" lengthAdjust="spacingAndGlyphs" textLength="87" x="242.75" y="1190.4531">TextComponent</text><line style="stroke: #A80036; stroke-width: 1.5;" x1="214.75" x2="331.75" y1="1202" y2="1202"/><line style="stroke: #A80036; stroke-width: 1.5;" x1="214.75" x2="331.75" y1="1210" y2="1210"/><rect fill="#FEFECE" filter="url(#f1)" height="48" style="stroke: #A80036; stroke-width: 1.5;" width="140" x="38" y="1170"/><ellipse cx="53" cy="1186" fill="#ADD1B2" rx="11" ry="11" style="stroke: #A80036; stroke-width: 1.0;"/><path d="M55.7656,1181.875 Q55.9219,1181.6563 56.1094,1181.5469 Q56.2969,1181.4375 56.5156,1181.4375 Q56.8906,1181.4375 57.125,1181.6953 Q57.3594,1181.9531 57.3594,1182.5625 L57.3594,1184.0156 Q57.3594,1184.625 57.125,1184.8906 Q56.8906,1185.1563 56.5156,1185.1563 Q56.1719,1185.1563 55.9688,1184.9531 Q55.7656,1184.7656 55.6563,1184.25 Q55.6094,1183.8906 55.4219,1183.7031 Q55.0938,1183.3281 54.4844,1183.1094 Q53.875,1182.8906 53.25,1182.8906 Q52.4844,1182.8906 51.8516,1183.2188 Q51.2188,1183.5469 50.7266,1184.2969 Q50.2344,1185.0469 50.2344,1186.0781 L50.2344,1187.1719 Q50.2344,1188.4063 51.125,1189.2266 Q52.0156,1190.0469 53.6094,1190.0469 Q54.5469,1190.0469 55.2031,1189.7969 Q55.5938,1189.6406 56.0156,1189.2031 Q56.2813,1188.9375 56.4297,1188.8594 Q56.5781,1188.7813 56.7813,1188.7813 Q57.1094,1188.7813 57.3672,1189.0391 Q57.625,1189.2969 57.625,1189.6406 Q57.625,1189.9844 57.2813,1190.3906 Q56.7813,1190.9688 55.9844,1191.2969 Q54.9063,1191.75 53.6094,1191.75 Q52.0938,1191.75 50.8906,1191.125 Q49.9063,1190.625 49.2188,1189.5547 Q48.5313,1188.4844 48.5313,1187.2031 L48.5313,1186.0469 Q48.5313,1184.7188 49.1484,1183.5703 Q49.7656,1182.4219 50.8594,1181.8047 Q51.9531,1181.1875 53.1875,1181.1875 Q53.9219,1181.1875 54.5703,1181.3516 Q55.2188,1181.5156 55.7656,1181.875 Z "/><text fill="#000000" font-size="12" lengthAdjust="spacingAndGlyphs" textLength="108" x="67" y="1190.4531">PhysicsComponent</text><line style="stroke: #A80036; stroke-width: 1.5;" x1="39" x2="177" y1="1202" y2="1202"/><line style="stroke: #A80036; stroke-width: 1.5;" x1="39" x2="177" y1="1210" y2="1210"/><rect fill="#FEFECE" filter="url(#f1)" height="117.1797" style="stroke: #A80036; stroke-width: 1.5;" width="165" x="1239.75" y="309.5"/><ellipse cx="1275.9" cy="325.5" fill="#A9DCDF" rx="11" ry="11" style="stroke: #A80036; stroke-width: 1.0;"/><path d="M1278.0875,327.2656 L1273.9469,327.2656 L1273.525,328.2969 L1273.9469,328.2969 Q1274.5563,328.2969 1274.8219,328.5313 Q1275.0875,328.7656 1275.0875,329.1563 Q1275.0875,329.5313 1274.8219,329.7656 Q1274.5563,330 1273.9469,330 L1271.65,330 Q1271.0406,330 1270.7828,329.7656 Q1270.525,329.5313 1270.525,329.1406 Q1270.525,328.7656 1270.7984,328.5234 Q1271.0719,328.2813 1271.6969,328.2969 L1274.3688,321.6406 L1273.2594,321.6406 Q1272.65,321.6406 1272.3844,321.4063 Q1272.1188,321.1719 1272.1188,320.7813 Q1272.1188,320.4063 1272.3844,320.1719 Q1272.65,319.9375 1273.2594,319.9375 L1276.9313,319.9375 L1280.3219,328.2969 Q1280.9156,328.2969 1281.1031,328.4375 Q1281.4938,328.7031 1281.4938,329.1563 Q1281.4938,329.5313 1281.2359,329.7656 Q1280.9781,330 1280.3688,330 L1278.0719,330 Q1277.4625,330 1277.1969,329.7656 Q1276.9313,329.5313 1276.9313,329.1406 Q1276.9313,328.7656 1277.1969,328.5313 Q1277.4625,328.2969 1278.0719,328.2969 L1278.4938,328.2969 L1278.0875,327.2656 Z M1277.3688,325.5625 L1276.0094,322.1875 L1274.6344,325.5625 L1277.3688,325.5625 Z "/><text fill="#000000" font-size="12" font-style="italic" lengthAdjust="spacingAndGlyphs" textLength="86" x="1294.6" y="329.9531">AbstractSystem</text><line style="stroke: #A80036; stroke-width: 1.5;" x1="1240.75" x2="1403.75" y1="341.5" y2="341.5"/><rect fill="none" height="6" style="stroke: #C82930; stroke-width: 1.0;" width="6" x="1247.75" y="350.918"/><text fill="#000000" font-size="11" lengthAdjust="spacingAndGlyphs" textLength="113" x="1259.75" y="356.5">Enum SystemType type</text><line style="stroke: #A80036; stroke-width: 1.0;" x1="1240.75" x2="1403.75" y1="363.3359" y2="363.3359"/><line style="stroke: #A80036; stroke-width: 1.0;" x1="1240.75" x2="1403.75" y1="365.3359" y2="365.3359"/><ellipse cx="1250.75" cy="375.7539" fill="#84BE84" rx="3" ry="3" style="stroke: #038048; stroke-width: 1.0;"/><text fill="#000000" font-size="11" lengthAdjust="spacingAndGlyphs" textLength="139" x="1259.75" y="378.3359">Enum SystemType getType()</text><ellipse cx="1250.75" cy="389.5898" fill="#84BE84" rx="3" ry="3" style="stroke: #038048; stroke-width: 1.0;"/><text fill="#000000" font-size="11" lengthAdjust="spacingAndGlyphs" textLength="121" x="1259.75" y="392.1719">virtual createMessages()</text><ellipse cx="1250.75" cy="403.4258" fill="#84BE84" rx="3" ry="3" style="stroke: #038048; stroke-width: 1.0;"/><text fill="#000000" font-size="11" lengthAdjust="spacingAndGlyphs" textLength="106" x="1259.75" y="406.0078">virtual generateJobs()</text><ellipse cx="1250.75" cy="417.2617" fill="#84BE84" rx="3" ry="3" style="stroke: #038048; stroke-width: 1.0;"/><text fill="#000000" font-size="11" lengthAdjust="spacingAndGlyphs" textLength="80" x="1259.75" y="419.8438">virtual process()</text><rect fill="#FEFECE" filter="url(#f1)" height="48" style="stroke: #A80036; stroke-width: 1.5;" width="123" x="1481.75" y="92"/><ellipse cx="1496.75" cy="108" fill="#ADD1B2" rx="11" ry="11" style="stroke: #A80036; stroke-width: 1.0;"/><path d="M1499.5156,103.875 Q1499.6719,103.6563 1499.8594,103.5469 Q1500.0469,103.4375 1500.2656,103.4375 Q1500.6406,103.4375 1500.875,103.6953 Q1501.1094,103.9531 1501.1094,104.5625 L1501.1094,106.0156 Q1501.1094,106.625 1500.875,106.8906 Q1500.6406,107.1563 1500.2656,107.1563 Q1499.9219,107.1563 1499.7188,106.9531 Q1499.5156,106.7656 1499.4063,106.25 Q1499.3594,105.8906 1499.1719,105.7031 Q1498.8438,105.3281 1498.2344,105.1094 Q1497.625,104.8906 1497,104.8906 Q1496.2344,104.8906 1495.6016,105.2188 Q1494.9688,105.5469 1494.4766,106.2969 Q1493.9844,107.0469 1493.9844,108.0781 L1493.9844,109.1719 Q1493.9844,110.4063 1494.875,111.2266 Q1495.7656,112.0469 1497.3594,112.0469 Q1498.2969,112.0469 1498.9531,111.7969 Q1499.3438,111.6406 1499.7656,111.2031 Q1500.0313,110.9375 1500.1797,110.8594 Q1500.3281,110.7813 1500.5313,110.7813 Q1500.8594,110.7813 1501.1172,111.0391 Q1501.375,111.2969 1501.375,111.6406 Q1501.375,111.9844 1501.0313,112.3906 Q1500.5313,112.9688 1499.7344,113.2969 Q1498.6563,113.75 1497.3594,113.75 Q1495.8438,113.75 1494.6406,113.125 Q1493.6563,112.625 1492.9688,111.5547 Q1492.2813,110.4844 1492.2813,109.2031 L1492.2813,108.0469 Q1492.2813,106.7188 1492.8984,105.5703 Q1493.5156,104.4219 1494.6094,103.8047 Q1495.7031,103.1875 1496.9375,103.1875 Q1497.6719,103.1875 1498.3203,103.3516 Q1498.9688,103.5156 1499.5156,103.875 Z "/><text fill="#000000" font-size="12" lengthAdjust="spacingAndGlyphs" textLength="91" x="1510.75" y="112.4531">GraphicsSystem</text><line style="stroke: #A80036; stroke-width: 1.5;" x1="1482.75" x2="1603.75" y1="124" y2="124"/><line style="stroke: #A80036; stroke-width: 1.5;" x1="1482.75" x2="1603.75" y1="132" y2="132"/><rect fill="#FEFECE" filter="url(#f1)" height="48" style="stroke: #A80036; stroke-width: 1.5;" width="116" x="1330" y="92"/><ellipse cx="1345" cy="108" fill="#ADD1B2" rx="11" ry="11" style="stroke: #A80036; stroke-width: 1.0;"/><path d="M1347.7656,103.875 Q1347.9219,103.6563 1348.1094,103.5469 Q1348.2969,103.4375 1348.5156,103.4375 Q1348.8906,103.4375 1349.125,103.6953 Q1349.3594,103.9531 1349.3594,104.5625 L1349.3594,106.0156 Q1349.3594,106.625 1349.125,106.8906 Q1348.8906,107.1563 1348.5156,107.1563 Q1348.1719,107.1563 1347.9688,106.9531 Q1347.7656,106.7656 1347.6563,106.25 Q1347.6094,105.8906 1347.4219,105.7031 Q1347.0938,105.3281 1346.4844,105.1094 Q1345.875,104.8906 1345.25,104.8906 Q1344.4844,104.8906 1343.8516,105.2188 Q1343.2188,105.5469 1342.7266,106.2969 Q1342.2344,107.0469 1342.2344,108.0781 L1342.2344,109.1719 Q1342.2344,110.4063 1343.125,111.2266 Q1344.0156,112.0469 1345.6094,112.0469 Q1346.5469,112.0469 1347.2031,111.7969 Q1347.5938,111.6406 1348.0156,111.2031 Q1348.2813,110.9375 1348.4297,110.8594 Q1348.5781,110.7813 1348.7813,110.7813 Q1349.1094,110.7813 1349.3672,111.0391 Q1349.625,111.2969 1349.625,111.6406 Q1349.625,111.9844 1349.2813,112.3906 Q1348.7813,112.9688 1347.9844,113.2969 Q1346.9063,113.75 1345.6094,113.75 Q1344.0938,113.75 1342.8906,113.125 Q1341.9063,112.625 1341.2188,111.5547 Q1340.5313,110.4844 1340.5313,109.2031 L1340.5313,108.0469 Q1340.5313,106.7188 1341.1484,105.5703 Q1341.7656,104.4219 1342.8594,103.8047 Q1343.9531,103.1875 1345.1875,103.1875 Q1345.9219,103.1875 1346.5703,103.3516 Q1347.2188,103.5156 1347.7656,103.875 Z "/><text fill="#000000" font-size="12" lengthAdjust="spacingAndGlyphs" textLength="84" x="1359" y="112.4531">PhysicsSystem</text><line style="stroke: #A80036; stroke-width: 1.5;" x1="1331" x2="1445" y1="124" y2="124"/><line style="stroke: #A80036; stroke-width: 1.5;" x1="1331" x2="1445" y1="132" y2="132"/><rect fill="#FEFECE" filter="url(#f1)" height="48" style="stroke: #A80036; stroke-width: 1.5;" width="122" x="1173" y="92"/><ellipse cx="1188" cy="108" fill="#ADD1B2" rx="11" ry="11" style="stroke: #A80036; stroke-width: 1.0;"/><path d="M1190.7656,103.875 Q1190.9219,103.6563 1191.1094,103.5469 Q1191.2969,103.4375 1191.5156,103.4375 Q1191.8906,103.4375 1192.125,103.6953 Q1192.3594,103.9531 1192.3594,104.5625 L1192.3594,106.0156 Q1192.3594,106.625 1192.125,106.8906 Q1191.8906,107.1563 1191.5156,107.1563 Q1191.1719,107.1563 1190.9688,106.9531 Q1190.7656,106.7656 1190.6563,106.25 Q1190.6094,105.8906 1190.4219,105.7031 Q1190.0938,105.3281 1189.4844,105.1094 Q1188.875,104.8906 1188.25,104.8906 Q1187.4844,104.8906 1186.8516,105.2188 Q1186.2188,105.5469 1185.7266,106.2969 Q1185.2344,107.0469 1185.2344,108.0781 L1185.2344,109.1719 Q1185.2344,110.4063 1186.125,111.2266 Q1187.0156,112.0469 1188.6094,112.0469 Q1189.5469,112.0469 1190.2031,111.7969 Q1190.5938,111.6406 1191.0156,111.2031 Q1191.2813,110.9375 1191.4297,110.8594 Q1191.5781,110.7813 1191.7813,110.7813 Q1192.1094,110.7813 1192.3672,111.0391 Q1192.625,111.2969 1192.625,111.6406 Q1192.625,111.9844 1192.2813,112.3906 Q1191.7813,112.9688 1190.9844,113.2969 Q1189.9063,113.75 1188.6094,113.75 Q1187.0938,113.75 1185.8906,113.125 Q1184.9063,112.625 1184.2188,111.5547 Q1183.5313,110.4844 1183.5313,109.2031 L1183.5313,108.0469 Q1183.5313,106.7188 1184.1484,105.5703 Q1184.7656,104.4219 1185.8594,103.8047 Q1186.9531,103.1875 1188.1875,103.1875 Q1188.9219,103.1875 1189.5703,103.3516 Q1190.2188,103.5156 1190.7656,103.875 Z "/><text fill="#000000" font-size="12" lengthAdjust="spacingAndGlyphs" textLength="90" x="1202" y="112.4531">CollisionSystem</text><line style="stroke: #A80036; stroke-width: 1.5;" x1="1174" x2="1294" y1="124" y2="124"/><line style="stroke: #A80036; stroke-width: 1.5;" x1="1174" x2="1294" y1="132" y2="132"/><rect fill="#FEFECE" filter="url(#f1)" height="216.3828" style="stroke: #A80036; stroke-width: 1.5;" width="344" x="794" y="8"/><ellipse cx="926.25" cy="28.0938" fill="#FF7700" rx="11" ry="11" style="stroke: #A80036; stroke-width: 1.0;"/><path d="M924.3594,32.6563 Q924.1406,32.9219 924,33 Q923.8594,33.0781 923.6719,33.0781 Q923.2813,33.0781 923.0391,32.8125 Q922.7969,32.5469 922.7969,31.9531 L922.7969,30.7969 Q922.7969,30.1875 923.0391,29.9297 Q923.2813,29.6719 923.6719,29.6719 Q923.9688,29.6719 924.1719,29.8281 Q924.375,29.9844 924.4844,30.3516 Q924.5938,30.7188 924.7031,30.8594 Q924.9531,31.1094 925.5625,31.375 Q926.1719,31.6406 926.9063,31.6406 Q928.0469,31.6406 928.7656,31.1094 Q929.2344,30.7813 929.2344,30.3125 Q929.2344,30 929.0156,29.7188 Q928.7969,29.4375 928.2813,29.2656 Q927.9531,29.1406 926.7969,28.9219 Q925.4063,28.6563 924.6875,28.2969 Q923.9688,27.9375 923.5547,27.2734 Q923.1406,26.6094 923.1406,25.8281 Q923.1406,24.6094 924.1641,23.6953 Q925.1875,22.7813 926.8281,22.7813 Q927.4844,22.7813 928.0391,22.9219 Q928.5938,23.0625 929.0625,23.3594 Q929.3906,23.0469 929.7188,23.0469 Q930.0938,23.0469 930.3281,23.3047 Q930.5625,23.5625 930.5625,24.1719 L930.5625,25.4531 Q930.5625,26.0625 930.3281,26.3203 Q930.0938,26.5781 929.7188,26.5781 Q929.4063,26.5781 929.1719,26.3906 Q928.9844,26.25 928.8984,25.8281 Q928.8125,25.4063 928.6719,25.2188 Q928.4219,24.9063 927.9453,24.6953 Q927.4688,24.4844 926.8281,24.4844 Q925.9063,24.4844 925.375,24.9063 Q924.8438,25.3281 924.8438,25.7969 Q924.8438,26.1094 925.0625,26.4063 Q925.2813,26.7031 925.7031,26.875 Q925.9844,26.9844 927.2891,27.2422 Q928.5938,27.5 929.2969,27.8047 Q930,28.1094 930.4688,28.7656 Q930.9375,29.4219 930.9375,30.3281 Q930.9375,31.5938 930.0469,32.3438 Q928.8594,33.3438 927.0313,33.3438 Q926.3281,33.3438 925.6641,33.1719 Q925,33 924.3594,32.6563 Z "/><text fill="#000000" font-size="12" font-style="italic" lengthAdjust="spacingAndGlyphs" textLength="75" x="944.75" y="25">&lt;&lt; Facade &gt;&gt;</text><text fill="#000000" font-size="12" lengthAdjust="spacingAndGlyphs" textLength="36" x="964.25" y="40.0938">Kampf</text><line style="stroke: #A80036; stroke-width: 1.5;" x1="795" x2="1137" y1="48.1875" y2="48.1875"/><rect fill="none" height="6" style="stroke: #C82930; stroke-width: 1.0;" width="6" x="802" y="57.6055"/><text fill="#000000" font-size="11" lengthAdjust="spacingAndGlyphs" textLength="197" x="814" y="63.1875">AbstractRenderWindow windowContext</text><rect fill="none" height="6" style="stroke: #C82930; stroke-width: 1.0;" width="6" x="802" y="71.4414"/><text fill="#000000" font-size="11" lengthAdjust="spacingAndGlyphs" textLength="197" x="814" y="77.0234">std::vector&lt;AbstractSystem&gt; systemList</text><rect fill="none" height="6" style="stroke: #C82930; stroke-width: 1.0;" width="6" x="802" y="85.2773"/><text fill="#000000" font-size="11" lengthAdjust="spacingAndGlyphs" textLength="210" x="814" y="90.8594">std::vector&lt;AbstractManager&gt; managerList</text><rect fill="none" height="6" style="stroke: #C82930; stroke-width: 1.0;" width="6" x="802" y="99.1133"/><text fill="#000000" font-size="11" lengthAdjust="spacingAndGlyphs" textLength="111" x="814" y="104.6953">Messenger messenger</text><line style="stroke: #A80036; stroke-width: 1.0;" x1="795" x2="1137" y1="111.5313" y2="111.5313"/><line style="stroke: #A80036; stroke-width: 1.0;" x1="795" x2="1137" y1="113.5313" y2="113.5313"/><ellipse cx="805" cy="141.7852" fill="#84BE84" rx="3" ry="3" style="stroke: #038048; stroke-width: 1.0;"/><text fill="#000000" font-size="11" lengthAdjust="spacingAndGlyphs" textLength="62" x="814" y="144.3672">void Kampf()</text><ellipse cx="805" cy="155.6211" fill="#84BE84" rx="3" ry="3" style="stroke: #038048; stroke-width: 1.0;"/><text fill="#000000" font-size="11" lengthAdjust="spacingAndGlyphs" textLength="178" x="814" y="158.2031">void runMainLoop(bContinuous=true)</text><line style="stroke: #A80036; stroke-width: 1.0; stroke-dasharray: 1.0,2.0;" x1="794" x2="936" y1="126.4492" y2="126.4492"/><text fill="#000000" font-size="11" lengthAdjust="spacingAndGlyphs" textLength="56" x="938" y="130.0313">constructor</text><line style="stroke: #A80036; stroke-width: 1.0; stroke-dasharray: 1.0,2.0;" x1="995" x2="1137" y1="126.4492" y2="126.4492"/><ellipse cx="805" cy="187.293" fill="#84BE84" rx="3" ry="3" style="stroke: #038048; stroke-width: 1.0;"/><text fill="#000000" font-size="11" lengthAdjust="spacingAndGlyphs" textLength="294" x="814" y="189.875">AbstractSystem getSystem(enum SystemType enumSystem)</text><ellipse cx="805" cy="201.1289" fill="#84BE84" rx="3" ry="3" style="stroke: #038048; stroke-width: 1.0;"/><text fill="#000000" font-size="11" lengthAdjust="spacingAndGlyphs" textLength="318" x="814" y="203.7109">AbstractManager getManager(enum ManagerType enumManager)</text><ellipse cx="805" cy="214.9648" fill="#84BE84" rx="3" ry="3" style="stroke: #038048; stroke-width: 1.0;"/><text fill="#000000" font-size="11" lengthAdjust="spacingAndGlyphs" textLength="134" x="814" y="217.5469">Messenger getMessenger()</text><line style="stroke: #A80036; stroke-width: 1.0;" x1="794" x2="947" y1="171.957" y2="171.957"/><text fill="#000000" font-size="11" lengthAdjust="spacingAndGlyphs" textLength="34" x="949" y="175.5391">getters</text><line style="stroke: #A80036; stroke-width: 1.0;" x1="984" x2="1137" y1="171.957" y2="171.957"/><rect fill="#FEFECE" filter="url(#f1)" height="89.5078" style="stroke: #A80036; stroke-width: 1.5;" width="198" x="896" y="323"/><ellipse cx="927.65" cy="339" fill="#A9DCDF" rx="11" ry="11" style="stroke: #A80036; stroke-width: 1.0;"/><path d="M929.8375,340.7656 L925.6969,340.7656 L925.275,341.7969 L925.6969,341.7969 Q926.3063,341.7969 926.5719,342.0313 Q926.8375,342.2656 926.8375,342.6563 Q926.8375,343.0313 926.5719,343.2656 Q926.3063,343.5 925.6969,343.5 L923.4,343.5 Q922.7906,343.5 922.5328,343.2656 Q922.275,343.0313 922.275,342.6406 Q922.275,342.2656 922.5484,342.0234 Q922.8219,341.7813 923.4469,341.7969 L926.1188,335.1406 L925.0094,335.1406 Q924.4,335.1406 924.1344,334.9063 Q923.8688,334.6719 923.8688,334.2813 Q923.8688,333.9063 924.1344,333.6719 Q924.4,333.4375 925.0094,333.4375 L928.6813,333.4375 L932.0719,341.7969 Q932.6656,341.7969 932.8531,341.9375 Q933.2438,342.2031 933.2438,342.6563 Q933.2438,343.0313 932.9859,343.2656 Q932.7281,343.5 932.1188,343.5 L929.8219,343.5 Q929.2125,343.5 928.9469,343.2656 Q928.6813,343.0313 928.6813,342.6406 Q928.6813,342.2656 928.9469,342.0313 Q929.2125,341.7969 929.8219,341.7969 L930.2438,341.7969 L929.8375,340.7656 Z M929.1188,339.0625 L927.7594,335.6875 L926.3844,339.0625 L929.1188,339.0625 Z "/><text fill="#000000" font-size="12" font-style="italic" lengthAdjust="spacingAndGlyphs" textLength="129" x="945.35" y="343.4531">AbstractRenderWindow</text><line style="stroke: #A80036; stroke-width: 1.5;" x1="897" x2="1093" y1="355" y2="355"/><rect fill="none" height="6" style="stroke: #C82930; stroke-width: 1.0;" width="6" x="904" y="364.418"/><text fill="#000000" font-size="11" lengthAdjust="spacingAndGlyphs" textLength="111" x="916" y="370">int windowWidth = 800</text><rect fill="none" height="6" style="stroke: #C82930; stroke-width: 1.0;" width="6" x="904" y="378.2539"/><text fill="#000000" font-size="11" lengthAdjust="spacingAndGlyphs" textLength="114" x="916" y="383.8359">int windowHeight = 600</text><line style="stroke: #A80036; stroke-width: 1.0;" x1="897" x2="1093" y1="390.6719" y2="390.6719"/><line style="stroke: #A80036; stroke-width: 1.0;" x1="897" x2="1093" y1="392.6719" y2="392.6719"/><ellipse cx="907" cy="403.0898" fill="#84BE84" rx="3" ry="3" style="stroke: #038048; stroke-width: 1.0;"/><text fill="#000000" font-size="11" lengthAdjust="spacingAndGlyphs" textLength="172" x="916" y="405.6719">draw(AbstractDrawable drawable)</text><rect fill="#FEFECE" filter="url(#f1)" height="158.6875" style="stroke: #A80036; stroke-width: 1.5;" width="284" x="1640" y="36.5"/><ellipse cx="1746.75" cy="52.5" fill="#ADD1B2" rx="11" ry="11" style="stroke: #A80036; stroke-width: 1.0;"/><path d="M1749.5156,48.375 Q1749.6719,48.1563 1749.8594,48.0469 Q1750.0469,47.9375 1750.2656,47.9375 Q1750.6406,47.9375 1750.875,48.1953 Q1751.1094,48.4531 1751.1094,49.0625 L1751.1094,50.5156 Q1751.1094,51.125 1750.875,51.3906 Q1750.6406,51.6563 1750.2656,51.6563 Q1749.9219,51.6563 1749.7188,51.4531 Q1749.5156,51.2656 1749.4063,50.75 Q1749.3594,50.3906 1749.1719,50.2031 Q1748.8438,49.8281 1748.2344,49.6094 Q1747.625,49.3906 1747,49.3906 Q1746.2344,49.3906 1745.6016,49.7188 Q1744.9688,50.0469 1744.4766,50.7969 Q1743.9844,51.5469 1743.9844,52.5781 L1743.9844,53.6719 Q1743.9844,54.9063 1744.875,55.7266 Q1745.7656,56.5469 1747.3594,56.5469 Q1748.2969,56.5469 1748.9531,56.2969 Q1749.3438,56.1406 1749.7656,55.7031 Q1750.0313,55.4375 1750.1797,55.3594 Q1750.3281,55.2813 1750.5313,55.2813 Q1750.8594,55.2813 1751.1172,55.5391 Q1751.375,55.7969 1751.375,56.1406 Q1751.375,56.4844 1751.0313,56.8906 Q1750.5313,57.4688 1749.7344,57.7969 Q1748.6563,58.25 1747.3594,58.25 Q1745.8438,58.25 1744.6406,57.625 Q1743.6563,57.125 1742.9688,56.0547 Q1742.2813,54.9844 1742.2813,53.7031 L1742.2813,52.5469 Q1742.2813,51.2188 1742.8984,50.0703 Q1743.5156,48.9219 1744.6094,48.3047 Q1745.7031,47.6875 1746.9375,47.6875 Q1747.6719,47.6875 1748.3203,47.8516 Q1748.9688,48.0156 1749.5156,48.375 Z "/><text fill="#000000" font-size="12" lengthAdjust="spacingAndGlyphs" textLength="62" x="1767.25" y="56.9531">Messenger</text><line style="stroke: #A80036; stroke-width: 1.5;" x1="1641" x2="1923" y1="68.5" y2="68.5"/><rect fill="none" height="6" style="stroke: #C82930; stroke-width: 1.0;" width="6" x="1648" y="77.918"/><text fill="#000000" font-size="11" lengthAdjust="spacingAndGlyphs" textLength="148" x="1660" y="83.5">list&lt;Message&gt; MessageQueue</text><line style="stroke: #A80036; stroke-width: 1.0;" x1="1641" x2="1923" y1="90.3359" y2="90.3359"/><line style="stroke: #A80036; stroke-width: 1.0;" x1="1641" x2="1923" y1="92.3359" y2="92.3359"/><ellipse cx="1651" cy="102.7539" fill="#84BE84" rx="3" ry="3" style="stroke: #038048; stroke-width: 1.0;"/><text fill="#000000" font-size="11" lengthAdjust="spacingAndGlyphs" textLength="62" x="1660" y="105.3359">Messenger()</text><ellipse cx="1651" cy="116.5898" fill="#84BE84" rx="3" ry="3" style="stroke: #038048; stroke-width: 1.0;"/><text fill="#000000" font-size="11" lengthAdjust="spacingAndGlyphs" textLength="179" x="1660" y="119.1719">appendMessage(Message message)</text><ellipse cx="1651" cy="130.4258" fill="#84BE84" rx="3" ry="3" style="stroke: #038048; stroke-width: 1.0;"/><text fill="#000000" font-size="11" lengthAdjust="spacingAndGlyphs" textLength="258" x="1660" y="133.0078">list&lt;Message&gt; retrieveMessages(Message message)</text><ellipse cx="1651" cy="144.2617" fill="#84BE84" rx="3" ry="3" style="stroke: #038048; stroke-width: 1.0;"/><text fill="#000000" font-size="11" lengthAdjust="spacingAndGlyphs" textLength="250" x="1660" y="146.8438">void insertMessage(int position, Message message)</text><ellipse cx="1651" cy="158.0977" fill="#84BE84" rx="3" ry="3" style="stroke: #038048; stroke-width: 1.0;"/><text fill="#000000" font-size="11" lengthAdjust="spacingAndGlyphs" textLength="117" x="1660" y="160.6797">Message popMessage()</text><ellipse cx="1651" cy="171.9336" fill="#84BE84" rx="3" ry="3" style="stroke: #038048; stroke-width: 1.0;"/><text fill="#000000" font-size="11" lengthAdjust="spacingAndGlyphs" textLength="195" x="1660" y="174.5156">Message deleteMessage(int messageID)</text><ellipse cx="1651" cy="185.7695" fill="#84BE84" rx="3" ry="3" style="stroke: #038048; stroke-width: 1.0;"/><text fill="#000000" font-size="11" lengthAdjust="spacingAndGlyphs" textLength="184" x="1660" y="188.3516">Message hasMessage(int messageID)</text><rect fill="#FEFECE" filter="url(#f1)" height="61.8359" style="stroke: #A80036; stroke-width: 1.5;" width="93" x="1735.75" y="337"/><ellipse cx="1755.25" cy="353" fill="#ADD1B2" rx="11" ry="11" style="stroke: #A80036; stroke-width: 1.0;"/><path d="M1758.0156,348.875 Q1758.1719,348.6563 1758.3594,348.5469 Q1758.5469,348.4375 1758.7656,348.4375 Q1759.1406,348.4375 1759.375,348.6953 Q1759.6094,348.9531 1759.6094,349.5625 L1759.6094,351.0156 Q1759.6094,351.625 1759.375,351.8906 Q1759.1406,352.1563 1758.7656,352.1563 Q1758.4219,352.1563 1758.2188,351.9531 Q1758.0156,351.7656 1757.9063,351.25 Q1757.8594,350.8906 1757.6719,350.7031 Q1757.3438,350.3281 1756.7344,350.1094 Q1756.125,349.8906 1755.5,349.8906 Q1754.7344,349.8906 1754.1016,350.2188 Q1753.4688,350.5469 1752.9766,351.2969 Q1752.4844,352.0469 1752.4844,353.0781 L1752.4844,354.1719 Q1752.4844,355.4063 1753.375,356.2266 Q1754.2656,357.0469 1755.8594,357.0469 Q1756.7969,357.0469 1757.4531,356.7969 Q1757.8438,356.6406 1758.2656,356.2031 Q1758.5313,355.9375 1758.6797,355.8594 Q1758.8281,355.7813 1759.0313,355.7813 Q1759.3594,355.7813 1759.6172,356.0391 Q1759.875,356.2969 1759.875,356.6406 Q1759.875,356.9844 1759.5313,357.3906 Q1759.0313,357.9688 1758.2344,358.2969 Q1757.1563,358.75 1755.8594,358.75 Q1754.3438,358.75 1753.1406,358.125 Q1752.1563,357.625 1751.4688,356.5547 Q1750.7813,355.4844 1750.7813,354.2031 L1750.7813,353.0469 Q1750.7813,351.7188 1751.3984,350.5703 Q1752.0156,349.4219 1753.1094,348.8047 Q1754.2031,348.1875 1755.4375,348.1875 Q1756.1719,348.1875 1756.8203,348.3516 Q1757.4688,348.5156 1758.0156,348.875 Z "/><text fill="#000000" font-size="12" lengthAdjust="spacingAndGlyphs" textLength="51" x="1770.25" y="357.4531">Message</text><line style="stroke: #A80036; stroke-width: 1.5;" x1="1736.75" x2="1827.75" y1="369" y2="369"/><rect fill="none" height="6" style="stroke: #C82930; stroke-width: 1.0;" width="6" x="1743.75" y="378.418"/><text fill="#000000" font-size="11" lengthAdjust="spacingAndGlyphs" textLength="67" x="1755.75" y="384">int messageID</text><line style="stroke: #A80036; stroke-width: 1.5;" x1="1736.75" x2="1827.75" y1="390.8359" y2="390.8359"/><rect fill="#FEFECE" filter="url(#f1)" height="144.8516" style="stroke: #A80036; stroke-width: 1.5;" width="164" x="1959" y="43.5"/><ellipse cx="1999.2" cy="59.5" fill="#ADD1B2" rx="11" ry="11" style="stroke: #A80036; stroke-width: 1.0;"/><path d="M2001.9656,55.375 Q2002.1219,55.1563 2002.3094,55.0469 Q2002.4969,54.9375 2002.7156,54.9375 Q2003.0906,54.9375 2003.325,55.1953 Q2003.5594,55.4531 2003.5594,56.0625 L2003.5594,57.5156 Q2003.5594,58.125 2003.325,58.3906 Q2003.0906,58.6563 2002.7156,58.6563 Q2002.3719,58.6563 2002.1688,58.4531 Q2001.9656,58.2656 2001.8563,57.75 Q2001.8094,57.3906 2001.6219,57.2031 Q2001.2938,56.8281 2000.6844,56.6094 Q2000.075,56.3906 1999.45,56.3906 Q1998.6844,56.3906 1998.0516,56.7188 Q1997.4188,57.0469 1996.9266,57.7969 Q1996.4344,58.5469 1996.4344,59.5781 L1996.4344,60.6719 Q1996.4344,61.9063 1997.325,62.7266 Q1998.2156,63.5469 1999.8094,63.5469 Q2000.7469,63.5469 2001.4031,63.2969 Q2001.7938,63.1406 2002.2156,62.7031 Q2002.4813,62.4375 2002.6297,62.3594 Q2002.7781,62.2813 2002.9813,62.2813 Q2003.3094,62.2813 2003.5672,62.5391 Q2003.825,62.7969 2003.825,63.1406 Q2003.825,63.4844 2003.4813,63.8906 Q2002.9813,64.4688 2002.1844,64.7969 Q2001.1063,65.25 1999.8094,65.25 Q1998.2938,65.25 1997.0906,64.625 Q1996.1063,64.125 1995.4188,63.0547 Q1994.7313,61.9844 1994.7313,60.7031 L1994.7313,59.5469 Q1994.7313,58.2188 1995.3484,57.0703 Q1995.9656,55.9219 1997.0594,55.3047 Q1998.1531,54.6875 1999.3875,54.6875 Q2000.1219,54.6875 2000.7703,54.8516 Q2001.4188,55.0156 2001.9656,55.375 Z "/><text fill="#000000" font-size="12" lengthAdjust="spacingAndGlyphs" textLength="76" x="2018.8" y="63.9531">JobScheduler</text><line style="stroke: #A80036; stroke-width: 1.5;" x1="1960" x2="2122" y1="75.5" y2="75.5"/><rect fill="none" height="6" style="stroke: #C82930; stroke-width: 1.0;" width="6" x="1967" y="84.918"/><text fill="#000000" font-size="11" lengthAdjust="spacingAndGlyphs" textLength="113" x="1979" y="90.5">Queue&lt;Job&gt; JobQueue</text><rect fill="none" height="6" style="stroke: #C82930; stroke-width: 1.0;" width="6" x="1967" y="98.7539"/><text fill="#000000" font-size="11" lengthAdjust="spacingAndGlyphs" textLength="138" x="1979" y="104.3359">list&lt;WorkerThread&gt; workers</text><line style="stroke: #A80036; stroke-width: 1.0;" x1="1960" x2="2122" y1="111.1719" y2="111.1719"/><line style="stroke: #A80036; stroke-width: 1.0;" x1="1960" x2="2122" y1="113.1719" y2="113.1719"/><ellipse cx="1970" cy="123.5898" fill="#84BE84" rx="3" ry="3" style="stroke: #038048; stroke-width: 1.0;"/><text fill="#000000" font-size="11" lengthAdjust="spacingAndGlyphs" textLength="74" x="1979" y="126.1719">createWorker()</text><ellipse cx="1970" cy="137.4258" fill="#84BE84" rx="3" ry="3" style="stroke: #038048; stroke-width: 1.0;"/><text fill="#000000" font-size="11" lengthAdjust="spacingAndGlyphs" textLength="83" x="1979" y="140.0078">pushJob(Job job)</text><ellipse cx="1970" cy="151.2617" fill="#84BE84" rx="3" ry="3" style="stroke: #038048; stroke-width: 1.0;"/><text fill="#000000" font-size="11" lengthAdjust="spacingAndGlyphs" textLength="80" x="1979" y="153.8438">processQueue()</text><ellipse cx="1970" cy="165.0977" fill="#84BE84" rx="3" ry="3" style="stroke: #038048; stroke-width: 1.0;"/><text fill="#000000" font-size="11" lengthAdjust="spacingAndGlyphs" textLength="73" x="1979" y="167.6797">syncWorkers()</text><ellipse cx="1970" cy="178.9336" fill="none" rx="3" ry="3" style="stroke: #038048; stroke-width: 1.0;"/><text fill="#000000" font-size="11" lengthAdjust="spacingAndGlyphs" textLength="0" x="1982" y="181.5156"/><rect fill="#FEFECE" filter="url(#f1)" height="75.6719" style="stroke: #A80036; stroke-width: 1.5;" width="111" x="1985.75" y="330"/><ellipse cx="2027.3" cy="346" fill="#ADD1B2" rx="11" ry="11" style="stroke: #A80036; stroke-width: 1.0;"/><path d="M2030.0656,341.875 Q2030.2219,341.6563 2030.4094,341.5469 Q2030.5969,341.4375 2030.8156,341.4375 Q2031.1906,341.4375 2031.425,341.6953 Q2031.6594,341.9531 2031.6594,342.5625 L2031.6594,344.0156 Q2031.6594,344.625 2031.425,344.8906 Q2031.1906,345.1563 2030.8156,345.1563 Q2030.4719,345.1563 2030.2688,344.9531 Q2030.0656,344.7656 2029.9563,344.25 Q2029.9094,343.8906 2029.7219,343.7031 Q2029.3938,343.3281 2028.7844,343.1094 Q2028.175,342.8906 2027.55,342.8906 Q2026.7844,342.8906 2026.1516,343.2188 Q2025.5188,343.5469 2025.0266,344.2969 Q2024.5344,345.0469 2024.5344,346.0781 L2024.5344,347.1719 Q2024.5344,348.4063 2025.425,349.2266 Q2026.3156,350.0469 2027.9094,350.0469 Q2028.8469,350.0469 2029.5031,349.7969 Q2029.8938,349.6406 2030.3156,349.2031 Q2030.5813,348.9375 2030.7297,348.8594 Q2030.8781,348.7813 2031.0813,348.7813 Q2031.4094,348.7813 2031.6672,349.0391 Q2031.925,349.2969 2031.925,349.6406 Q2031.925,349.9844 2031.5813,350.3906 Q2031.0813,350.9688 2030.2844,351.2969 Q2029.2063,351.75 2027.9094,351.75 Q2026.3938,351.75 2025.1906,351.125 Q2024.2063,350.625 2023.5188,349.5547 Q2022.8313,348.4844 2022.8313,347.2031 L2022.8313,346.0469 Q2022.8313,344.7188 2023.4484,343.5703 Q2024.0656,342.4219 2025.1594,341.8047 Q2026.2531,341.1875 2027.4875,341.1875 Q2028.2219,341.1875 2028.8703,341.3516 Q2029.5188,341.5156 2030.0656,341.875 Z "/><text fill="#000000" font-size="12" lengthAdjust="spacingAndGlyphs" textLength="20" x="2047.2" y="350.4531">Job</text><line style="stroke: #A80036; stroke-width: 1.5;" x1="1986.75" x2="2095.75" y1="362" y2="362"/><rect fill="none" height="6" style="stroke: #C82930; stroke-width: 1.0;" width="6" x="1993.75" y="371.418"/><text fill="#000000" font-size="11" lengthAdjust="spacingAndGlyphs" textLength="85" x="2005.75" y="377">std::function func</text><rect fill="none" height="6" style="stroke: #C82930; stroke-width: 1.0;" width="6" x="1993.75" y="385.2539"/><text fill="#000000" font-size="11" lengthAdjust="spacingAndGlyphs" textLength="82" x="2005.75" y="390.8359">*void parameters</text><line style="stroke: #A80036; stroke-width: 1.5;" x1="1986.75" x2="2095.75" y1="397.6719" y2="397.6719"/><path d="M453,399.18 C453,459.26 453,593.66 453,658.97 " fill="none" style="stroke: #A80036; stroke-width: 1.0;"/><path d="M630.835,368 C614.323,368 597.811,368 581.299,368 " fill="none" style="stroke: #A80036; stroke-width: 1.0;"/><polygon fill="none" points="581.158,375,561.158,368,581.158,361,581.158,375" style="stroke: #A80036; stroke-width: 1.0;"/><path d="M1556.6,1717.46 C1558.65,1740.624 1560.73,1764 1562.53,1784.348 " fill="none" style="stroke: #A80036; stroke-width: 1.0;"/><polygon fill="none" points="1555.43,1704.254,1551.9754,1710.5838,1556.4896,1716.2071,1559.9442,1709.8774,1555.43,1704.254" style="stroke: #A80036; stroke-width: 1.0;"/><text fill="#000000" font-size="13" lengthAdjust="spacingAndGlyphs" textLength="21" x="1561" y="1748.5">one</text><polygon fill="#000000" points="1567,1757.8516,1570,1763.8516,1573,1757.8516,1567,1757.8516" style="stroke: #000000; stroke-width: 1.0;"/><path d="M1485.59,1704.254 C1469.15,1733.176 1451.95,1763.415 1437.69,1788.498 " fill="none" style="stroke: #A80036; stroke-width: 1.0;"/><path d="M1204.21,1597 C1224.53,1597 1244.52,1597 1262.46,1597 " fill="none" style="stroke: #A80036; stroke-width: 1.0;"/><polygon fill="none" points="1191.17,1597,1197.17,1601,1203.17,1597,1197.17,1593,1191.17,1597" style="stroke: #A80036; stroke-width: 1.0;"/><text fill="#000000" font-size="13" lengthAdjust="spacingAndGlyphs" textLength="21" x="1209.25" y="1589">one</text><polygon fill="#000000" points="1233.25,1582.6758,1239.25,1585.6758,1233.25,1588.6758,1233.25,1582.6758" style="stroke: #000000; stroke-width: 1.0;"/><path d="M1359.83,1385.903 C1380.57,1405.453 1400.93,1425.355 1420,1445 C1433.67,1459.088 1447.56,1474.466 1460.88,1489.843 " fill="none" style="stroke: #A80036; stroke-width: 1.0;"/><polygon fill="none" points="1350.29,1376.947,1351.9327,1383.9685,1359.0459,1385.1528,1357.4032,1378.1312,1350.29,1376.947" style="stroke: #A80036; stroke-width: 1.0;"/><path d="M1090.09,1415.85 C1079.55,1464.428 1069.36,1511.396 1062.02,1545.189 " fill="none" style="stroke: #A80036; stroke-width: 1.0;"/><polygon fill="none" points="1092.84,1403.135,1087.6581,1408.1498,1090.2941,1414.8618,1095.476,1409.847,1092.84,1403.135" style="stroke: #A80036; stroke-width: 1.0;"/><path d="M438.601,1169.875 C439.157,1111.079 450.202,962.262 545.5,922 C577.229,908.59 823.554,909.12 855.5,922 C886.379,934.45 915.77,952.068 943.113,972.427 " fill="none" style="stroke: #A80036; stroke-width: 1.0;"/><polygon fill="none" points="947.448,966.93,958.972,984.712,938.874,977.997,947.448,966.93" style="stroke: #A80036; stroke-width: 1.0;"/><path d="M271.485,1169.804 C269.328,1110.846 273.558,961.689 367.5,922 C417.447,900.9 805.211,901.73 855.5,922 C886.379,934.45 915.77,952.068 943.113,972.427 " fill="none" style="stroke: #A80036; stroke-width: 1.0;"/><polygon fill="none" points="947.448,966.93,958.972,984.712,938.874,977.997,947.448,966.93" style="stroke: #A80036; stroke-width: 1.0;"/><path d="M107.509,1169.869 C107.84,1111.059 118.32,962.212 213.5,922 C246.355,908.12 822.421,908.66 855.5,922 C886.379,934.45 915.77,952.068 943.113,972.427 " fill="none" style="stroke: #A80036; stroke-width: 1.0;"/><polygon fill="none" points="947.448,966.93,958.972,984.712,938.874,977.997,947.448,966.93" style="stroke: #A80036; stroke-width: 1.0;"/><path d="M856.149,1194 C872.587,1194 889.024,1194 905.461,1194 " fill="none" style="stroke: #A80036; stroke-width: 1.0;"/><polygon fill="none" points="905.511,1187,925.511,1194,905.511,1201,905.511,1187" style="stroke: #A80036; stroke-width: 1.0;"/><path d="M608.952,1169.833 C607.93,1110.94 615.01,961.921 709.5,922 C739.387,909.37 825.409,909.87 855.5,922 C886.379,934.45 915.77,952.068 943.113,972.427 " fill="none" style="stroke: #A80036; stroke-width: 1.0;"/><polygon fill="none" points="947.448,966.93,958.972,984.712,938.874,977.997,947.448,966.93" style="stroke: #A80036; stroke-width: 1.0;"/><path d="M1527.01,140.24 C1511.45,162.4 1486.74,196.39 1463,224 C1442.4,247.96 1418.7,272.88 1396.7,295.08 " fill="none" style="stroke: #A80036; stroke-width: 1.0;"/><polygon fill="none" points="1401.62,300.05,1382.53,309.24,1391.73,290.15,1401.62,300.05" style="stroke: #A80036; stroke-width: 1.0;"/><path d="M1381.91,140.07 C1372.99,173.87 1355.94,238.42 1342.31,290.06 " fill="none" style="stroke: #A80036; stroke-width: 1.0;"/><polygon fill="none" points="1349.06,291.94,1337.18,309.49,1335.52,288.36,1349.06,291.94" style="stroke: #A80036; stroke-width: 1.0;"/><path d="M1242.12,140.07 C1254.04,173.94 1276.84,238.71 1295.04,290.41 " fill="none" style="stroke: #A80036; stroke-width: 1.0;"/><polygon fill="none" points="1301.72,288.3,1301.76,309.49,1288.51,292.95,1301.72,288.3" style="stroke: #A80036; stroke-width: 1.0;"/><path d="M979.943,237.2 C983.498,267.84 987.097,298.87 989.885,322.9 " fill="none" style="stroke: #A80036; stroke-width: 1.0;"/><polygon fill="none" points="978.425,224.11,975.144,230.5314,979.8095,236.0299,983.0905,229.6084,978.425,224.11" style="stroke: #A80036; stroke-width: 1.0;"/><path d="M1129.31,231.69 C1167.67,258.62 1206.95,286.2 1239.95,309.38 " fill="none" style="stroke: #A80036; stroke-width: 1.0;"/><polygon fill="none" points="1118.53,224.11,1121.1425,230.8312,1128.3515,231.0048,1125.739,224.2836,1118.53,224.11" style="stroke: #A80036; stroke-width: 1.0;"/><path d="M781.892,186.45 C726.65,209.2 666.533,235.91 613,264 C571.462,285.8 526.776,315.11 495.216,336.88 " fill="none" style="stroke: #A80036; stroke-width: 1.0;"/><polygon fill="none" points="793.969,181.5,786.9007,180.0721,782.864,186.0475,789.9323,187.4754,793.969,181.5" style="stroke: #A80036; stroke-width: 1.0;"/><path d="M833.727,434.74 C848.303,446.01 863.169,457.73 877,469 C894.921,483.61 913.354,498.96 931.741,514.49 " fill="none" style="stroke: #A80036; stroke-width: 1.0;"/><polygon fill="#A80036" points="823.183,426.62,825.5016,433.4482,832.6963,433.9342,830.3777,427.106,823.183,426.62" style="stroke: #A80036; stroke-width: 1.0;"/><path d="M1138,892.82 C1138,922.99 1138,954.259 1138,984.712 " fill="none" style="stroke: #A80036; stroke-width: 1.0;"/><polygon fill="none" points="1138,879.51,1134,885.51,1138,891.51,1142,885.51,1138,879.51" style="stroke: #A80036; stroke-width: 1.0;"/><text fill="#000000" font-size="13" lengthAdjust="spacingAndGlyphs" textLength="32" x="1139" y="926.5">many</text><polygon fill="#000000" points="1150.5,935.8516,1153.5,941.8516,1156.5,935.8516,1150.5,935.8516" style="stroke: #000000; stroke-width: 1.0;"/><path d="M1782,208.91 C1782,254.03 1782,305.34 1782,336.94 " fill="none" style="stroke: #A80036; stroke-width: 1.0;"/><polygon fill="none" points="1782,195.76,1778,201.76,1782,207.76,1786,201.76,1782,195.76" style="stroke: #A80036; stroke-width: 1.0;"/><path d="M2041,201.87 C2041,245.34 2041,296.06 2041,329.7 " fill="none" style="stroke: #A80036; stroke-width: 1.0;"/><polygon fill="none" points="2041,188.64,2037,194.64,2041,200.64,2045,194.64,2041,188.64" style="stroke: #A80036; stroke-width: 1.0;"/></g></svg>