<?xml version="1.0" encoding="UTF-8" standalone="yes"?><svg xmlns="http://www.w3.org/2000/svg" xmlns:xlink="http://www.w3.org/1999/xlink" height="657pt" style="width:614px;height:657px;" version="1.1" viewBox="0 0 614 657" width="614pt"><defs><filter height="300%" id="f1" width="300%" x="-1" y="-1"><feGaussianBlur result="blurOut" stdDeviation="2.0"/><feColorMatrix in="blurOut" result="blurOut2" type="matrix" values="0 0 0 0 0 0 0 0 0 0 0 0 0 0 0 0 0 0 .4 0"/><feOffset dx="4.0" dy="4.0" in="blurOut2" result="blurOut3"/><feBlend in="SourceGraphic" in2="blurOut3" mode="normal"/></filter></defs><g><text fill="#000000" font-size="13" font-weight="bold" lengthAdjust="spacingAndGlyphs" textLength="137" x="239" y="20">Basic System Process</text><rect fill="#FFFFFF" filter="url(#f1)" height="427.5703" style="stroke: #000000; stroke-width: 2.0;" width="530.5" x="74.5" y="149.0547"/><rect fill="#FFFFFF" filter="url(#f1)" height="321.5156" style="stroke: #000000; stroke-width: 2.0;" width="482.5" x="84.5" y="204.7578"/><rect fill="#FFFFFF" filter="url(#f1)" height="48.7031" style="stroke: #000000; stroke-width: 2.0;" width="207.5" x="255.5" y="364.5156"/><rect fill="#FFFFFF" filter="url(#f1)" height="48.7031" style="stroke: #000000; stroke-width: 2.0;" width="301.5" x="255.5" y="470.5703"/><line style="stroke: #A80036; stroke-width: 1.0; stroke-dasharray: 5.0,5.0;" x1="26" x2="26" y1="88.7031" y2="593.625"/><line style="stroke: #A80036; stroke-width: 1.0; stroke-dasharray: 5.0,5.0;" x1="122.5" x2="122.5" y1="88.7031" y2="593.625"/><line style="stroke: #A80036; stroke-width: 1.0; stroke-dasharray: 5.0,5.0;" x1="235.5" x2="235.5" y1="88.7031" y2="593.625"/><line style="stroke: #A80036; stroke-width: 1.0; stroke-dasharray: 5.0,5.0;" x1="290.5" x2="290.5" y1="88.7031" y2="593.625"/><line style="stroke: #A80036; stroke-width: 1.0; stroke-dasharray: 5.0,5.0;" x1="418" x2="418" y1="88.7031" y2="593.625"/><line style="stroke: #A80036; stroke-width: 1.0; stroke-dasharray: 5.0,5.0;" x1="505" x2="505" y1="88.7031" y2="593.625"/><text fill="#000000" font-size="13" lengthAdjust="spacingAndGlyphs" textLength="37" x="5" y="85.3516">Kampf</text><ellipse cx="26.5" cy="56.3516" fill="#FEFECE" filter="url(#f1)" rx="12" ry="12" style="stroke: #A80036; stroke-width: 2.0;"/><polygon fill="#A80036" points="22.5,44.3516,28.5,39.3516,26.5,44.3516,28.5,49.3516,22.5,44.3516" style="stroke: #A80036; stroke-width: 1.0;"/><text fill="#000000" font-size="13" lengthAdjust="spacingAndGlyphs" textLength="37" x="5" y="605">Kampf</text><ellipse cx="26.5" cy="624.3516" fill="#FEFECE" filter="url(#f1)" rx="12" ry="12" style="stroke: #A80036; stroke-width: 2.0;"/><polygon fill="#A80036" points="22.5,612.3516,28.5,607.3516,26.5,612.3516,28.5,617.3516,22.5,612.3516" style="stroke: #A80036; stroke-width: 1.0;"/><text fill="#000000" font-size="13" lengthAdjust="spacingAndGlyphs" textLength="50" x="94.5" y="85.3516">Manager</text><path d="M104.5,40.3516 C104.5,30.3516 122.5,30.3516 122.5,30.3516 C122.5,30.3516 140.5,30.3516 140.5,40.3516 L140.5,62.3516 C140.5,72.3516 122.5,72.3516 122.5,72.3516 C122.5,72.3516 104.5,72.3516 104.5,62.3516 L104.5,40.3516 " fill="#FEFECE" filter="url(#f1)" style="stroke: #A80036; stroke-width: 1.5;"/><path d="M104.5,40.3516 C104.5,50.3516 122.5,50.3516 122.5,50.3516 C122.5,50.3516 140.5,50.3516 140.5,40.3516 " fill="none" style="stroke: #A80036; stroke-width: 1.5;"/><text fill="#000000" font-size="13" lengthAdjust="spacingAndGlyphs" textLength="50" x="94.5" y="605">Manager</text><path d="M104.5,618.3516 C104.5,608.3516 122.5,608.3516 122.5,608.3516 C122.5,608.3516 140.5,608.3516 140.5,618.3516 L140.5,640.3516 C140.5,650.3516 122.5,650.3516 122.5,650.3516 C122.5,650.3516 104.5,650.3516 104.5,640.3516 L104.5,618.3516 " fill="#FEFECE" filter="url(#f1)" style="stroke: #A80036; stroke-width: 1.5;"/><path d="M104.5,618.3516 C104.5,628.3516 122.5,628.3516 122.5,628.3516 C122.5,628.3516 140.5,628.3516 140.5,618.3516 " fill="none" style="stroke: #A80036; stroke-width: 1.5;"/><text fill="#000000" font-size="13" lengthAdjust="spacingAndGlyphs" textLength="34" x="215.5" y="85.3516">Entity</text><ellipse cx="235.5" cy="56.3516" fill="#FEFECE" filter="url(#f1)" rx="12" ry="12" style="stroke: #A80036; stroke-width: 2.0;"/><line style="stroke: #A80036; stroke-width: 2.0;" x1="223.5" x2="247.5" y1="70.3516" y2="70.3516"/><text fill="#000000" font-size="13" lengthAdjust="spacingAndGlyphs" textLength="34" x="215.5" y="605">Entity</text><ellipse cx="235.5" cy="624.3516" fill="#FEFECE" filter="url(#f1)" rx="12" ry="12" style="stroke: #A80036; stroke-width: 2.0;"/><line style="stroke: #A80036; stroke-width: 2.0;" x1="223.5" x2="247.5" y1="638.3516" y2="638.3516"/><text fill="#000000" font-size="13" lengthAdjust="spacingAndGlyphs" textLength="45" x="265.5" y="85.3516">System</text><ellipse cx="291" cy="56.3516" fill="#FEFECE" filter="url(#f1)" rx="12" ry="12" style="stroke: #A80036; stroke-width: 2.0;"/><polygon fill="#A80036" points="287,44.3516,293,39.3516,291,44.3516,293,49.3516,287,44.3516" style="stroke: #A80036; stroke-width: 1.0;"/><text fill="#000000" font-size="13" lengthAdjust="spacingAndGlyphs" textLength="45" x="265.5" y="605">System</text><ellipse cx="291" cy="624.3516" fill="#FEFECE" filter="url(#f1)" rx="12" ry="12" style="stroke: #A80036; stroke-width: 2.0;"/><polygon fill="#A80036" points="287,612.3516,293,607.3516,291,612.3516,293,617.3516,287,612.3516" style="stroke: #A80036; stroke-width: 1.0;"/><text fill="#000000" font-size="13" lengthAdjust="spacingAndGlyphs" textLength="64" x="383" y="85.3516">Messenger</text><path d="M400,40.3516 C400,30.3516 418,30.3516 418,30.3516 C418,30.3516 436,30.3516 436,40.3516 L436,62.3516 C436,72.3516 418,72.3516 418,72.3516 C418,72.3516 400,72.3516 400,62.3516 L400,40.3516 " fill="#FEFECE" filter="url(#f1)" style="stroke: #A80036; stroke-width: 1.5;"/><path d="M400,40.3516 C400,50.3516 418,50.3516 418,50.3516 C418,50.3516 436,50.3516 436,40.3516 " fill="none" style="stroke: #A80036; stroke-width: 1.5;"/><text fill="#000000" font-size="13" lengthAdjust="spacingAndGlyphs" textLength="64" x="383" y="605">Messenger</text><path d="M400,618.3516 C400,608.3516 418,608.3516 418,608.3516 C418,608.3516 436,608.3516 436,618.3516 L436,640.3516 C436,650.3516 418,650.3516 418,650.3516 C418,650.3516 400,650.3516 400,640.3516 L400,618.3516 " fill="#FEFECE" filter="url(#f1)" style="stroke: #A80036; stroke-width: 1.5;"/><path d="M400,618.3516 C400,628.3516 418,628.3516 418,628.3516 C418,628.3516 436,628.3516 436,618.3516 " fill="none" style="stroke: #A80036; stroke-width: 1.5;"/><text fill="#000000" font-size="13" lengthAdjust="spacingAndGlyphs" textLength="78" x="463" y="85.3516">JobScheduler</text><ellipse cx="505" cy="56.3516" fill="#FEFECE" filter="url(#f1)" rx="12" ry="12" style="stroke: #A80036; stroke-width: 2.0;"/><polygon fill="#A80036" points="501,44.3516,507,39.3516,505,44.3516,507,49.3516,501,44.3516" style="stroke: #A80036; stroke-width: 1.0;"/><text fill="#000000" font-size="13" lengthAdjust="spacingAndGlyphs" textLength="78" x="463" y="605">JobScheduler</text><ellipse cx="505" cy="624.3516" fill="#FEFECE" filter="url(#f1)" rx="12" ry="12" style="stroke: #A80036; stroke-width: 2.0;"/><polygon fill="#A80036" points="501,612.3516,507,607.3516,505,612.3516,507,617.3516,501,612.3516" style="stroke: #A80036; stroke-width: 1.0;"/><line style="stroke: #A80036; stroke-width: 1.0;" x1="26.5" x2="68.5" y1="121.0547" y2="121.0547"/><line style="stroke: #A80036; stroke-width: 1.0;" x1="68.5" x2="68.5" y1="121.0547" y2="134.0547"/><line style="stroke: #A80036; stroke-width: 1.0;" x1="26.5" x2="68.5" y1="134.0547" y2="134.0547"/><polygon fill="#A80036" points="36.5,130.0547,26.5,134.0547,36.5,138.0547,32.5,134.0547" style="stroke: #A80036; stroke-width: 1.0;"/><text fill="#000000" font-size="13" lengthAdjust="spacingAndGlyphs" textLength="82" x="33.5" y="115.7031">runMainLoop()</text><rect fill="none" height="427.5703" style="stroke: #000000; stroke-width: 2.0;" width="530.5" x="74.5" y="149.0547"/><polygon fill="#EEEEEE" points="74.5,149.0547,147.5,149.0547,147.5,157.0547,137.5,167.0547,74.5,167.0547,74.5,149.0547" style="stroke: #000000; stroke-width: 2.0;"/><text fill="#000000" font-size="13" font-weight="bold" lengthAdjust="spacingAndGlyphs" textLength="28" x="89.5" y="163.0547">loop</text><text fill="#000000" font-size="11" font-weight="bold" lengthAdjust="spacingAndGlyphs" textLength="91" x="162.5" y="162.0547">[list of systems]</text><polygon fill="#A80036" points="133.5,185.4063,123.5,189.4063,133.5,193.4063,129.5,189.4063" style="stroke: #A80036; stroke-width: 1.0;"/><line style="stroke: #A80036; stroke-width: 1.0;" x1="127.5" x2="290" y1="189.4063" y2="189.4063"/><text fill="#000000" font-size="13" lengthAdjust="spacingAndGlyphs" textLength="81" x="139.5" y="184.4063">getEntityList()</text><rect fill="none" height="321.5156" style="stroke: #000000; stroke-width: 2.0;" width="482.5" x="84.5" y="204.7578"/><polygon fill="#EEEEEE" points="84.5,204.7578,157.5,204.7578,157.5,212.7578,147.5,222.7578,84.5,222.7578,84.5,204.7578" style="stroke: #000000; stroke-width: 2.0;"/><text fill="#000000" font-size="13" font-weight="bold" lengthAdjust="spacingAndGlyphs" textLength="28" x="99.5" y="218.7578">loop</text><polygon fill="#A80036" points="223.5,241.1094,233.5,245.1094,223.5,249.1094,227.5,245.1094" style="stroke: #A80036; stroke-width: 1.0;"/><line style="stroke: #A80036; stroke-width: 1.0;" x1="122.5" x2="229.5" y1="245.1094" y2="245.1094"/><text fill="#000000" font-size="13" lengthAdjust="spacingAndGlyphs" textLength="88" x="129.5" y="240.1094">grab all entities</text><polygon fill="#A80036" points="133.5,271.4609,123.5,275.4609,133.5,279.4609,129.5,275.4609" style="stroke: #A80036; stroke-width: 1.0;"/><line style="stroke: #A80036; stroke-width: 1.0; stroke-dasharray: 2.0,2.0;" x1="127.5" x2="234.5" y1="275.4609" y2="275.4609"/><text fill="#000000" font-size="13" lengthAdjust="spacingAndGlyphs" textLength="89" x="139.5" y="270.4609">entity reference</text><polygon fill="#A80036" points="279,301.8125,289,305.8125,279,309.8125,283,305.8125" style="stroke: #A80036; stroke-width: 1.0;"/><line style="stroke: #A80036; stroke-width: 1.0; stroke-dasharray: 2.0,2.0;" x1="122.5" x2="285" y1="305.8125" y2="305.8125"/><text fill="#000000" font-size="13" lengthAdjust="spacingAndGlyphs" textLength="77" x="129.5" y="300.8125">list of entities</text><line style="stroke: #A80036; stroke-width: 1.0;" x1="291" x2="333" y1="336.5156" y2="336.5156"/><line style="stroke: #A80036; stroke-width: 1.0;" x1="333" x2="333" y1="336.5156" y2="349.5156"/><line style="stroke: #A80036; stroke-width: 1.0;" x1="291" x2="333" y1="349.5156" y2="349.5156"/><polygon fill="#A80036" points="301,345.5156,291,349.5156,301,353.5156,297,349.5156" style="stroke: #A80036; stroke-width: 1.0;"/><text fill="#000000" font-size="13" lengthAdjust="spacingAndGlyphs" textLength="104" x="298" y="331.1641">createMessages()</text><rect fill="none" height="48.7031" style="stroke: #000000; stroke-width: 2.0;" width="207.5" x="255.5" y="364.5156"/><polygon fill="#EEEEEE" points="255.5,364.5156,328.5,364.5156,328.5,372.5156,318.5,382.5156,255.5,382.5156,255.5,364.5156" style="stroke: #000000; stroke-width: 2.0;"/><text fill="#000000" font-size="13" font-weight="bold" lengthAdjust="spacingAndGlyphs" textLength="28" x="270.5" y="378.5156">loop</text><text fill="#000000" font-size="11" font-weight="bold" lengthAdjust="spacingAndGlyphs" textLength="84" x="343.5" y="377.5156">[list of entities]</text><polygon fill="#A80036" points="406,400.8672,416,404.8672,406,408.8672,410,404.8672" style="stroke: #A80036; stroke-width: 1.0;"/><line style="stroke: #A80036; stroke-width: 1.0;" x1="291" x2="412" y1="404.8672" y2="404.8672"/><text fill="#000000" font-size="13" lengthAdjust="spacingAndGlyphs" textLength="103" x="298" y="399.8672">appendMessage()</text><line style="stroke: #A80036; stroke-width: 1.0;" x1="291" x2="333" y1="442.5703" y2="442.5703"/><line style="stroke: #A80036; stroke-width: 1.0;" x1="333" x2="333" y1="442.5703" y2="455.5703"/><line style="stroke: #A80036; stroke-width: 1.0;" x1="291" x2="333" y1="455.5703" y2="455.5703"/><polygon fill="#A80036" points="301,451.5703,291,455.5703,301,459.5703,297,455.5703" style="stroke: #A80036; stroke-width: 1.0;"/><text fill="#000000" font-size="13" lengthAdjust="spacingAndGlyphs" textLength="85" x="298" y="437.2188">generateJobs()</text><rect fill="none" height="48.7031" style="stroke: #000000; stroke-width: 2.0;" width="301.5" x="255.5" y="470.5703"/><polygon fill="#EEEEEE" points="255.5,470.5703,328.5,470.5703,328.5,478.5703,318.5,488.5703,255.5,488.5703,255.5,470.5703" style="stroke: #000000; stroke-width: 2.0;"/><text fill="#000000" font-size="13" font-weight="bold" lengthAdjust="spacingAndGlyphs" textLength="28" x="270.5" y="484.5703">loop</text><text fill="#000000" font-size="11" font-weight="bold" lengthAdjust="spacingAndGlyphs" textLength="101" x="343.5" y="483.5703">[list of messages]</text><polygon fill="#A80036" points="493,506.9219,503,510.9219,493,514.9219,497,510.9219" style="stroke: #A80036; stroke-width: 1.0;"/><line style="stroke: #A80036; stroke-width: 1.0;" x1="291" x2="499" y1="510.9219" y2="510.9219"/><text fill="#000000" font-size="13" lengthAdjust="spacingAndGlyphs" textLength="56" x="298" y="505.9219">pushJob()</text><line style="stroke: #A80036; stroke-width: 1.0;" x1="505" x2="547" y1="555.625" y2="555.625"/><line style="stroke: #A80036; stroke-width: 1.0;" x1="547" x2="547" y1="555.625" y2="568.625"/><line style="stroke: #A80036; stroke-width: 1.0;" x1="505" x2="547" y1="568.625" y2="568.625"/><polygon fill="#A80036" points="515,564.625,505,568.625,515,572.625,511,568.625" style="stroke: #A80036; stroke-width: 1.0;"/><text fill="#000000" font-size="13" lengthAdjust="spacingAndGlyphs" textLength="81" x="512" y="550.2734">processJobs()</text></g></svg>