<?xml version="1.0" encoding="UTF-8" standalone="yes"?><svg xmlns="http://www.w3.org/2000/svg" xmlns:xlink="http://www.w3.org/1999/xlink" height="700pt" style="width:1356px;height:700px;" version="1.1" viewBox="0 0 1356 700" width="1356pt"><defs><filter height="300%" id="f1" width="300%" x="-1" y="-1"><feGaussianBlur result="blurOut" stdDeviation="2.0"/><feColorMatrix in="blurOut" result="blurOut2" type="matrix" values="0 0 0 0 0 0 0 0 0 0 0 0 0 0 0 0 0 0 .4 0"/><feOffset dx="4.0" dy="4.0" in="blurOut2" result="blurOut3"/><feBlend in="SourceGraphic" in2="blurOut3" mode="normal"/></filter></defs><g><text fill="#000000" font-size="18" lengthAdjust="spacingAndGlyphs" textLength="105" x="629.5" y="18">Actor Entity</text><rect fill="#FEFECE" filter="url(#f1)" height="36.2969" style="stroke: #A80036; stroke-width: 1.5;" width="58" x="718" y="154.9531"/><rect fill="#FEFECE" height="5" style="stroke: #A80036; stroke-width: 1.5;" width="10" x="713" y="159.9531"/><rect fill="#FEFECE" height="5" style="stroke: #A80036; stroke-width: 1.5;" width="10" x="713" y="181.25"/><text fill="#000000" font-size="14" lengthAdjust="spacingAndGlyphs" textLength="38" x="728" y="178.9531">Entity</text><polygon fill="#FBFB77" filter="url(#f1)" points="585,29.4531,585,84.8516,910,84.8516,910,39.4531,900,29.4531,585,29.4531" style="stroke: #A80036; stroke-width: 1.0;"/><polygon fill="#FBFB77" points="585,29.4531,585,84.8516,743,84.8516,747,154.7901,751,84.8516,910,84.8516,910,39.4531,900,29.4531,585,29.4531" style="stroke: #A80036; stroke-width: 1.0;"/><line style="stroke: #A80036; stroke-width: 1.0;" x1="900" x2="900" y1="29.4531" y2="39.4531"/><line style="stroke: #A80036; stroke-width: 1.0;" x1="910" x2="900" y1="39.4531" y2="39.4531"/><text fill="#000000" font-size="13" lengthAdjust="spacingAndGlyphs" textLength="237" x="591" y="47.4531">Entities are made up of components.</text><text fill="#000000" font-size="13" lengthAdjust="spacingAndGlyphs" textLength="300" x="591" y="62.5859">Components generally are made up of children</text><text fill="#000000" font-size="13" lengthAdjust="spacingAndGlyphs" textLength="116" x="591" y="77.7188">in a tree hierarchy</text><rect fill="#FEFECE" filter="url(#f1)" height="36.2969" style="stroke: #A80036; stroke-width: 1.5;" width="157" x="669" y="260.9531"/><rect fill="#FEFECE" height="5" style="stroke: #A80036; stroke-width: 1.5;" width="10" x="664" y="265.9531"/><rect fill="#FEFECE" height="5" style="stroke: #A80036; stroke-width: 1.5;" width="10" x="664" y="287.25"/><text fill="#000000" font-size="14" lengthAdjust="spacingAndGlyphs" textLength="137" x="679" y="284.9531">PositionComponent</text><ellipse cx="798" cy="366.9531" fill="#FEFECE" filter="url(#f1)" rx="8" ry="8" style="stroke: #A80036; stroke-width: 2.0;"/><text fill="#000000" font-size="14" lengthAdjust="spacingAndGlyphs" textLength="9" x="793.5" y="388.9531">X</text><ellipse cx="696" cy="366.9531" fill="#FEFECE" filter="url(#f1)" rx="8" ry="8" style="stroke: #A80036; stroke-width: 2.0;"/><text fill="#000000" font-size="14" lengthAdjust="spacingAndGlyphs" textLength="9" x="691.5" y="388.9531">Y</text><ellipse cx="747" cy="366.9531" fill="#FEFECE" filter="url(#f1)" rx="8" ry="8" style="stroke: #A80036; stroke-width: 2.0;"/><text fill="#000000" font-size="14" lengthAdjust="spacingAndGlyphs" textLength="10" x="742" y="388.9531">Z</text><rect fill="#FEFECE" filter="url(#f1)" height="36.2969" style="stroke: #A80036; stroke-width: 1.5;" width="142" x="458" y="260.9531"/><rect fill="#FEFECE" height="5" style="stroke: #A80036; stroke-width: 1.5;" width="10" x="453" y="265.9531"/><rect fill="#FEFECE" height="5" style="stroke: #A80036; stroke-width: 1.5;" width="10" x="453" y="287.25"/><text fill="#000000" font-size="14" lengthAdjust="spacingAndGlyphs" textLength="122" x="468" y="284.9531">SpriteComponent</text><rect fill="#FEFECE" filter="url(#f1)" height="36.2969" style="stroke: #A80036; stroke-width: 1.5;" width="107" x="515" y="356.9531"/><rect fill="#FEFECE" height="5" style="stroke: #A80036; stroke-width: 1.5;" width="10" x="510" y="361.9531"/><rect fill="#FEFECE" height="5" style="stroke: #A80036; stroke-width: 1.5;" width="10" x="510" y="383.25"/><text fill="#000000" font-size="14" lengthAdjust="spacingAndGlyphs" textLength="87" x="525" y="380.9531">ChildSprite 1</text><rect fill="#FEFECE" filter="url(#f1)" height="36.2969" style="stroke: #A80036; stroke-width: 1.5;" width="107" x="200" y="356.9531"/><rect fill="#FEFECE" height="5" style="stroke: #A80036; stroke-width: 1.5;" width="10" x="195" y="361.9531"/><rect fill="#FEFECE" height="5" style="stroke: #A80036; stroke-width: 1.5;" width="10" x="195" y="383.25"/><text fill="#000000" font-size="14" lengthAdjust="spacingAndGlyphs" textLength="87" x="210" y="380.9531">ChildSprite 2</text><polygon fill="#FBFB77" filter="url(#f1)" points="309,145.4531,309,200.8516,684,200.8516,684,155.4531,674,145.4531,309,145.4531" style="stroke: #A80036; stroke-width: 1.0;"/><polygon fill="#FBFB77" points="309,145.4531,309,200.8516,500.584,200.8516,523.362,260.8431,508.584,200.8516,684,200.8516,684,155.4531,674,145.4531,309,145.4531" style="stroke: #A80036; stroke-width: 1.0;"/><line style="stroke: #A80036; stroke-width: 1.0;" x1="674" x2="674" y1="145.4531" y2="155.4531"/><line style="stroke: #A80036; stroke-width: 1.0;" x1="684" x2="674" y1="155.4531" y2="155.4531"/><text fill="#000000" font-size="13" lengthAdjust="spacingAndGlyphs" textLength="354" x="315" y="163.4531">SpriteComponent Does not hold information on sprites,</text><text fill="#000000" font-size="13" lengthAdjust="spacingAndGlyphs" textLength="326" x="315" y="178.5859">Only the children hold information on sprite images</text><text fill="#000000" font-size="13" lengthAdjust="spacingAndGlyphs" textLength="104" x="315" y="193.7188">and their offsets</text><ellipse cx="681.5" cy="460.9531" fill="#FEFECE" filter="url(#f1)" rx="8" ry="8" style="stroke: #A80036; stroke-width: 2.0;"/><text fill="#000000" font-size="14" lengthAdjust="spacingAndGlyphs" textLength="91" x="636" y="482.9531">SpriteImage1</text><ellipse cx="794" cy="460.9531" fill="#FEFECE" filter="url(#f1)" rx="8" ry="8" style="stroke: #A80036; stroke-width: 2.0;"/><text fill="#000000" font-size="14" lengthAdjust="spacingAndGlyphs" textLength="66" x="761" y="482.9531">OffsetX_1</text><ellipse cx="467" cy="460.9531" fill="#FEFECE" filter="url(#f1)" rx="8" ry="8" style="stroke: #A80036; stroke-width: 2.0;"/><text fill="#000000" font-size="14" lengthAdjust="spacingAndGlyphs" textLength="66" x="434" y="482.9531">OffsetY_1</text><ellipse cx="568.5" cy="460.9531" fill="#FEFECE" filter="url(#f1)" rx="8" ry="8" style="stroke: #A80036; stroke-width: 2.0;"/><text fill="#000000" font-size="14" lengthAdjust="spacingAndGlyphs" textLength="67" x="535" y="482.9531">OffsetZ_1</text><ellipse cx="253.5" cy="460.9531" fill="#FEFECE" filter="url(#f1)" rx="8" ry="8" style="stroke: #A80036; stroke-width: 2.0;"/><text fill="#000000" font-size="14" lengthAdjust="spacingAndGlyphs" textLength="91" x="208" y="482.9531">SpriteImage2</text><ellipse cx="366" cy="460.9531" fill="#FEFECE" filter="url(#f1)" rx="8" ry="8" style="stroke: #A80036; stroke-width: 2.0;"/><text fill="#000000" font-size="14" lengthAdjust="spacingAndGlyphs" textLength="66" x="333" y="482.9531">OffsetX_2</text><ellipse cx="39" cy="460.9531" fill="#FEFECE" filter="url(#f1)" rx="8" ry="8" style="stroke: #A80036; stroke-width: 2.0;"/><text fill="#000000" font-size="14" lengthAdjust="spacingAndGlyphs" textLength="66" x="6" y="482.9531">OffsetY_2</text><ellipse cx="140.5" cy="460.9531" fill="#FEFECE" filter="url(#f1)" rx="8" ry="8" style="stroke: #A80036; stroke-width: 2.0;"/><text fill="#000000" font-size="14" lengthAdjust="spacingAndGlyphs" textLength="67" x="107" y="482.9531">OffsetZ_2</text><rect fill="#FEFECE" filter="url(#f1)" height="36.2969" style="stroke: #A80036; stroke-width: 1.5;" width="159" x="931" y="260.9531"/><rect fill="#FEFECE" height="5" style="stroke: #A80036; stroke-width: 1.5;" width="10" x="926" y="265.9531"/><rect fill="#FEFECE" height="5" style="stroke: #A80036; stroke-width: 1.5;" width="10" x="926" y="287.25"/><text fill="#000000" font-size="14" lengthAdjust="spacingAndGlyphs" textLength="139" x="941" y="284.9531">CollisionComponent</text><polygon fill="#FBFB77" filter="url(#f1)" points="811,152.9531,811,193.2188,1261,193.2188,1261,162.9531,1251,152.9531,811,152.9531" style="stroke: #A80036; stroke-width: 1.0;"/><polygon fill="#FBFB77" points="811,152.9531,811,193.2188,1026.99,193.2188,1014.48,260.7011,1034.99,193.2188,1261,193.2188,1261,162.9531,1251,152.9531,811,152.9531" style="stroke: #A80036; stroke-width: 1.0;"/><line style="stroke: #A80036; stroke-width: 1.0;" x1="1251" x2="1251" y1="152.9531" y2="162.9531"/><line style="stroke: #A80036; stroke-width: 1.0;" x1="1261" x2="1251" y1="162.9531" y2="162.9531"/><text fill="#000000" font-size="13" lengthAdjust="spacingAndGlyphs" textLength="315" x="817" y="170.9531">The Highest level in the hierarchy is checked first.</text><text fill="#000000" font-size="13" lengthAdjust="spacingAndGlyphs" textLength="429" x="817" y="186.0859">This can resemble a simple circle radius check between two objects</text><ellipse cx="1138" cy="366.9531" fill="#FEFECE" filter="url(#f1)" rx="8" ry="8" style="stroke: #A80036; stroke-width: 2.0;"/><text fill="#000000" font-size="14" lengthAdjust="spacingAndGlyphs" textLength="100" x="1088" y="388.9531">ChildCollision1</text><ellipse cx="977" cy="366.9531" fill="#FEFECE" filter="url(#f1)" rx="8" ry="8" style="stroke: #A80036; stroke-width: 2.0;"/><text fill="#000000" font-size="14" lengthAdjust="spacingAndGlyphs" textLength="100" x="927" y="388.9531">ChildCollision2</text><ellipse cx="1151.5" cy="460.9531" fill="#FEFECE" filter="url(#f1)" rx="8" ry="8" style="stroke: #A80036; stroke-width: 2.0;"/><text fill="#000000" font-size="14" lengthAdjust="spacingAndGlyphs" textLength="153" x="1075" y="482.9531">ChildCollisionRefined1</text><ellipse cx="964.5" cy="460.9531" fill="#FEFECE" filter="url(#f1)" rx="8" ry="8" style="stroke: #A80036; stroke-width: 2.0;"/><text fill="#000000" font-size="14" lengthAdjust="spacingAndGlyphs" textLength="153" x="888" y="482.9531">ChildCollisionRefined2</text><polygon fill="#FBFB77" filter="url(#f1)" points="956,544.9531,956,691.1484,1347,691.1484,1347,554.9531,1337,544.9531,956,544.9531" style="stroke: #A80036; stroke-width: 1.0;"/><polygon fill="#FBFB77" points="956,544.9531,956,691.1484,1347,691.1484,1347,554.9531,1337,544.9531,1155,544.9531,1151,485.1821,1147,544.9531,956,544.9531" style="stroke: #A80036; stroke-width: 1.0;"/><line style="stroke: #A80036; stroke-width: 1.0;" x1="1337" x2="1337" y1="544.9531" y2="554.9531"/><line style="stroke: #A80036; stroke-width: 1.0;" x1="1347" x2="1337" y1="554.9531" y2="554.9531"/><text fill="#000000" font-size="13" lengthAdjust="spacingAndGlyphs" textLength="313" x="962" y="562.9531">It is possible for collisions to traverse down a tree</text><text fill="#000000" font-size="13" lengthAdjust="spacingAndGlyphs" textLength="354" x="962" y="578.0859">such that a simpler collision radius between two objects</text><text fill="#000000" font-size="13" lengthAdjust="spacingAndGlyphs" textLength="322" x="962" y="593.2188">is checked, and upon a successful collision, further</text><text fill="#000000" font-size="13" lengthAdjust="spacingAndGlyphs" textLength="362" x="962" y="608.3516">refinement is made to ensure a more accurate depiction</text><text fill="#000000" font-size="13" lengthAdjust="spacingAndGlyphs" textLength="207" x="962" y="623.4844">on whether there was a collision.</text><text fill="#000000" font-size="13" lengthAdjust="spacingAndGlyphs" textLength="0" x="966" y="638.6172"/><text fill="#000000" font-size="13" lengthAdjust="spacingAndGlyphs" textLength="370" x="962" y="653.75">ChildrenComponents might relate to certain sprite pieces.</text><text fill="#000000" font-size="13" lengthAdjust="spacingAndGlyphs" textLength="369" x="962" y="668.8828">For example, a leg sprite might have its own child collision</text><text fill="#000000" font-size="13" lengthAdjust="spacingAndGlyphs" textLength="77" x="962" y="684.0156">component.</text><path d="M747,191.4171 C747,210.8721 747,241.3251 747,260.7011 " fill="none" style="stroke: #A80036; stroke-width: 1.0;"/><path d="M756.593,297.0101 C765.402,313.5921 778.428,338.1121 787.51,355.2071 " fill="none" style="stroke: #A80036; stroke-width: 1.0; stroke-dasharray: 7.0,7.0;"/><polygon fill="#A80036" points="789.96,359.8191,789.2703,349.9944,787.6143,355.4035,782.2053,353.7475,789.96,359.8191" style="stroke: #A80036; stroke-width: 1.0;"/><path d="M737.407,297.0101 C728.598,313.5921 715.572,338.1121 706.49,355.2071 " fill="none" style="stroke: #A80036; stroke-width: 1.0; stroke-dasharray: 7.0,7.0;"/><polygon fill="#A80036" points="704.04,359.8191,711.7947,353.7475,706.3857,355.4035,704.7297,349.9944,704.04,359.8191" style="stroke: #A80036; stroke-width: 1.0;"/><path d="M747,297.0101 C747,313.1551 747,336.8251 747,353.8401 " fill="none" style="stroke: #A80036; stroke-width: 1.0; stroke-dasharray: 7.0,7.0;"/><polygon fill="#A80036" points="747,358.8921,751,349.8921,747,353.8921,743,349.8921,747,358.8921" style="stroke: #A80036; stroke-width: 1.0;"/><path d="M717.947,190.9311 C712.072,194.3761 705.889,197.8671 700,200.9531 C657.368,223.2901 607.095,245.7811 572.139,260.8331 " fill="none" style="stroke: #A80036; stroke-width: 1.0;"/><path d="M536.336,297.0101 C543.264,314.0651 553.604,339.5161 560.565,356.6511 " fill="none" style="stroke: #A80036; stroke-width: 1.0;"/><path d="M477.087,297.0101 C427.898,314.1191 354.415,339.6781 305.149,356.8141 " fill="none" style="stroke: #A80036; stroke-width: 1.0;"/><path d="M589.788,393.0771 C609.268,409.2821 637.738,432.9651 657.674,449.5491 " fill="none" style="stroke: #A80036; stroke-width: 1.0; stroke-dasharray: 7.0,7.0;"/><polygon fill="#A80036" points="661.542,452.7671,657.182,443.9359,657.6984,449.5692,652.0652,450.0856,661.542,452.7671" style="stroke: #A80036; stroke-width: 1.0;"/><path d="M611.308,392.9661 C653.183,410.3831 716.008,436.5141 755.993,453.1451 " fill="none" style="stroke: #A80036; stroke-width: 1.0; stroke-dasharray: 7.0,7.0;"/><polygon fill="#A80036" points="760.753,455.1251,753.9795,447.9753,756.1365,453.2048,750.907,455.3617,760.753,455.1251" style="stroke: #A80036; stroke-width: 1.0;"/><path d="M548.526,393.0771 C531.259,409.1471 506.092,432.5711 488.296,449.1331 " fill="none" style="stroke: #A80036; stroke-width: 1.0; stroke-dasharray: 7.0,7.0;"/><polygon fill="#A80036" points="484.391,452.7671,493.7039,449.5625,488.0507,449.3603,488.253,443.707,484.391,452.7671" style="stroke: #A80036; stroke-width: 1.0;"/><path d="M568,393.0771 C568,408.6071 568,431.0041 568,447.4401 " fill="none" style="stroke: #A80036; stroke-width: 1.0; stroke-dasharray: 7.0,7.0;"/><polygon fill="#A80036" points="568,452.7671,572,443.7671,568,447.7671,564,443.7671,568,452.7671" style="stroke: #A80036; stroke-width: 1.0;"/><path d="M253,393.0771 C253,408.6071 253,431.0041 253,447.4401 " fill="none" style="stroke: #A80036; stroke-width: 1.0; stroke-dasharray: 7.0,7.0;"/><polygon fill="#A80036" points="253,452.7671,257,443.7671,253,447.7671,249,443.7671,253,452.7671" style="stroke: #A80036; stroke-width: 1.0;"/><path d="M274.788,393.0771 C294.268,409.2821 322.738,432.9651 342.674,449.5491 " fill="none" style="stroke: #A80036; stroke-width: 1.0; stroke-dasharray: 7.0,7.0;"/><polygon fill="#A80036" points="346.542,452.7671,342.182,443.9359,342.6984,449.5692,337.0652,450.0856,346.542,452.7671" style="stroke: #A80036; stroke-width: 1.0;"/><path d="M211.992,392.9661 C173.082,410.0571 115.07,435.5391 77.1364,452.2011 " fill="none" style="stroke: #A80036; stroke-width: 1.0; stroke-dasharray: 7.0,7.0;"/><polygon fill="#A80036" points="72.1519,454.3911,82.0007,454.4333,76.7296,452.38,78.7829,447.109,72.1519,454.3911" style="stroke: #A80036; stroke-width: 1.0;"/><path d="M231.212,393.0771 C211.732,409.2821 183.262,432.9651 163.326,449.5491 " fill="none" style="stroke: #A80036; stroke-width: 1.0; stroke-dasharray: 7.0,7.0;"/><polygon fill="#A80036" points="159.458,452.7671,168.9348,450.0856,163.3016,449.5692,163.818,443.9359,159.458,452.7671" style="stroke: #A80036; stroke-width: 1.0;"/><path d="M774.718,191.0551 C780.631,194.5651 786.927,198.0501 793,200.9531 C844.288,225.4711 905.445,246.7881 949.742,260.9121 " fill="none" style="stroke: #A80036; stroke-width: 1.0;"/><path d="M1034.08,297.0101 C1057.83,314.8251 1093.8,341.8021 1116.58,358.8921 " fill="none" style="stroke: #A80036; stroke-width: 1.0;"/><path d="M1003.793,297.0101 C997.669,314.8251 988.396,341.8021 982.521,358.8921 " fill="none" style="stroke: #A80036; stroke-width: 1.0;"/><path d="M1140.26,391.3271 C1142.65,408.5801 1146.39,435.5851 1148.76,452.7671 " fill="none" style="stroke: #A80036; stroke-width: 1.0;"/><path d="M974.736,391.3271 C972.35,408.5801 968.615,435.5851 966.238,452.7671 " fill="none" style="stroke: #A80036; stroke-width: 1.0;"/></g></svg>