<?xml version="1.0" encoding="UTF-8" standalone="yes"?><svg xmlns="http://www.w3.org/2000/svg" xmlns:xlink="http://www.w3.org/1999/xlink" height="1888pt" style="width:2533px;height:1888px;" version="1.1" viewBox="0 0 2533 1888" width="2533pt"><defs><filter height="300%" id="f1" width="300%" x="-1" y="-1"><feGaussianBlur result="blurOut" stdDeviation="2.0"/><feColorMatrix in="blurOut" result="blurOut2" type="matrix" values="0 0 0 0 0 0 0 0 0 0 0 0 0 0 0 0 0 0 .4 0"/><feOffset dx="4.0" dy="4.0" in="blurOut2" result="blurOut3"/><feBlend in="SourceGraphic" in2="blurOut3" mode="normal"/></filter></defs><g><polygon fill="#C3B1A3" filter="url(#f1)" points="1883,542,1942,542,1949,565.6094,2357,565.6094,2357,961,1883,961,1883,542" style="stroke: #000000; stroke-width: 2.0;"/><line style="stroke: #000000; stroke-width: 2.0;" x1="1883" x2="1949" y1="565.6094" y2="565.6094"/><text fill="#000000" font-size="14" font-weight="bold" lengthAdjust="spacingAndGlyphs" textLength="53" x="1886" y="559">Entities</text><polygon fill="#FE6F4D" filter="url(#f1)" points="1311,300,1387,300,1394,323.6094,1859,323.6094,1859,816,1311,816,1311,300" style="stroke: #000000; stroke-width: 2.0;"/><line style="stroke: #000000; stroke-width: 2.0;" x1="1311" x2="1394" y1="323.6094" y2="323.6094"/><text fill="#000000" font-size="14" font-weight="bold" lengthAdjust="spacingAndGlyphs" textLength="70" x="1314" y="317">Managers</text><polygon fill="#FFFFFF" filter="url(#f1)" points="1696,1518,1816,1518,1823,1541.6094,2526,1541.6094,2526,1881,1696,1881,1696,1518" style="stroke: #000000; stroke-width: 2.0;"/><line style="stroke: #000000; stroke-width: 2.0;" x1="1696" x2="1823" y1="1541.6094" y2="1541.6094"/><text fill="#000000" font-size="14" font-weight="bold" lengthAdjust="spacingAndGlyphs" textLength="114" x="1699" y="1535">CustomAttribute</text><polygon fill="#95ABD4" filter="url(#f1)" points="1004,1013,1099,1013,1106,1036.6094,2349,1036.6094,2349,1484,1004,1484,1004,1013" style="stroke: #000000; stroke-width: 2.0;"/><line style="stroke: #000000; stroke-width: 2.0;" x1="1004" x2="1106" y1="1036.6094" y2="1036.6094"/><text fill="#000000" font-size="14" font-weight="bold" lengthAdjust="spacingAndGlyphs" textLength="89" x="1007" y="1030">Components</text><polygon fill="#6B7EA8" filter="url(#f1)" points="645,335,709,335,716,358.6094,1109,358.6094,1109,837,645,837,645,335" style="stroke: #000000; stroke-width: 2.0;"/><line style="stroke: #000000; stroke-width: 2.0;" x1="645" x2="716" y1="358.6094" y2="358.6094"/><text fill="#000000" font-size="14" font-weight="bold" lengthAdjust="spacingAndGlyphs" textLength="58" x="648" y="352">Systems</text><rect fill="#FEFECE" filter="url(#f1)" height="365.4727" style="stroke: #A80036; stroke-width: 1.5;" width="441" x="1899.75" y="579.5"/><ellipse cx="2078.5" cy="595.5" fill="#A9DCDF" rx="11" ry="11" style="stroke: #A80036; stroke-width: 1.0;"/><path d="M2080.6875,597.2656 L2076.5469,597.2656 L2076.125,598.2969 L2076.5469,598.2969 Q2077.1563,598.2969 2077.4219,598.5313 Q2077.6875,598.7656 2077.6875,599.1563 Q2077.6875,599.5313 2077.4219,599.7656 Q2077.1563,600 2076.5469,600 L2074.25,600 Q2073.6406,600 2073.3828,599.7656 Q2073.125,599.5313 2073.125,599.1406 Q2073.125,598.7656 2073.3984,598.5234 Q2073.6719,598.2813 2074.2969,598.2969 L2076.9688,591.6406 L2075.8594,591.6406 Q2075.25,591.6406 2074.9844,591.4063 Q2074.7188,591.1719 2074.7188,590.7813 Q2074.7188,590.4063 2074.9844,590.1719 Q2075.25,589.9375 2075.8594,589.9375 L2079.5313,589.9375 L2082.9219,598.2969 Q2083.5156,598.2969 2083.7031,598.4375 Q2084.0938,598.7031 2084.0938,599.1563 Q2084.0938,599.5313 2083.8359,599.7656 Q2083.5781,600 2082.9688,600 L2080.6719,600 Q2080.0625,600 2079.7969,599.7656 Q2079.5313,599.5313 2079.5313,599.1406 Q2079.5313,598.7656 2079.7969,598.5313 Q2080.0625,598.2969 2080.6719,598.2969 L2081.0938,598.2969 L2080.6875,597.2656 Z M2079.9688,595.5625 L2078.6094,592.1875 L2077.2344,595.5625 L2079.9688,595.5625 Z "/><text fill="#000000" font-size="12" font-style="italic" lengthAdjust="spacingAndGlyphs" textLength="75" x="2099" y="599.9531">AbstractEntity</text><line style="stroke: #A80036; stroke-width: 1.5;" x1="1900.75" x2="2339.75" y1="611.5" y2="611.5"/><rect fill="none" height="6" style="stroke: #C82930; stroke-width: 1.0;" width="6" x="1907.75" y="620.918"/><text fill="#000000" font-size="11" lengthAdjust="spacingAndGlyphs" textLength="156" x="1919.75" y="626.5">static incrementType EntityID = 0</text><rect fill="none" height="6" style="stroke: #C82930; stroke-width: 1.0;" width="6" x="1907.75" y="634.7539"/><text fill="#000000" font-size="11" lengthAdjust="spacingAndGlyphs" textLength="31" x="1919.75" y="640.3359">long id</text><rect fill="none" height="6" style="stroke: #C82930; stroke-width: 1.0;" width="6" x="1907.75" y="648.5898"/><text fill="#000000" font-size="11" lengthAdjust="spacingAndGlyphs" textLength="222" x="1919.75" y="654.1719">std::vector&lt;AbstractComponent&gt; components</text><rect fill="none" height="6" style="stroke: #C82930; stroke-width: 1.0;" width="6" x="1907.75" y="662.4258"/><text fill="#000000" font-size="11" lengthAdjust="spacingAndGlyphs" textLength="76" x="1919.75" y="668.0078">string name = ""</text><rect fill="none" height="6" style="stroke: #C82930; stroke-width: 1.0;" width="6" x="1907.75" y="676.2617"/><text fill="#000000" font-size="11" lengthAdjust="spacingAndGlyphs" textLength="111" x="1919.75" y="681.8438">string type = "abstract"</text><line style="stroke: #A80036; stroke-width: 1.0;" x1="1900.75" x2="2339.75" y1="688.6797" y2="688.6797"/><line style="stroke: #A80036; stroke-width: 1.0;" x1="1900.75" x2="2339.75" y1="690.6797" y2="690.6797"/><ellipse cx="1910.75" cy="718.9336" fill="#84BE84" rx="3" ry="3" style="stroke: #038048; stroke-width: 1.0;"/><text fill="#000000" font-size="11" lengthAdjust="spacingAndGlyphs" textLength="190" x="1919.75" y="721.5156">AbstractEntity(std::string name, long id)</text><line style="stroke: #A80036; stroke-width: 1.0; stroke-dasharray: 1.0,2.0;" x1="1899.75" x2="2090.25" y1="703.5977" y2="703.5977"/><text fill="#000000" font-size="11" lengthAdjust="spacingAndGlyphs" textLength="56" x="2092.25" y="707.1797">constructor</text><line style="stroke: #A80036; stroke-width: 1.0; stroke-dasharray: 1.0,2.0;" x1="2149.25" x2="2339.75" y1="703.5977" y2="703.5977"/><line style="stroke: #A80036; stroke-width: 1.0;" x1="1899.75" x2="2082.75" y1="735.2695" y2="735.2695"/><text fill="#000000" font-size="11" lengthAdjust="spacingAndGlyphs" textLength="71" x="2084.75" y="738.8516">getters/setters</text><line style="stroke: #A80036; stroke-width: 1.0;" x1="2156.75" x2="2339.75" y1="735.2695" y2="735.2695"/><ellipse cx="1910.75" cy="771.3594" fill="#84BE84" rx="3" ry="3" style="stroke: #038048; stroke-width: 1.0;"/><text fill="#000000" font-size="11" lengthAdjust="spacingAndGlyphs" textLength="55" x="1919.75" y="773.9414">long getID()</text><ellipse cx="1910.75" cy="785.1953" fill="#84BE84" rx="3" ry="3" style="stroke: #038048; stroke-width: 1.0;"/><text fill="#000000" font-size="11" lengthAdjust="spacingAndGlyphs" textLength="86" x="1919.75" y="787.7773">void setID(long id)</text><line style="stroke: #A80036; stroke-width: 1.0; stroke-dasharray: 1.0,2.0;" x1="1899.75" x2="2114.25" y1="756.0234" y2="756.0234"/><text fill="#000000" font-size="11" lengthAdjust="spacingAndGlyphs" textLength="8" x="2116.25" y="759.6055">id</text><line style="stroke: #A80036; stroke-width: 1.0; stroke-dasharray: 1.0,2.0;" x1="2125.25" x2="2339.75" y1="756.0234" y2="756.0234"/><ellipse cx="1910.75" cy="816.8672" fill="#84BE84" rx="3" ry="3" style="stroke: #038048; stroke-width: 1.0;"/><text fill="#000000" font-size="11" lengthAdjust="spacingAndGlyphs" textLength="415" x="1919.75" y="819.4492">std::list&lt;AbstractComponent&gt; getComponentsByFamily(enum ComponentFamily family)</text><ellipse cx="1910.75" cy="830.7031" fill="#84BE84" rx="3" ry="3" style="stroke: #038048; stroke-width: 1.0;"/><text fill="#000000" font-size="11" lengthAdjust="spacingAndGlyphs" textLength="339" x="1919.75" y="833.2852">std::list&lt;AbstarctComponent&gt; getComponentByName(std::string name)</text><ellipse cx="1910.75" cy="844.5391" fill="#84BE84" rx="3" ry="3" style="stroke: #038048; stroke-width: 1.0;"/><text fill="#000000" font-size="11" lengthAdjust="spacingAndGlyphs" textLength="271" x="1919.75" y="847.1211">void addComponent(AbstractComponent theComponent)</text><ellipse cx="1910.75" cy="858.375" fill="#84BE84" rx="3" ry="3" style="stroke: #038048; stroke-width: 1.0;"/><text fill="#000000" font-size="11" lengthAdjust="spacingAndGlyphs" textLength="264" x="1919.75" y="860.957">AbstractComponent::iterator traverseComponentTree()</text><line style="stroke: #A80036; stroke-width: 1.0; stroke-dasharray: 1.0,2.0;" x1="1899.75" x2="2088.75" y1="801.5313" y2="801.5313"/><text fill="#000000" font-size="11" lengthAdjust="spacingAndGlyphs" textLength="59" x="2090.75" y="805.1133">components</text><line style="stroke: #A80036; stroke-width: 1.0; stroke-dasharray: 1.0,2.0;" x1="2150.75" x2="2339.75" y1="801.5313" y2="801.5313"/><ellipse cx="1910.75" cy="890.0469" fill="#84BE84" rx="3" ry="3" style="stroke: #038048; stroke-width: 1.0;"/><text fill="#000000" font-size="11" lengthAdjust="spacingAndGlyphs" textLength="101" x="1919.75" y="892.6289">std::string getName()</text><ellipse cx="1910.75" cy="903.8828" fill="#84BE84" rx="3" ry="3" style="stroke: #038048; stroke-width: 1.0;"/><text fill="#000000" font-size="11" lengthAdjust="spacingAndGlyphs" textLength="127" x="1919.75" y="906.4648">setName(std::string name)</text><line style="stroke: #A80036; stroke-width: 1.0; stroke-dasharray: 1.0,2.0;" x1="1899.75" x2="2105.25" y1="874.7109" y2="874.7109"/><text fill="#000000" font-size="11" lengthAdjust="spacingAndGlyphs" textLength="26" x="2107.25" y="878.293">name</text><line style="stroke: #A80036; stroke-width: 1.0; stroke-dasharray: 1.0,2.0;" x1="2134.25" x2="2339.75" y1="874.7109" y2="874.7109"/><ellipse cx="1910.75" cy="935.5547" fill="#84BE84" rx="3" ry="3" style="stroke: #038048; stroke-width: 1.0;"/><text fill="#000000" font-size="11" lengthAdjust="spacingAndGlyphs" textLength="77" x="1919.75" y="938.1367">string getType()</text><line style="stroke: #A80036; stroke-width: 1.0; stroke-dasharray: 1.0,2.0;" x1="1899.75" x2="2107.75" y1="920.2188" y2="920.2188"/><text fill="#000000" font-size="11" lengthAdjust="spacingAndGlyphs" textLength="21" x="2109.75" y="923.8008">type</text><line style="stroke: #A80036; stroke-width: 1.0; stroke-dasharray: 1.0,2.0;" x1="2131.75" x2="2339.75" y1="920.2188" y2="920.2188"/><rect fill="#FEFECE" filter="url(#f1)" height="61.8359" style="stroke: #A80036; stroke-width: 1.5;" width="216" x="1327" y="365"/><ellipse cx="1384.25" cy="381" fill="#A9DCDF" rx="11" ry="11" style="stroke: #A80036; stroke-width: 1.0;"/><path d="M1386.4375,382.7656 L1382.2969,382.7656 L1381.875,383.7969 L1382.2969,383.7969 Q1382.9063,383.7969 1383.1719,384.0313 Q1383.4375,384.2656 1383.4375,384.6563 Q1383.4375,385.0313 1383.1719,385.2656 Q1382.9063,385.5 1382.2969,385.5 L1380,385.5 Q1379.3906,385.5 1379.1328,385.2656 Q1378.875,385.0313 1378.875,384.6406 Q1378.875,384.2656 1379.1484,384.0234 Q1379.4219,383.7813 1380.0469,383.7969 L1382.7188,377.1406 L1381.6094,377.1406 Q1381,377.1406 1380.7344,376.9063 Q1380.4688,376.6719 1380.4688,376.2813 Q1380.4688,375.9063 1380.7344,375.6719 Q1381,375.4375 1381.6094,375.4375 L1385.2813,375.4375 L1388.6719,383.7969 Q1389.2656,383.7969 1389.4531,383.9375 Q1389.8438,384.2031 1389.8438,384.6563 Q1389.8438,385.0313 1389.5859,385.2656 Q1389.3281,385.5 1388.7188,385.5 L1386.4219,385.5 Q1385.8125,385.5 1385.5469,385.2656 Q1385.2813,385.0313 1385.2813,384.6406 Q1385.2813,384.2656 1385.5469,384.0313 Q1385.8125,383.7969 1386.4219,383.7969 L1386.8438,383.7969 L1386.4375,382.7656 Z M1385.7188,381.0625 L1384.3594,377.6875 L1382.9844,381.0625 L1385.7188,381.0625 Z "/><text fill="#000000" font-size="12" font-style="italic" lengthAdjust="spacingAndGlyphs" textLength="93" x="1404.75" y="385.4531">AbstractManager</text><line style="stroke: #A80036; stroke-width: 1.5;" x1="1328" x2="1542" y1="397" y2="397"/><rect fill="none" height="6" style="stroke: #C82930; stroke-width: 1.0;" width="6" x="1335" y="406.418"/><text fill="#000000" font-size="11" lengthAdjust="spacingAndGlyphs" textLength="190" x="1347" y="412">enum ManagerType enumManagerType</text><line style="stroke: #A80036; stroke-width: 1.5;" x1="1328" x2="1542" y1="418.8359" y2="418.8359"/><rect fill="#FEFECE" filter="url(#f1)" height="75.6719" style="stroke: #A80036; stroke-width: 1.5;" width="106" x="1382" y="724"/><ellipse cx="1397" cy="740" fill="#EB937F" rx="11" ry="11" style="stroke: #A80036; stroke-width: 1.0;"/><path d="M1395.8594,740.7969 L1395.8594,743.2969 L1400.1875,743.2969 L1400.1875,742.375 Q1400.1875,741.7656 1400.4297,741.5 Q1400.6719,741.2344 1401.0469,741.2344 Q1401.4219,741.2344 1401.6563,741.5 Q1401.8906,741.7656 1401.8906,742.375 L1401.8906,745 L1393.8906,745 Q1393.2656,745 1393.0078,744.7656 Q1392.75,744.5313 1392.75,744.1406 Q1392.75,743.7656 1393.0156,743.5313 Q1393.2813,743.2969 1393.8906,743.2969 L1394.1563,743.2969 L1394.1563,736.6406 L1393.8906,736.6406 Q1393.2656,736.6406 1393.0078,736.4063 Q1392.75,736.1719 1392.75,735.7813 Q1392.75,735.4063 1393.0078,735.1719 Q1393.2656,734.9375 1393.8906,734.9375 L1401.5156,734.9375 L1401.5156,737.5313 Q1401.5156,738.1406 1401.2891,738.3984 Q1401.0625,738.6563 1400.6719,738.6563 Q1400.2969,738.6563 1400.0625,738.3984 Q1399.8281,738.1406 1399.8281,737.5313 L1399.8281,736.6406 L1395.8594,736.6406 L1395.8594,739.0938 L1397.3438,739.0938 Q1397.3438,738.4375 1397.4688,738.25 Q1397.7344,737.8438 1398.2031,737.8438 Q1398.5781,737.8438 1398.8125,738.1016 Q1399.0469,738.3594 1399.0469,738.9688 L1399.0469,740.9375 Q1399.0469,741.4844 1398.9219,741.6719 Q1398.6563,742.0625 1398.2031,742.0625 Q1397.7344,742.0625 1397.4688,741.6563 Q1397.3438,741.4688 1397.3438,740.7969 L1395.8594,740.7969 Z "/><text fill="#000000" font-size="12" lengthAdjust="spacingAndGlyphs" textLength="74" x="1411" y="744.4531">ManagerType</text><line style="stroke: #A80036; stroke-width: 1.5;" x1="1383" x2="1487" y1="756" y2="756"/><text fill="#000000" font-size="11" lengthAdjust="spacingAndGlyphs" textLength="35" x="1388" y="771">ENTITY</text><text fill="#000000" font-size="11" lengthAdjust="spacingAndGlyphs" textLength="25" x="1388" y="784.8359">VOID</text><line style="stroke: #A80036; stroke-width: 1.5;" x1="1383" x2="1487" y1="791.6719" y2="791.6719"/><rect fill="#FEFECE" filter="url(#f1)" height="117.1797" style="stroke: #A80036; stroke-width: 1.5;" width="230" x="1613" y="337.5"/><ellipse cx="1685.25" cy="353.5" fill="#ADD1B2" rx="11" ry="11" style="stroke: #A80036; stroke-width: 1.0;"/><path d="M1688.0156,349.375 Q1688.1719,349.1563 1688.3594,349.0469 Q1688.5469,348.9375 1688.7656,348.9375 Q1689.1406,348.9375 1689.375,349.1953 Q1689.6094,349.4531 1689.6094,350.0625 L1689.6094,351.5156 Q1689.6094,352.125 1689.375,352.3906 Q1689.1406,352.6563 1688.7656,352.6563 Q1688.4219,352.6563 1688.2188,352.4531 Q1688.0156,352.2656 1687.9063,351.75 Q1687.8594,351.3906 1687.6719,351.2031 Q1687.3438,350.8281 1686.7344,350.6094 Q1686.125,350.3906 1685.5,350.3906 Q1684.7344,350.3906 1684.1016,350.7188 Q1683.4688,351.0469 1682.9766,351.7969 Q1682.4844,352.5469 1682.4844,353.5781 L1682.4844,354.6719 Q1682.4844,355.9063 1683.375,356.7266 Q1684.2656,357.5469 1685.8594,357.5469 Q1686.7969,357.5469 1687.4531,357.2969 Q1687.8438,357.1406 1688.2656,356.7031 Q1688.5313,356.4375 1688.6797,356.3594 Q1688.8281,356.2813 1689.0313,356.2813 Q1689.3594,356.2813 1689.6172,356.5391 Q1689.875,356.7969 1689.875,357.1406 Q1689.875,357.4844 1689.5313,357.8906 Q1689.0313,358.4688 1688.2344,358.7969 Q1687.1563,359.25 1685.8594,359.25 Q1684.3438,359.25 1683.1406,358.625 Q1682.1563,358.125 1681.4688,357.0547 Q1680.7813,355.9844 1680.7813,354.7031 L1680.7813,353.5469 Q1680.7813,352.2188 1681.3984,351.0703 Q1682.0156,349.9219 1683.1094,349.3047 Q1684.2031,348.6875 1685.4375,348.6875 Q1686.1719,348.6875 1686.8203,348.8516 Q1687.4688,349.0156 1688.0156,349.375 Z "/><text fill="#000000" font-size="12" lengthAdjust="spacingAndGlyphs" textLength="77" x="1705.75" y="357.9531">EntityManager</text><line style="stroke: #A80036; stroke-width: 1.5;" x1="1614" x2="1842" y1="369.5" y2="369.5"/><rect fill="none" height="6" style="stroke: #C82930; stroke-width: 1.0;" width="6" x="1621" y="378.918"/><text fill="#000000" font-size="11" lengthAdjust="spacingAndGlyphs" textLength="178" x="1633" y="384.5">std::vector&lt;AbstractEntity&gt; entityList</text><line style="stroke: #A80036; stroke-width: 1.0;" x1="1614" x2="1842" y1="391.3359" y2="391.3359"/><line style="stroke: #A80036; stroke-width: 1.0;" x1="1614" x2="1842" y1="393.3359" y2="393.3359"/><ellipse cx="1624" cy="403.7539" fill="#84BE84" rx="3" ry="3" style="stroke: #038048; stroke-width: 1.0;"/><text fill="#000000" font-size="11" lengthAdjust="spacingAndGlyphs" textLength="172" x="1633" y="406.3359">void addEntity(AbstractEntity entity)</text><ellipse cx="1624" cy="417.5898" fill="#84BE84" rx="3" ry="3" style="stroke: #038048; stroke-width: 1.0;"/><text fill="#000000" font-size="11" lengthAdjust="spacingAndGlyphs" textLength="204" x="1633" y="420.1719">std::vector&lt;AbstractEntity&gt; getAllEntities()</text><ellipse cx="1624" cy="431.4258" fill="#84BE84" rx="3" ry="3" style="stroke: #038048; stroke-width: 1.0;"/><text fill="#000000" font-size="11" lengthAdjust="spacingAndGlyphs" textLength="142" x="1633" y="434.0078">AbstractEntity getEntityByID()</text><ellipse cx="1624" cy="445.2617" fill="none" rx="3" ry="3" style="stroke: #038048; stroke-width: 1.0;"/><text fill="#000000" font-size="11" lengthAdjust="spacingAndGlyphs" textLength="0" x="1636" y="447.8438"/><rect fill="#FEFECE" filter="url(#f1)" height="131.0156" style="stroke: #A80036; stroke-width: 1.5;" width="270" x="2240" y="1555.5"/><ellipse cx="2311.25" cy="1571.5" fill="#ADD1B2" rx="11" ry="11" style="stroke: #A80036; stroke-width: 1.0;"/><path d="M2314.0156,1567.375 Q2314.1719,1567.1563 2314.3594,1567.0469 Q2314.5469,1566.9375 2314.7656,1566.9375 Q2315.1406,1566.9375 2315.375,1567.1953 Q2315.6094,1567.4531 2315.6094,1568.0625 L2315.6094,1569.5156 Q2315.6094,1570.125 2315.375,1570.3906 Q2315.1406,1570.6563 2314.7656,1570.6563 Q2314.4219,1570.6563 2314.2188,1570.4531 Q2314.0156,1570.2656 2313.9063,1569.75 Q2313.8594,1569.3906 2313.6719,1569.2031 Q2313.3438,1568.8281 2312.7344,1568.6094 Q2312.125,1568.3906 2311.5,1568.3906 Q2310.7344,1568.3906 2310.1016,1568.7188 Q2309.4688,1569.0469 2308.9766,1569.7969 Q2308.4844,1570.5469 2308.4844,1571.5781 L2308.4844,1572.6719 Q2308.4844,1573.9063 2309.375,1574.7266 Q2310.2656,1575.5469 2311.8594,1575.5469 Q2312.7969,1575.5469 2313.4531,1575.2969 Q2313.8438,1575.1406 2314.2656,1574.7031 Q2314.5313,1574.4375 2314.6797,1574.3594 Q2314.8281,1574.2813 2315.0313,1574.2813 Q2315.3594,1574.2813 2315.6172,1574.5391 Q2315.875,1574.7969 2315.875,1575.1406 Q2315.875,1575.4844 2315.5313,1575.8906 Q2315.0313,1576.4688 2314.2344,1576.7969 Q2313.1563,1577.25 2311.8594,1577.25 Q2310.3438,1577.25 2309.1406,1576.625 Q2308.1563,1576.125 2307.4688,1575.0547 Q2306.7813,1573.9844 2306.7813,1572.7031 L2306.7813,1571.5469 Q2306.7813,1570.2188 2307.3984,1569.0703 Q2308.0156,1567.9219 2309.1094,1567.3047 Q2310.2031,1566.6875 2311.4375,1566.6875 Q2312.1719,1566.6875 2312.8203,1566.8516 Q2313.4688,1567.0156 2314.0156,1567.375 Z "/><text fill="#000000" font-size="12" lengthAdjust="spacingAndGlyphs" textLength="119" x="2331.75" y="1575.9531">CustomAttributeValue</text><line style="stroke: #A80036; stroke-width: 1.5;" x1="2241" x2="2509" y1="1587.5" y2="1587.5"/><rect fill="none" height="6" style="stroke: #C82930; stroke-width: 1.0;" width="6" x="2248" y="1596.918"/><text fill="#000000" font-size="11" lengthAdjust="spacingAndGlyphs" textLength="244" x="2260" y="1602.5">enum AttributeValueType enumAttributeValueType</text><rect fill="none" height="6" style="stroke: #C82930; stroke-width: 1.0;" width="6" x="2248" y="1610.7539"/><text fill="#000000" font-size="11" lengthAdjust="spacingAndGlyphs" textLength="133" x="2260" y="1616.3359">CustomAttributeUnion value</text><line style="stroke: #A80036; stroke-width: 1.0;" x1="2241" x2="2509" y1="1623.1719" y2="1623.1719"/><line style="stroke: #A80036; stroke-width: 1.0;" x1="2241" x2="2509" y1="1625.1719" y2="1625.1719"/><ellipse cx="2251" cy="1635.5898" fill="#84BE84" rx="3" ry="3" style="stroke: #038048; stroke-width: 1.0;"/><text fill="#000000" font-size="11" lengthAdjust="spacingAndGlyphs" textLength="115" x="2260" y="1638.1719">auto getValue(intType i)</text><ellipse cx="2251" cy="1649.4258" fill="#84BE84" rx="3" ry="3" style="stroke: #038048; stroke-width: 1.0;"/><text fill="#000000" font-size="11" lengthAdjust="spacingAndGlyphs" textLength="114" x="2260" y="1652.0078">void setValue(intType i)</text><ellipse cx="2251" cy="1663.2617" fill="#84BE84" rx="3" ry="3" style="stroke: #038048; stroke-width: 1.0;"/><text fill="#000000" font-size="11" lengthAdjust="spacingAndGlyphs" textLength="126" x="2260" y="1665.8438">void setValue(floatType f)</text><ellipse cx="2251" cy="1677.0977" fill="#84BE84" rx="3" ry="3" style="stroke: #038048; stroke-width: 1.0;"/><text fill="#000000" font-size="11" lengthAdjust="spacingAndGlyphs" textLength="129" x="2260" y="1679.6797">void setValue(charType c)</text><rect fill="#FEFECE" filter="url(#f1)" height="103.3438" style="stroke: #A80036; stroke-width: 1.5;" width="280" x="1712" y="1569.5"/><ellipse cx="1796.25" cy="1585.5" fill="#ADD1B2" rx="11" ry="11" style="stroke: #A80036; stroke-width: 1.0;"/><path d="M1799.0156,1581.375 Q1799.1719,1581.1563 1799.3594,1581.0469 Q1799.5469,1580.9375 1799.7656,1580.9375 Q1800.1406,1580.9375 1800.375,1581.1953 Q1800.6094,1581.4531 1800.6094,1582.0625 L1800.6094,1583.5156 Q1800.6094,1584.125 1800.375,1584.3906 Q1800.1406,1584.6563 1799.7656,1584.6563 Q1799.4219,1584.6563 1799.2188,1584.4531 Q1799.0156,1584.2656 1798.9063,1583.75 Q1798.8594,1583.3906 1798.6719,1583.2031 Q1798.3438,1582.8281 1797.7344,1582.6094 Q1797.125,1582.3906 1796.5,1582.3906 Q1795.7344,1582.3906 1795.1016,1582.7188 Q1794.4688,1583.0469 1793.9766,1583.7969 Q1793.4844,1584.5469 1793.4844,1585.5781 L1793.4844,1586.6719 Q1793.4844,1587.9063 1794.375,1588.7266 Q1795.2656,1589.5469 1796.8594,1589.5469 Q1797.7969,1589.5469 1798.4531,1589.2969 Q1798.8438,1589.1406 1799.2656,1588.7031 Q1799.5313,1588.4375 1799.6797,1588.3594 Q1799.8281,1588.2813 1800.0313,1588.2813 Q1800.3594,1588.2813 1800.6172,1588.5391 Q1800.875,1588.7969 1800.875,1589.1406 Q1800.875,1589.4844 1800.5313,1589.8906 Q1800.0313,1590.4688 1799.2344,1590.7969 Q1798.1563,1591.25 1796.8594,1591.25 Q1795.3438,1591.25 1794.1406,1590.625 Q1793.1563,1590.125 1792.4688,1589.0547 Q1791.7813,1587.9844 1791.7813,1586.7031 L1791.7813,1585.5469 Q1791.7813,1584.2188 1792.3984,1583.0703 Q1793.0156,1581.9219 1794.1094,1581.3047 Q1795.2031,1580.6875 1796.4375,1580.6875 Q1797.1719,1580.6875 1797.8203,1580.8516 Q1798.4688,1581.0156 1799.0156,1581.375 Z "/><text fill="#000000" font-size="12" lengthAdjust="spacingAndGlyphs" textLength="103" x="1816.75" y="1589.9531">CustomAttributePtr</text><line style="stroke: #A80036; stroke-width: 1.5;" x1="1713" x2="1991" y1="1601.5" y2="1601.5"/><rect fill="none" height="6" style="stroke: #C82930; stroke-width: 1.0;" width="6" x="1720" y="1610.918"/><text fill="#000000" font-size="11" lengthAdjust="spacingAndGlyphs" textLength="254" x="1732" y="1616.5">enum AttributePointerType enumAttributePointerType</text><rect fill="none" height="6" style="stroke: #C82930; stroke-width: 1.0;" width="6" x="1720" y="1624.7539"/><text fill="#000000" font-size="11" lengthAdjust="spacingAndGlyphs" textLength="66" x="1732" y="1630.3359">void* valuePtr</text><line style="stroke: #A80036; stroke-width: 1.0;" x1="1713" x2="1991" y1="1637.1719" y2="1637.1719"/><line style="stroke: #A80036; stroke-width: 1.0;" x1="1713" x2="1991" y1="1639.1719" y2="1639.1719"/><ellipse cx="1723" cy="1649.5898" fill="#84BE84" rx="3" ry="3" style="stroke: #038048; stroke-width: 1.0;"/><text fill="#000000" font-size="11" lengthAdjust="spacingAndGlyphs" textLength="60" x="1732" y="1652.1719">auto getPtr()</text><ellipse cx="1723" cy="1663.4258" fill="#84BE84" rx="3" ry="3" style="stroke: #038048; stroke-width: 1.0;"/><text fill="#000000" font-size="11" lengthAdjust="spacingAndGlyphs" textLength="85" x="1732" y="1666.0078">void* getVoidPtr()</text><rect fill="#FEFECE" filter="url(#f1)" height="103.3438" style="stroke: #A80036; stroke-width: 1.5;" width="141" x="2063.75" y="1569.5"/><ellipse cx="2078.75" cy="1585.5" fill="#EB937F" rx="11" ry="11" style="stroke: #A80036; stroke-width: 1.0;"/><path d="M2077.6094,1586.2969 L2077.6094,1588.7969 L2081.9375,1588.7969 L2081.9375,1587.875 Q2081.9375,1587.2656 2082.1797,1587 Q2082.4219,1586.7344 2082.7969,1586.7344 Q2083.1719,1586.7344 2083.4063,1587 Q2083.6406,1587.2656 2083.6406,1587.875 L2083.6406,1590.5 L2075.6406,1590.5 Q2075.0156,1590.5 2074.7578,1590.2656 Q2074.5,1590.0313 2074.5,1589.6406 Q2074.5,1589.2656 2074.7656,1589.0313 Q2075.0313,1588.7969 2075.6406,1588.7969 L2075.9063,1588.7969 L2075.9063,1582.1406 L2075.6406,1582.1406 Q2075.0156,1582.1406 2074.7578,1581.9063 Q2074.5,1581.6719 2074.5,1581.2813 Q2074.5,1580.9063 2074.7578,1580.6719 Q2075.0156,1580.4375 2075.6406,1580.4375 L2083.2656,1580.4375 L2083.2656,1583.0313 Q2083.2656,1583.6406 2083.0391,1583.8984 Q2082.8125,1584.1563 2082.4219,1584.1563 Q2082.0469,1584.1563 2081.8125,1583.8984 Q2081.5781,1583.6406 2081.5781,1583.0313 L2081.5781,1582.1406 L2077.6094,1582.1406 L2077.6094,1584.5938 L2079.0938,1584.5938 Q2079.0938,1583.9375 2079.2188,1583.75 Q2079.4844,1583.3438 2079.9531,1583.3438 Q2080.3281,1583.3438 2080.5625,1583.6016 Q2080.7969,1583.8594 2080.7969,1584.4688 L2080.7969,1586.4375 Q2080.7969,1586.9844 2080.6719,1587.1719 Q2080.4063,1587.5625 2079.9531,1587.5625 Q2079.4844,1587.5625 2079.2188,1587.1563 Q2079.0938,1586.9688 2079.0938,1586.2969 L2077.6094,1586.2969 Z "/><text fill="#000000" font-size="12" lengthAdjust="spacingAndGlyphs" textLength="109" x="2092.75" y="1589.9531">AttributePointerType</text><line style="stroke: #A80036; stroke-width: 1.5;" x1="2064.75" x2="2203.75" y1="1601.5" y2="1601.5"/><text fill="#000000" font-size="11" lengthAdjust="spacingAndGlyphs" textLength="25" x="2069.75" y="1616.5">VOID</text><text fill="#000000" font-size="11" lengthAdjust="spacingAndGlyphs" textLength="90" x="2069.75" y="1630.3359">INTEGER_VECTOR</text><text fill="#000000" font-size="11" lengthAdjust="spacingAndGlyphs" textLength="89" x="2069.75" y="1644.1719">DOUBLE_VECTOR</text><text fill="#000000" font-size="11" lengthAdjust="spacingAndGlyphs" textLength="37" x="2069.75" y="1658.0078">STRING</text><line style="stroke: #A80036; stroke-width: 1.5;" x1="2064.75" x2="2203.75" y1="1664.8438" y2="1664.8438"/><rect fill="#FEFECE" filter="url(#f1)" height="89.5078" style="stroke: #A80036; stroke-width: 1.5;" width="133" x="2173.75" y="1771"/><ellipse cx="2188.75" cy="1787" fill="#EB937F" rx="11" ry="11" style="stroke: #A80036; stroke-width: 1.0;"/><path d="M2187.6094,1787.7969 L2187.6094,1790.2969 L2191.9375,1790.2969 L2191.9375,1789.375 Q2191.9375,1788.7656 2192.1797,1788.5 Q2192.4219,1788.2344 2192.7969,1788.2344 Q2193.1719,1788.2344 2193.4063,1788.5 Q2193.6406,1788.7656 2193.6406,1789.375 L2193.6406,1792 L2185.6406,1792 Q2185.0156,1792 2184.7578,1791.7656 Q2184.5,1791.5313 2184.5,1791.1406 Q2184.5,1790.7656 2184.7656,1790.5313 Q2185.0313,1790.2969 2185.6406,1790.2969 L2185.9063,1790.2969 L2185.9063,1783.6406 L2185.6406,1783.6406 Q2185.0156,1783.6406 2184.7578,1783.4063 Q2184.5,1783.1719 2184.5,1782.7813 Q2184.5,1782.4063 2184.7578,1782.1719 Q2185.0156,1781.9375 2185.6406,1781.9375 L2193.2656,1781.9375 L2193.2656,1784.5313 Q2193.2656,1785.1406 2193.0391,1785.3984 Q2192.8125,1785.6563 2192.4219,1785.6563 Q2192.0469,1785.6563 2191.8125,1785.3984 Q2191.5781,1785.1406 2191.5781,1784.5313 L2191.5781,1783.6406 L2187.6094,1783.6406 L2187.6094,1786.0938 L2189.0938,1786.0938 Q2189.0938,1785.4375 2189.2188,1785.25 Q2189.4844,1784.8438 2189.9531,1784.8438 Q2190.3281,1784.8438 2190.5625,1785.1016 Q2190.7969,1785.3594 2190.7969,1785.9688 L2190.7969,1787.9375 Q2190.7969,1788.4844 2190.6719,1788.6719 Q2190.4063,1789.0625 2189.9531,1789.0625 Q2189.4844,1789.0625 2189.2188,1788.6563 Q2189.0938,1788.4688 2189.0938,1787.7969 L2187.6094,1787.7969 Z "/><text fill="#000000" font-size="12" lengthAdjust="spacingAndGlyphs" textLength="101" x="2202.75" y="1791.4531">AttributeValueType</text><line style="stroke: #A80036; stroke-width: 1.5;" x1="2174.75" x2="2305.75" y1="1803" y2="1803"/><text fill="#000000" font-size="11" lengthAdjust="spacingAndGlyphs" textLength="42" x="2179.75" y="1818">INTEGER</text><text fill="#000000" font-size="11" lengthAdjust="spacingAndGlyphs" textLength="34" x="2179.75" y="1831.8359">FLOAT</text><text fill="#000000" font-size="11" lengthAdjust="spacingAndGlyphs" textLength="29" x="2179.75" y="1845.6719">CHAR</text><line style="stroke: #A80036; stroke-width: 1.5;" x1="2174.75" x2="2305.75" y1="1852.5078" y2="1852.5078"/><rect fill="#FEFECE" filter="url(#f1)" height="97.6953" style="stroke: #A80036; stroke-width: 1.5;" width="153" x="2341.75" y="1767"/><ellipse cx="2356.75" cy="1787.0938" fill="#FFFFFF" rx="11" ry="11" style="stroke: #A80036; stroke-width: 1.0;"/><path d="M2361.2344,1784.4844 L2361.2344,1789.3125 Q2361.2344,1790.8906 2360.1016,1791.9922 Q2358.9688,1793.0938 2357.375,1793.0938 Q2356.5938,1793.0938 2355.8984,1792.8125 Q2355.2031,1792.5313 2354.6484,1791.9922 Q2354.0938,1791.4531 2353.7891,1790.8672 Q2353.4844,1790.2813 2353.4844,1789.3125 L2353.4844,1784.4844 Q2352.9531,1784.4844 2352.6953,1784.2422 Q2352.4375,1784 2352.4375,1783.625 Q2352.4375,1783.25 2352.6953,1783.0156 Q2352.9531,1782.7813 2353.5625,1782.7813 L2355.7969,1782.7813 Q2356.4219,1782.7813 2356.6797,1783.0156 Q2356.9375,1783.25 2356.9375,1783.625 Q2356.9375,1784.0156 2356.6797,1784.25 Q2356.4219,1784.4844 2355.7969,1784.4844 L2355.1875,1784.4844 L2355.1875,1789.4531 Q2355.1875,1790.2188 2355.8203,1790.8047 Q2356.4531,1791.3906 2357.3594,1791.3906 Q2357.9531,1791.3906 2358.4766,1791.1094 Q2359,1790.8281 2359.3281,1790.2813 Q2359.5313,1789.9531 2359.5313,1789.4531 L2359.5313,1784.4844 L2358.9219,1784.4844 Q2358.3125,1784.4844 2358.0469,1784.25 Q2357.7813,1784.0156 2357.7813,1783.625 Q2357.7813,1783.25 2358.0469,1783.0156 Q2358.3125,1782.7813 2358.9219,1782.7813 L2361.1563,1782.7813 Q2361.7656,1782.7813 2362.0313,1783.0156 Q2362.2969,1783.25 2362.2969,1783.625 Q2362.2969,1784 2362.0391,1784.2422 Q2361.7813,1784.4844 2361.2344,1784.4844 Z "/><text fill="#000000" font-size="12" font-style="italic" lengthAdjust="spacingAndGlyphs" textLength="67" x="2397.75" y="1784">&lt;&lt; Union &gt;&gt;</text><text fill="#000000" font-size="12" lengthAdjust="spacingAndGlyphs" textLength="121" x="2370.75" y="1799.0938">CustomAttributeUnion</text><line style="stroke: #A80036; stroke-width: 1.5;" x1="2342.75" x2="2493.75" y1="1807.1875" y2="1807.1875"/><ellipse cx="2352.75" cy="1819.6055" fill="none" rx="3" ry="3" style="stroke: #038048; stroke-width: 1.0;"/><text fill="#000000" font-size="11" lengthAdjust="spacingAndGlyphs" textLength="62" x="2361.75" y="1822.1875">integerType i</text><ellipse cx="2352.75" cy="1833.4414" fill="none" rx="3" ry="3" style="stroke: #038048; stroke-width: 1.0;"/><text fill="#000000" font-size="11" lengthAdjust="spacingAndGlyphs" textLength="52" x="2361.75" y="1836.0234">floatType f</text><ellipse cx="2352.75" cy="1847.2773" fill="none" rx="3" ry="3" style="stroke: #038048; stroke-width: 1.0;"/><text fill="#000000" font-size="11" lengthAdjust="spacingAndGlyphs" textLength="55" x="2361.75" y="1849.8594">charType c</text><line style="stroke: #A80036; stroke-width: 1.5;" x1="2342.75" x2="2493.75" y1="1856.6953" y2="1856.6953"/><rect fill="#FEFECE" filter="url(#f1)" height="417.8984" style="stroke: #A80036; stroke-width: 1.5;" width="425" x="1907.75" y="1050"/><ellipse cx="2061" cy="1066" fill="#A9DCDF" rx="11" ry="11" style="stroke: #A80036; stroke-width: 1.0;"/><path d="M2063.1875,1067.7656 L2059.0469,1067.7656 L2058.625,1068.7969 L2059.0469,1068.7969 Q2059.6563,1068.7969 2059.9219,1069.0313 Q2060.1875,1069.2656 2060.1875,1069.6563 Q2060.1875,1070.0313 2059.9219,1070.2656 Q2059.6563,1070.5 2059.0469,1070.5 L2056.75,1070.5 Q2056.1406,1070.5 2055.8828,1070.2656 Q2055.625,1070.0313 2055.625,1069.6406 Q2055.625,1069.2656 2055.8984,1069.0234 Q2056.1719,1068.7813 2056.7969,1068.7969 L2059.4688,1062.1406 L2058.3594,1062.1406 Q2057.75,1062.1406 2057.4844,1061.9063 Q2057.2188,1061.6719 2057.2188,1061.2813 Q2057.2188,1060.9063 2057.4844,1060.6719 Q2057.75,1060.4375 2058.3594,1060.4375 L2062.0313,1060.4375 L2065.4219,1068.7969 Q2066.0156,1068.7969 2066.2031,1068.9375 Q2066.5938,1069.2031 2066.5938,1069.6563 Q2066.5938,1070.0313 2066.3359,1070.2656 Q2066.0781,1070.5 2065.4688,1070.5 L2063.1719,1070.5 Q2062.5625,1070.5 2062.2969,1070.2656 Q2062.0313,1070.0313 2062.0313,1069.6406 Q2062.0313,1069.2656 2062.2969,1069.0313 Q2062.5625,1068.7969 2063.1719,1068.7969 L2063.5938,1068.7969 L2063.1875,1067.7656 Z M2062.4688,1066.0625 L2061.1094,1062.6875 L2059.7344,1066.0625 L2062.4688,1066.0625 Z "/><text fill="#000000" font-size="12" font-style="italic" lengthAdjust="spacingAndGlyphs" textLength="110" x="2081.5" y="1070.4531">AbstractComponent</text><line style="stroke: #A80036; stroke-width: 1.5;" x1="1908.75" x2="2331.75" y1="1082" y2="1082"/><rect fill="none" height="6" style="stroke: #C82930; stroke-width: 1.0;" width="6" x="1915.75" y="1091.418"/><text fill="#000000" font-size="11" lengthAdjust="spacingAndGlyphs" textLength="194" x="1927.75" y="1097">static incrementType CustomValueID = 0</text><rect fill="none" height="6" style="stroke: #C82930; stroke-width: 1.0;" width="6" x="1915.75" y="1105.2539"/><text fill="#000000" font-size="11" lengthAdjust="spacingAndGlyphs" textLength="179" x="1927.75" y="1110.8359">static incrementType CustomPtrID = 0</text><rect fill="none" height="6" style="stroke: #C82930; stroke-width: 1.0;" width="6" x="1915.75" y="1119.0898"/><text fill="#000000" font-size="11" lengthAdjust="spacingAndGlyphs" textLength="77" x="1927.75" y="1124.6719">std::string name</text><rect fill="none" height="6" style="stroke: #C82930; stroke-width: 1.0;" width="6" x="1915.75" y="1132.9258"/><text fill="#000000" font-size="11" lengthAdjust="spacingAndGlyphs" textLength="144" x="1927.75" y="1138.5078">enum ComponentFamily family</text><rect fill="none" height="6" style="stroke: #C82930; stroke-width: 1.0;" width="6" x="1915.75" y="1146.7617"/><text fill="#000000" font-size="11" lengthAdjust="spacingAndGlyphs" textLength="104" x="1927.75" y="1152.3438">bool bIsParent = false</text><rect fill="none" height="6" style="stroke: #C82930; stroke-width: 1.0;" width="6" x="1915.75" y="1160.5977"/><text fill="#000000" font-size="11" lengthAdjust="spacingAndGlyphs" textLength="321" x="1927.75" y="1166.1797">std::map&lt;incrementType, CustomAttributeValue&gt; customValueMap</text><rect fill="none" height="6" style="stroke: #C82930; stroke-width: 1.0;" width="6" x="1915.75" y="1174.4336"/><text fill="#000000" font-size="11" lengthAdjust="spacingAndGlyphs" textLength="291" x="1927.75" y="1180.0156">std::map&lt;incrementType, CustomAttributePtr&gt; customPtrMap</text><rect fill="none" height="6" style="stroke: #C82930; stroke-width: 1.0;" width="6" x="1915.75" y="1188.2695"/><text fill="#000000" font-size="11" lengthAdjust="spacingAndGlyphs" textLength="224" x="1927.75" y="1193.8516">std::list&lt;AbstractComponent&gt; children = nullptr</text><line style="stroke: #A80036; stroke-width: 1.0;" x1="1908.75" x2="2331.75" y1="1200.6875" y2="1200.6875"/><line style="stroke: #A80036; stroke-width: 1.0;" x1="1908.75" x2="2331.75" y1="1202.6875" y2="1202.6875"/><ellipse cx="1918.75" cy="1230.9414" fill="#84BE84" rx="3" ry="3" style="stroke: #038048; stroke-width: 1.0;"/><text fill="#000000" font-size="11" lengthAdjust="spacingAndGlyphs" textLength="399" x="1927.75" y="1233.5234">AbstractComponent(std::string name, enum ComponentFamily family, bool isParent)</text><line style="stroke: #A80036; stroke-width: 1.0; stroke-dasharray: 1.0,2.0;" x1="1907.75" x2="2090.25" y1="1215.6055" y2="1215.6055"/><text fill="#000000" font-size="11" lengthAdjust="spacingAndGlyphs" textLength="56" x="2092.25" y="1219.1875">constructor</text><line style="stroke: #A80036; stroke-width: 1.0; stroke-dasharray: 1.0,2.0;" x1="2149.25" x2="2331.75" y1="1215.6055" y2="1215.6055"/><ellipse cx="1918.75" cy="1262.6133" fill="#84BE84" rx="3" ry="3" style="stroke: #038048; stroke-width: 1.0;"/><text fill="#000000" font-size="11" lengthAdjust="spacingAndGlyphs" textLength="101" x="1927.75" y="1265.1953">std::string getName()</text><ellipse cx="1918.75" cy="1276.4492" fill="#84BE84" rx="3" ry="3" style="stroke: #038048; stroke-width: 1.0;"/><text fill="#000000" font-size="11" lengthAdjust="spacingAndGlyphs" textLength="150" x="1927.75" y="1279.0313">void setName(std::string name)</text><line style="stroke: #A80036; stroke-width: 1.0; stroke-dasharray: 1.0,2.0;" x1="1907.75" x2="2105.25" y1="1247.2773" y2="1247.2773"/><text fill="#000000" font-size="11" lengthAdjust="spacingAndGlyphs" textLength="26" x="2107.25" y="1250.8594">name</text><line style="stroke: #A80036; stroke-width: 1.0; stroke-dasharray: 1.0,2.0;" x1="2134.25" x2="2331.75" y1="1247.2773" y2="1247.2773"/><ellipse cx="1918.75" cy="1308.1211" fill="#84BE84" rx="3" ry="3" style="stroke: #038048; stroke-width: 1.0;"/><text fill="#000000" font-size="11" lengthAdjust="spacingAndGlyphs" textLength="169" x="1927.75" y="1310.7031">enum ComponentFamily getFamily()</text><ellipse cx="1918.75" cy="1321.957" fill="#84BE84" rx="3" ry="3" style="stroke: #038048; stroke-width: 1.0;"/><text fill="#000000" font-size="11" lengthAdjust="spacingAndGlyphs" textLength="220" x="1927.75" y="1324.5391">void setFamily(enum ComponentFamily family)</text><line style="stroke: #A80036; stroke-width: 1.0; stroke-dasharray: 1.0,2.0;" x1="1907.75" x2="2104.25" y1="1292.7852" y2="1292.7852"/><text fill="#000000" font-size="11" lengthAdjust="spacingAndGlyphs" textLength="28" x="2106.25" y="1296.3672">family</text><line style="stroke: #A80036; stroke-width: 1.0; stroke-dasharray: 1.0,2.0;" x1="2135.25" x2="2331.75" y1="1292.7852" y2="1292.7852"/><ellipse cx="1918.75" cy="1353.6289" fill="#84BE84" rx="3" ry="3" style="stroke: #038048; stroke-width: 1.0;"/><text fill="#000000" font-size="11" lengthAdjust="spacingAndGlyphs" textLength="70" x="1927.75" y="1356.2109">bool isParent()</text><line style="stroke: #A80036; stroke-width: 1.0; stroke-dasharray: 1.0,2.0;" x1="1907.75" x2="2095.75" y1="1338.293" y2="1338.293"/><text fill="#000000" font-size="11" lengthAdjust="spacingAndGlyphs" textLength="45" x="2097.75" y="1341.875">bIsParent</text><line style="stroke: #A80036; stroke-width: 1.0; stroke-dasharray: 1.0,2.0;" x1="2143.75" x2="2331.75" y1="1338.293" y2="1338.293"/><ellipse cx="1918.75" cy="1385.3008" fill="#84BE84" rx="3" ry="3" style="stroke: #038048; stroke-width: 1.0;"/><text fill="#000000" font-size="11" lengthAdjust="spacingAndGlyphs" textLength="223" x="1927.75" y="1387.8828">incrementType setCustomAttributeValue(auto)</text><ellipse cx="1918.75" cy="1399.1367" fill="#84BE84" rx="3" ry="3" style="stroke: #038048; stroke-width: 1.0;"/><text fill="#000000" font-size="11" lengthAdjust="spacingAndGlyphs" textLength="375" x="1927.75" y="1401.7188">incrementType setCustomAttributePtr(auto, enumAttributePointerType = VOID)</text><ellipse cx="1918.75" cy="1412.9727" fill="#84BE84" rx="3" ry="3" style="stroke: #038048; stroke-width: 1.0;"/><text fill="#000000" font-size="11" lengthAdjust="spacingAndGlyphs" textLength="307" x="1927.75" y="1415.5547">CustomAttributeValue getCustomAttributeValue(incrementType)</text><ellipse cx="1918.75" cy="1426.8086" fill="#84BE84" rx="3" ry="3" style="stroke: #038048; stroke-width: 1.0;"/><text fill="#000000" font-size="11" lengthAdjust="spacingAndGlyphs" textLength="277" x="1927.75" y="1429.3906">CustomAttributePtr getCustomAttributePtr(incrementType)</text><line style="stroke: #A80036; stroke-width: 1.0; stroke-dasharray: 1.0,2.0;" x1="1907.75" x2="2083.25" y1="1369.9648" y2="1369.9648"/><text fill="#000000" font-size="11" lengthAdjust="spacingAndGlyphs" textLength="70" x="2085.25" y="1373.5469">custom values</text><line style="stroke: #A80036; stroke-width: 1.0; stroke-dasharray: 1.0,2.0;" x1="2156.25" x2="2331.75" y1="1369.9648" y2="1369.9648"/><text fill="#000000" font-size="11" lengthAdjust="spacingAndGlyphs" textLength="168" x="1913.75" y="1461.0625">void addChild(AbstractComponent)</text><line style="stroke: #A80036; stroke-width: 1.0; stroke-dasharray: 1.0,2.0;" x1="1907.75" x2="2099.25" y1="1443.1445" y2="1443.1445"/><text fill="#000000" font-size="11" lengthAdjust="spacingAndGlyphs" textLength="38" x="2101.25" y="1446.7266">children</text><line style="stroke: #A80036; stroke-width: 1.0; stroke-dasharray: 1.0,2.0;" x1="2140.25" x2="2331.75" y1="1443.1445" y2="1443.1445"/><rect fill="#FEFECE" filter="url(#f1)" height="48" style="stroke: #A80036; stroke-width: 1.5;" width="142" x="1175" y="1235"/><ellipse cx="1190" cy="1251" fill="#ADD1B2" rx="11" ry="11" style="stroke: #A80036; stroke-width: 1.0;"/><path d="M1192.7656,1246.875 Q1192.9219,1246.6563 1193.1094,1246.5469 Q1193.2969,1246.4375 1193.5156,1246.4375 Q1193.8906,1246.4375 1194.125,1246.6953 Q1194.3594,1246.9531 1194.3594,1247.5625 L1194.3594,1249.0156 Q1194.3594,1249.625 1194.125,1249.8906 Q1193.8906,1250.1563 1193.5156,1250.1563 Q1193.1719,1250.1563 1192.9688,1249.9531 Q1192.7656,1249.7656 1192.6563,1249.25 Q1192.6094,1248.8906 1192.4219,1248.7031 Q1192.0938,1248.3281 1191.4844,1248.1094 Q1190.875,1247.8906 1190.25,1247.8906 Q1189.4844,1247.8906 1188.8516,1248.2188 Q1188.2188,1248.5469 1187.7266,1249.2969 Q1187.2344,1250.0469 1187.2344,1251.0781 L1187.2344,1252.1719 Q1187.2344,1253.4063 1188.125,1254.2266 Q1189.0156,1255.0469 1190.6094,1255.0469 Q1191.5469,1255.0469 1192.2031,1254.7969 Q1192.5938,1254.6406 1193.0156,1254.2031 Q1193.2813,1253.9375 1193.4297,1253.8594 Q1193.5781,1253.7813 1193.7813,1253.7813 Q1194.1094,1253.7813 1194.3672,1254.0391 Q1194.625,1254.2969 1194.625,1254.6406 Q1194.625,1254.9844 1194.2813,1255.3906 Q1193.7813,1255.9688 1192.9844,1256.2969 Q1191.9063,1256.75 1190.6094,1256.75 Q1189.0938,1256.75 1187.8906,1256.125 Q1186.9063,1255.625 1186.2188,1254.5547 Q1185.5313,1253.4844 1185.5313,1252.2031 L1185.5313,1251.0469 Q1185.5313,1249.7188 1186.1484,1248.5703 Q1186.7656,1247.4219 1187.8594,1246.8047 Q1188.9531,1246.1875 1190.1875,1246.1875 Q1190.9219,1246.1875 1191.5703,1246.3516 Q1192.2188,1246.5156 1192.7656,1246.875 Z "/><text fill="#000000" font-size="12" lengthAdjust="spacingAndGlyphs" textLength="110" x="1204" y="1255.4531">PositionComponent</text><line style="stroke: #A80036; stroke-width: 1.5;" x1="1176" x2="1316" y1="1267" y2="1267"/><line style="stroke: #A80036; stroke-width: 1.5;" x1="1176" x2="1316" y1="1275" y2="1275"/><rect fill="#FEFECE" filter="url(#f1)" height="48" style="stroke: #A80036; stroke-width: 1.5;" width="129" x="1352.75" y="1235"/><ellipse cx="1367.75" cy="1251" fill="#ADD1B2" rx="11" ry="11" style="stroke: #A80036; stroke-width: 1.0;"/><path d="M1370.5156,1246.875 Q1370.6719,1246.6563 1370.8594,1246.5469 Q1371.0469,1246.4375 1371.2656,1246.4375 Q1371.6406,1246.4375 1371.875,1246.6953 Q1372.1094,1246.9531 1372.1094,1247.5625 L1372.1094,1249.0156 Q1372.1094,1249.625 1371.875,1249.8906 Q1371.6406,1250.1563 1371.2656,1250.1563 Q1370.9219,1250.1563 1370.7188,1249.9531 Q1370.5156,1249.7656 1370.4063,1249.25 Q1370.3594,1248.8906 1370.1719,1248.7031 Q1369.8438,1248.3281 1369.2344,1248.1094 Q1368.625,1247.8906 1368,1247.8906 Q1367.2344,1247.8906 1366.6016,1248.2188 Q1365.9688,1248.5469 1365.4766,1249.2969 Q1364.9844,1250.0469 1364.9844,1251.0781 L1364.9844,1252.1719 Q1364.9844,1253.4063 1365.875,1254.2266 Q1366.7656,1255.0469 1368.3594,1255.0469 Q1369.2969,1255.0469 1369.9531,1254.7969 Q1370.3438,1254.6406 1370.7656,1254.2031 Q1371.0313,1253.9375 1371.1797,1253.8594 Q1371.3281,1253.7813 1371.5313,1253.7813 Q1371.8594,1253.7813 1372.1172,1254.0391 Q1372.375,1254.2969 1372.375,1254.6406 Q1372.375,1254.9844 1372.0313,1255.3906 Q1371.5313,1255.9688 1370.7344,1256.2969 Q1369.6563,1256.75 1368.3594,1256.75 Q1366.8438,1256.75 1365.6406,1256.125 Q1364.6563,1255.625 1363.9688,1254.5547 Q1363.2813,1253.4844 1363.2813,1252.2031 L1363.2813,1251.0469 Q1363.2813,1249.7188 1363.8984,1248.5703 Q1364.5156,1247.4219 1365.6094,1246.8047 Q1366.7031,1246.1875 1367.9375,1246.1875 Q1368.6719,1246.1875 1369.3203,1246.3516 Q1369.9688,1246.5156 1370.5156,1246.875 Z "/><text fill="#000000" font-size="12" lengthAdjust="spacingAndGlyphs" textLength="97" x="1381.75" y="1255.4531">SpriteComponent</text><line style="stroke: #A80036; stroke-width: 1.5;" x1="1353.75" x2="1480.75" y1="1267" y2="1267"/><line style="stroke: #A80036; stroke-width: 1.5;" x1="1353.75" x2="1480.75" y1="1275" y2="1275"/><rect fill="#FEFECE" filter="url(#f1)" height="48" style="stroke: #A80036; stroke-width: 1.5;" width="146" x="1517" y="1235"/><ellipse cx="1532" cy="1251" fill="#ADD1B2" rx="11" ry="11" style="stroke: #A80036; stroke-width: 1.0;"/><path d="M1534.7656,1246.875 Q1534.9219,1246.6563 1535.1094,1246.5469 Q1535.2969,1246.4375 1535.5156,1246.4375 Q1535.8906,1246.4375 1536.125,1246.6953 Q1536.3594,1246.9531 1536.3594,1247.5625 L1536.3594,1249.0156 Q1536.3594,1249.625 1536.125,1249.8906 Q1535.8906,1250.1563 1535.5156,1250.1563 Q1535.1719,1250.1563 1534.9688,1249.9531 Q1534.7656,1249.7656 1534.6563,1249.25 Q1534.6094,1248.8906 1534.4219,1248.7031 Q1534.0938,1248.3281 1533.4844,1248.1094 Q1532.875,1247.8906 1532.25,1247.8906 Q1531.4844,1247.8906 1530.8516,1248.2188 Q1530.2188,1248.5469 1529.7266,1249.2969 Q1529.2344,1250.0469 1529.2344,1251.0781 L1529.2344,1252.1719 Q1529.2344,1253.4063 1530.125,1254.2266 Q1531.0156,1255.0469 1532.6094,1255.0469 Q1533.5469,1255.0469 1534.2031,1254.7969 Q1534.5938,1254.6406 1535.0156,1254.2031 Q1535.2813,1253.9375 1535.4297,1253.8594 Q1535.5781,1253.7813 1535.7813,1253.7813 Q1536.1094,1253.7813 1536.3672,1254.0391 Q1536.625,1254.2969 1536.625,1254.6406 Q1536.625,1254.9844 1536.2813,1255.3906 Q1535.7813,1255.9688 1534.9844,1256.2969 Q1533.9063,1256.75 1532.6094,1256.75 Q1531.0938,1256.75 1529.8906,1256.125 Q1528.9063,1255.625 1528.2188,1254.5547 Q1527.5313,1253.4844 1527.5313,1252.2031 L1527.5313,1251.0469 Q1527.5313,1249.7188 1528.1484,1248.5703 Q1528.7656,1247.4219 1529.8594,1246.8047 Q1530.9531,1246.1875 1532.1875,1246.1875 Q1532.9219,1246.1875 1533.5703,1246.3516 Q1534.2188,1246.5156 1534.7656,1246.875 Z "/><text fill="#000000" font-size="12" lengthAdjust="spacingAndGlyphs" textLength="114" x="1546" y="1255.4531">CollisionComponent</text><line style="stroke: #A80036; stroke-width: 1.5;" x1="1518" x2="1662" y1="1267" y2="1267"/><line style="stroke: #A80036; stroke-width: 1.5;" x1="1518" x2="1662" y1="1275" y2="1275"/><rect fill="#FEFECE" filter="url(#f1)" height="48" style="stroke: #A80036; stroke-width: 1.5;" width="119" x="1020.75" y="1235"/><ellipse cx="1035.75" cy="1251" fill="#ADD1B2" rx="11" ry="11" style="stroke: #A80036; stroke-width: 1.0;"/><path d="M1038.5156,1246.875 Q1038.6719,1246.6563 1038.8594,1246.5469 Q1039.0469,1246.4375 1039.2656,1246.4375 Q1039.6406,1246.4375 1039.875,1246.6953 Q1040.1094,1246.9531 1040.1094,1247.5625 L1040.1094,1249.0156 Q1040.1094,1249.625 1039.875,1249.8906 Q1039.6406,1250.1563 1039.2656,1250.1563 Q1038.9219,1250.1563 1038.7188,1249.9531 Q1038.5156,1249.7656 1038.4063,1249.25 Q1038.3594,1248.8906 1038.1719,1248.7031 Q1037.8438,1248.3281 1037.2344,1248.1094 Q1036.625,1247.8906 1036,1247.8906 Q1035.2344,1247.8906 1034.6016,1248.2188 Q1033.9688,1248.5469 1033.4766,1249.2969 Q1032.9844,1250.0469 1032.9844,1251.0781 L1032.9844,1252.1719 Q1032.9844,1253.4063 1033.875,1254.2266 Q1034.7656,1255.0469 1036.3594,1255.0469 Q1037.2969,1255.0469 1037.9531,1254.7969 Q1038.3438,1254.6406 1038.7656,1254.2031 Q1039.0313,1253.9375 1039.1797,1253.8594 Q1039.3281,1253.7813 1039.5313,1253.7813 Q1039.8594,1253.7813 1040.1172,1254.0391 Q1040.375,1254.2969 1040.375,1254.6406 Q1040.375,1254.9844 1040.0313,1255.3906 Q1039.5313,1255.9688 1038.7344,1256.2969 Q1037.6563,1256.75 1036.3594,1256.75 Q1034.8438,1256.75 1033.6406,1256.125 Q1032.6563,1255.625 1031.9688,1254.5547 Q1031.2813,1253.4844 1031.2813,1252.2031 L1031.2813,1251.0469 Q1031.2813,1249.7188 1031.8984,1248.5703 Q1032.5156,1247.4219 1033.6094,1246.8047 Q1034.7031,1246.1875 1035.9375,1246.1875 Q1036.6719,1246.1875 1037.3203,1246.3516 Q1037.9688,1246.5156 1038.5156,1246.875 Z "/><text fill="#000000" font-size="12" lengthAdjust="spacingAndGlyphs" textLength="87" x="1049.75" y="1255.4531">TextComponent</text><line style="stroke: #A80036; stroke-width: 1.5;" x1="1021.75" x2="1138.75" y1="1267" y2="1267"/><line style="stroke: #A80036; stroke-width: 1.5;" x1="1021.75" x2="1138.75" y1="1275" y2="1275"/><rect fill="#FEFECE" filter="url(#f1)" height="48" style="stroke: #A80036; stroke-width: 1.5;" width="140" x="1698" y="1235"/><ellipse cx="1713" cy="1251" fill="#ADD1B2" rx="11" ry="11" style="stroke: #A80036; stroke-width: 1.0;"/><path d="M1715.7656,1246.875 Q1715.9219,1246.6563 1716.1094,1246.5469 Q1716.2969,1246.4375 1716.5156,1246.4375 Q1716.8906,1246.4375 1717.125,1246.6953 Q1717.3594,1246.9531 1717.3594,1247.5625 L1717.3594,1249.0156 Q1717.3594,1249.625 1717.125,1249.8906 Q1716.8906,1250.1563 1716.5156,1250.1563 Q1716.1719,1250.1563 1715.9688,1249.9531 Q1715.7656,1249.7656 1715.6563,1249.25 Q1715.6094,1248.8906 1715.4219,1248.7031 Q1715.0938,1248.3281 1714.4844,1248.1094 Q1713.875,1247.8906 1713.25,1247.8906 Q1712.4844,1247.8906 1711.8516,1248.2188 Q1711.2188,1248.5469 1710.7266,1249.2969 Q1710.2344,1250.0469 1710.2344,1251.0781 L1710.2344,1252.1719 Q1710.2344,1253.4063 1711.125,1254.2266 Q1712.0156,1255.0469 1713.6094,1255.0469 Q1714.5469,1255.0469 1715.2031,1254.7969 Q1715.5938,1254.6406 1716.0156,1254.2031 Q1716.2813,1253.9375 1716.4297,1253.8594 Q1716.5781,1253.7813 1716.7813,1253.7813 Q1717.1094,1253.7813 1717.3672,1254.0391 Q1717.625,1254.2969 1717.625,1254.6406 Q1717.625,1254.9844 1717.2813,1255.3906 Q1716.7813,1255.9688 1715.9844,1256.2969 Q1714.9063,1256.75 1713.6094,1256.75 Q1712.0938,1256.75 1710.8906,1256.125 Q1709.9063,1255.625 1709.2188,1254.5547 Q1708.5313,1253.4844 1708.5313,1252.2031 L1708.5313,1251.0469 Q1708.5313,1249.7188 1709.1484,1248.5703 Q1709.7656,1247.4219 1710.8594,1246.8047 Q1711.9531,1246.1875 1713.1875,1246.1875 Q1713.9219,1246.1875 1714.5703,1246.3516 Q1715.2188,1246.5156 1715.7656,1246.875 Z "/><text fill="#000000" font-size="12" lengthAdjust="spacingAndGlyphs" textLength="108" x="1727" y="1255.4531">PhysicsComponent</text><line style="stroke: #A80036; stroke-width: 1.5;" x1="1699" x2="1837" y1="1267" y2="1267"/><line style="stroke: #A80036; stroke-width: 1.5;" x1="1699" x2="1837" y1="1275" y2="1275"/><rect fill="#FEFECE" filter="url(#f1)" height="117.1797" style="stroke: #A80036; stroke-width: 1.5;" width="165" x="676.75" y="703.5"/><ellipse cx="712.9" cy="719.5" fill="#A9DCDF" rx="11" ry="11" style="stroke: #A80036; stroke-width: 1.0;"/><path d="M715.0875,721.2656 L710.9469,721.2656 L710.525,722.2969 L710.9469,722.2969 Q711.5563,722.2969 711.8219,722.5313 Q712.0875,722.7656 712.0875,723.1563 Q712.0875,723.5313 711.8219,723.7656 Q711.5563,724 710.9469,724 L708.65,724 Q708.0406,724 707.7828,723.7656 Q707.525,723.5313 707.525,723.1406 Q707.525,722.7656 707.7984,722.5234 Q708.0719,722.2813 708.6969,722.2969 L711.3688,715.6406 L710.2594,715.6406 Q709.65,715.6406 709.3844,715.4063 Q709.1188,715.1719 709.1188,714.7813 Q709.1188,714.4063 709.3844,714.1719 Q709.65,713.9375 710.2594,713.9375 L713.9313,713.9375 L717.3219,722.2969 Q717.9156,722.2969 718.1031,722.4375 Q718.4938,722.7031 718.4938,723.1563 Q718.4938,723.5313 718.2359,723.7656 Q717.9781,724 717.3688,724 L715.0719,724 Q714.4625,724 714.1969,723.7656 Q713.9313,723.5313 713.9313,723.1406 Q713.9313,722.7656 714.1969,722.5313 Q714.4625,722.2969 715.0719,722.2969 L715.4938,722.2969 L715.0875,721.2656 Z M714.3688,719.5625 L713.0094,716.1875 L711.6344,719.5625 L714.3688,719.5625 Z "/><text fill="#000000" font-size="12" font-style="italic" lengthAdjust="spacingAndGlyphs" textLength="86" x="731.6" y="723.9531">AbstractSystem</text><line style="stroke: #A80036; stroke-width: 1.5;" x1="677.75" x2="840.75" y1="735.5" y2="735.5"/><rect fill="none" height="6" style="stroke: #C82930; stroke-width: 1.0;" width="6" x="684.75" y="744.918"/><text fill="#000000" font-size="11" lengthAdjust="spacingAndGlyphs" textLength="113" x="696.75" y="750.5">Enum SystemType type</text><line style="stroke: #A80036; stroke-width: 1.0;" x1="677.75" x2="840.75" y1="757.3359" y2="757.3359"/><line style="stroke: #A80036; stroke-width: 1.0;" x1="677.75" x2="840.75" y1="759.3359" y2="759.3359"/><ellipse cx="687.75" cy="769.7539" fill="#84BE84" rx="3" ry="3" style="stroke: #038048; stroke-width: 1.0;"/><text fill="#000000" font-size="11" lengthAdjust="spacingAndGlyphs" textLength="139" x="696.75" y="772.3359">Enum SystemType getType()</text><ellipse cx="687.75" cy="783.5898" fill="#84BE84" rx="3" ry="3" style="stroke: #038048; stroke-width: 1.0;"/><text fill="#000000" font-size="11" lengthAdjust="spacingAndGlyphs" textLength="121" x="696.75" y="786.1719">virtual createMessages()</text><ellipse cx="687.75" cy="797.4258" fill="#84BE84" rx="3" ry="3" style="stroke: #038048; stroke-width: 1.0;"/><text fill="#000000" font-size="11" lengthAdjust="spacingAndGlyphs" textLength="106" x="696.75" y="800.0078">virtual generateJobs()</text><ellipse cx="687.75" cy="811.2617" fill="#84BE84" rx="3" ry="3" style="stroke: #038048; stroke-width: 1.0;"/><text fill="#000000" font-size="11" lengthAdjust="spacingAndGlyphs" textLength="80" x="696.75" y="813.8438">virtual process()</text><rect fill="#FEFECE" filter="url(#f1)" height="48" style="stroke: #A80036; stroke-width: 1.5;" width="123" x="812.75" y="372"/><ellipse cx="827.75" cy="388" fill="#ADD1B2" rx="11" ry="11" style="stroke: #A80036; stroke-width: 1.0;"/><path d="M830.5156,383.875 Q830.6719,383.6563 830.8594,383.5469 Q831.0469,383.4375 831.2656,383.4375 Q831.6406,383.4375 831.875,383.6953 Q832.1094,383.9531 832.1094,384.5625 L832.1094,386.0156 Q832.1094,386.625 831.875,386.8906 Q831.6406,387.1563 831.2656,387.1563 Q830.9219,387.1563 830.7188,386.9531 Q830.5156,386.7656 830.4063,386.25 Q830.3594,385.8906 830.1719,385.7031 Q829.8438,385.3281 829.2344,385.1094 Q828.625,384.8906 828,384.8906 Q827.2344,384.8906 826.6016,385.2188 Q825.9688,385.5469 825.4766,386.2969 Q824.9844,387.0469 824.9844,388.0781 L824.9844,389.1719 Q824.9844,390.4063 825.875,391.2266 Q826.7656,392.0469 828.3594,392.0469 Q829.2969,392.0469 829.9531,391.7969 Q830.3438,391.6406 830.7656,391.2031 Q831.0313,390.9375 831.1797,390.8594 Q831.3281,390.7813 831.5313,390.7813 Q831.8594,390.7813 832.1172,391.0391 Q832.375,391.2969 832.375,391.6406 Q832.375,391.9844 832.0313,392.3906 Q831.5313,392.9688 830.7344,393.2969 Q829.6563,393.75 828.3594,393.75 Q826.8438,393.75 825.6406,393.125 Q824.6563,392.625 823.9688,391.5547 Q823.2813,390.4844 823.2813,389.2031 L823.2813,388.0469 Q823.2813,386.7188 823.8984,385.5703 Q824.5156,384.4219 825.6094,383.8047 Q826.7031,383.1875 827.9375,383.1875 Q828.6719,383.1875 829.3203,383.3516 Q829.9688,383.5156 830.5156,383.875 Z "/><text fill="#000000" font-size="12" lengthAdjust="spacingAndGlyphs" textLength="91" x="841.75" y="392.4531">GraphicsSystem</text><line style="stroke: #A80036; stroke-width: 1.5;" x1="813.75" x2="934.75" y1="404" y2="404"/><line style="stroke: #A80036; stroke-width: 1.5;" x1="813.75" x2="934.75" y1="412" y2="412"/><rect fill="#FEFECE" filter="url(#f1)" height="48" style="stroke: #A80036; stroke-width: 1.5;" width="116" x="661" y="372"/><ellipse cx="676" cy="388" fill="#ADD1B2" rx="11" ry="11" style="stroke: #A80036; stroke-width: 1.0;"/><path d="M678.7656,383.875 Q678.9219,383.6563 679.1094,383.5469 Q679.2969,383.4375 679.5156,383.4375 Q679.8906,383.4375 680.125,383.6953 Q680.3594,383.9531 680.3594,384.5625 L680.3594,386.0156 Q680.3594,386.625 680.125,386.8906 Q679.8906,387.1563 679.5156,387.1563 Q679.1719,387.1563 678.9688,386.9531 Q678.7656,386.7656 678.6563,386.25 Q678.6094,385.8906 678.4219,385.7031 Q678.0938,385.3281 677.4844,385.1094 Q676.875,384.8906 676.25,384.8906 Q675.4844,384.8906 674.8516,385.2188 Q674.2188,385.5469 673.7266,386.2969 Q673.2344,387.0469 673.2344,388.0781 L673.2344,389.1719 Q673.2344,390.4063 674.125,391.2266 Q675.0156,392.0469 676.6094,392.0469 Q677.5469,392.0469 678.2031,391.7969 Q678.5938,391.6406 679.0156,391.2031 Q679.2813,390.9375 679.4297,390.8594 Q679.5781,390.7813 679.7813,390.7813 Q680.1094,390.7813 680.3672,391.0391 Q680.625,391.2969 680.625,391.6406 Q680.625,391.9844 680.2813,392.3906 Q679.7813,392.9688 678.9844,393.2969 Q677.9063,393.75 676.6094,393.75 Q675.0938,393.75 673.8906,393.125 Q672.9063,392.625 672.2188,391.5547 Q671.5313,390.4844 671.5313,389.2031 L671.5313,388.0469 Q671.5313,386.7188 672.1484,385.5703 Q672.7656,384.4219 673.8594,383.8047 Q674.9531,383.1875 676.1875,383.1875 Q676.9219,383.1875 677.5703,383.3516 Q678.2188,383.5156 678.7656,383.875 Z "/><text fill="#000000" font-size="12" lengthAdjust="spacingAndGlyphs" textLength="84" x="690" y="392.4531">PhysicsSystem</text><line style="stroke: #A80036; stroke-width: 1.5;" x1="662" x2="776" y1="404" y2="404"/><line style="stroke: #A80036; stroke-width: 1.5;" x1="662" x2="776" y1="412" y2="412"/><rect fill="#FEFECE" filter="url(#f1)" height="48" style="stroke: #A80036; stroke-width: 1.5;" width="122" x="971" y="372"/><ellipse cx="986" cy="388" fill="#ADD1B2" rx="11" ry="11" style="stroke: #A80036; stroke-width: 1.0;"/><path d="M988.7656,383.875 Q988.9219,383.6563 989.1094,383.5469 Q989.2969,383.4375 989.5156,383.4375 Q989.8906,383.4375 990.125,383.6953 Q990.3594,383.9531 990.3594,384.5625 L990.3594,386.0156 Q990.3594,386.625 990.125,386.8906 Q989.8906,387.1563 989.5156,387.1563 Q989.1719,387.1563 988.9688,386.9531 Q988.7656,386.7656 988.6563,386.25 Q988.6094,385.8906 988.4219,385.7031 Q988.0938,385.3281 987.4844,385.1094 Q986.875,384.8906 986.25,384.8906 Q985.4844,384.8906 984.8516,385.2188 Q984.2188,385.5469 983.7266,386.2969 Q983.2344,387.0469 983.2344,388.0781 L983.2344,389.1719 Q983.2344,390.4063 984.125,391.2266 Q985.0156,392.0469 986.6094,392.0469 Q987.5469,392.0469 988.2031,391.7969 Q988.5938,391.6406 989.0156,391.2031 Q989.2813,390.9375 989.4297,390.8594 Q989.5781,390.7813 989.7813,390.7813 Q990.1094,390.7813 990.3672,391.0391 Q990.625,391.2969 990.625,391.6406 Q990.625,391.9844 990.2813,392.3906 Q989.7813,392.9688 988.9844,393.2969 Q987.9063,393.75 986.6094,393.75 Q985.0938,393.75 983.8906,393.125 Q982.9063,392.625 982.2188,391.5547 Q981.5313,390.4844 981.5313,389.2031 L981.5313,388.0469 Q981.5313,386.7188 982.1484,385.5703 Q982.7656,384.4219 983.8594,383.8047 Q984.9531,383.1875 986.1875,383.1875 Q986.9219,383.1875 987.5703,383.3516 Q988.2188,383.5156 988.7656,383.875 Z "/><text fill="#000000" font-size="12" lengthAdjust="spacingAndGlyphs" textLength="90" x="1000" y="392.4531">CollisionSystem</text><line style="stroke: #A80036; stroke-width: 1.5;" x1="972" x2="1092" y1="404" y2="404"/><line style="stroke: #A80036; stroke-width: 1.5;" x1="972" x2="1092" y1="412" y2="412"/><rect fill="#FEFECE" filter="url(#f1)" height="244.0547" style="stroke: #A80036; stroke-width: 1.5;" width="344" x="436" y="8"/><ellipse cx="568.25" cy="28.0938" fill="#FF7700" rx="11" ry="11" style="stroke: #A80036; stroke-width: 1.0;"/><path d="M566.3594,32.6563 Q566.1406,32.9219 566,33 Q565.8594,33.0781 565.6719,33.0781 Q565.2813,33.0781 565.0391,32.8125 Q564.7969,32.5469 564.7969,31.9531 L564.7969,30.7969 Q564.7969,30.1875 565.0391,29.9297 Q565.2813,29.6719 565.6719,29.6719 Q565.9688,29.6719 566.1719,29.8281 Q566.375,29.9844 566.4844,30.3516 Q566.5938,30.7188 566.7031,30.8594 Q566.9531,31.1094 567.5625,31.375 Q568.1719,31.6406 568.9063,31.6406 Q570.0469,31.6406 570.7656,31.1094 Q571.2344,30.7813 571.2344,30.3125 Q571.2344,30 571.0156,29.7188 Q570.7969,29.4375 570.2813,29.2656 Q569.9531,29.1406 568.7969,28.9219 Q567.4063,28.6563 566.6875,28.2969 Q565.9688,27.9375 565.5547,27.2734 Q565.1406,26.6094 565.1406,25.8281 Q565.1406,24.6094 566.1641,23.6953 Q567.1875,22.7813 568.8281,22.7813 Q569.4844,22.7813 570.0391,22.9219 Q570.5938,23.0625 571.0625,23.3594 Q571.3906,23.0469 571.7188,23.0469 Q572.0938,23.0469 572.3281,23.3047 Q572.5625,23.5625 572.5625,24.1719 L572.5625,25.4531 Q572.5625,26.0625 572.3281,26.3203 Q572.0938,26.5781 571.7188,26.5781 Q571.4063,26.5781 571.1719,26.3906 Q570.9844,26.25 570.8984,25.8281 Q570.8125,25.4063 570.6719,25.2188 Q570.4219,24.9063 569.9453,24.6953 Q569.4688,24.4844 568.8281,24.4844 Q567.9063,24.4844 567.375,24.9063 Q566.8438,25.3281 566.8438,25.7969 Q566.8438,26.1094 567.0625,26.4063 Q567.2813,26.7031 567.7031,26.875 Q567.9844,26.9844 569.2891,27.2422 Q570.5938,27.5 571.2969,27.8047 Q572,28.1094 572.4688,28.7656 Q572.9375,29.4219 572.9375,30.3281 Q572.9375,31.5938 572.0469,32.3438 Q570.8594,33.3438 569.0313,33.3438 Q568.3281,33.3438 567.6641,33.1719 Q567,33 566.3594,32.6563 Z "/><text fill="#000000" font-size="12" font-style="italic" lengthAdjust="spacingAndGlyphs" textLength="75" x="586.75" y="25">&lt;&lt; Facade &gt;&gt;</text><text fill="#000000" font-size="12" lengthAdjust="spacingAndGlyphs" textLength="36" x="606.25" y="40.0938">Kampf</text><line style="stroke: #A80036; stroke-width: 1.5;" x1="437" x2="779" y1="48.1875" y2="48.1875"/><rect fill="none" height="6" style="stroke: #C82930; stroke-width: 1.0;" width="6" x="444" y="57.6055"/><text fill="#000000" font-size="11" lengthAdjust="spacingAndGlyphs" textLength="197" x="456" y="63.1875">AbstractRenderWindow windowContext</text><rect fill="none" height="6" style="stroke: #C82930; stroke-width: 1.0;" width="6" x="444" y="71.4414"/><text fill="#000000" font-size="11" lengthAdjust="spacingAndGlyphs" textLength="197" x="456" y="77.0234">std::vector&lt;AbstractSystem&gt; systemList</text><rect fill="none" height="6" style="stroke: #C82930; stroke-width: 1.0;" width="6" x="444" y="85.2773"/><text fill="#000000" font-size="11" lengthAdjust="spacingAndGlyphs" textLength="210" x="456" y="90.8594">std::vector&lt;AbstractManager&gt; managerList</text><rect fill="none" height="6" style="stroke: #C82930; stroke-width: 1.0;" width="6" x="444" y="99.1133"/><text fill="#000000" font-size="11" lengthAdjust="spacingAndGlyphs" textLength="111" x="456" y="104.6953">Messenger messenger</text><line style="stroke: #A80036; stroke-width: 1.0;" x1="437" x2="779" y1="111.5313" y2="111.5313"/><line style="stroke: #A80036; stroke-width: 1.0;" x1="437" x2="779" y1="113.5313" y2="113.5313"/><ellipse cx="447" cy="141.7852" fill="#84BE84" rx="3" ry="3" style="stroke: #038048; stroke-width: 1.0;"/><text fill="#000000" font-size="11" lengthAdjust="spacingAndGlyphs" textLength="62" x="456" y="144.3672">void Kampf()</text><ellipse cx="447" cy="155.6211" fill="#84BE84" rx="3" ry="3" style="stroke: #038048; stroke-width: 1.0;"/><text fill="#000000" font-size="11" lengthAdjust="spacingAndGlyphs" textLength="178" x="456" y="158.2031">void runMainLoop(bContinuous=true)</text><line style="stroke: #A80036; stroke-width: 1.0; stroke-dasharray: 1.0,2.0;" x1="436" x2="578" y1="126.4492" y2="126.4492"/><text fill="#000000" font-size="11" lengthAdjust="spacingAndGlyphs" textLength="56" x="580" y="130.0313">constructor</text><line style="stroke: #A80036; stroke-width: 1.0; stroke-dasharray: 1.0,2.0;" x1="637" x2="779" y1="126.4492" y2="126.4492"/><ellipse cx="447" cy="187.293" fill="#84BE84" rx="3" ry="3" style="stroke: #038048; stroke-width: 1.0;"/><text fill="#000000" font-size="11" lengthAdjust="spacingAndGlyphs" textLength="294" x="456" y="189.875">AbstractSystem getSystem(enum SystemType enumSystem)</text><ellipse cx="447" cy="201.1289" fill="#84BE84" rx="3" ry="3" style="stroke: #038048; stroke-width: 1.0;"/><text fill="#000000" font-size="11" lengthAdjust="spacingAndGlyphs" textLength="318" x="456" y="203.7109">AbstractManager getManager(enum ManagerType enumManager)</text><ellipse cx="447" cy="214.9648" fill="#84BE84" rx="3" ry="3" style="stroke: #038048; stroke-width: 1.0;"/><text fill="#000000" font-size="11" lengthAdjust="spacingAndGlyphs" textLength="134" x="456" y="217.5469">Messenger getMessenger()</text><ellipse cx="447" cy="228.8008" fill="#84BE84" rx="3" ry="3" style="stroke: #038048; stroke-width: 1.0;"/><text fill="#000000" font-size="11" lengthAdjust="spacingAndGlyphs" textLength="158" x="456" y="231.3828">JobScheduler getJobScheduler()</text><ellipse cx="447" cy="242.6367" fill="#84BE84" rx="3" ry="3" style="stroke: #038048; stroke-width: 1.0;"/><text fill="#000000" font-size="11" lengthAdjust="spacingAndGlyphs" textLength="218" x="456" y="245.2188">AbstractRenderWindow getRenderWindow()</text><line style="stroke: #A80036; stroke-width: 1.0;" x1="436" x2="589" y1="171.957" y2="171.957"/><text fill="#000000" font-size="11" lengthAdjust="spacingAndGlyphs" textLength="34" x="591" y="175.5391">getters</text><line style="stroke: #A80036; stroke-width: 1.0;" x1="626" x2="779" y1="171.957" y2="171.957"/><rect fill="#FEFECE" filter="url(#f1)" height="89.5078" style="stroke: #A80036; stroke-width: 1.5;" width="230" x="6" y="351"/><ellipse cx="52.25" cy="367" fill="#A9DCDF" rx="11" ry="11" style="stroke: #A80036; stroke-width: 1.0;"/><path d="M54.4375,368.7656 L50.2969,368.7656 L49.875,369.7969 L50.2969,369.7969 Q50.9063,369.7969 51.1719,370.0313 Q51.4375,370.2656 51.4375,370.6563 Q51.4375,371.0313 51.1719,371.2656 Q50.9063,371.5 50.2969,371.5 L48,371.5 Q47.3906,371.5 47.1328,371.2656 Q46.875,371.0313 46.875,370.6406 Q46.875,370.2656 47.1484,370.0234 Q47.4219,369.7813 48.0469,369.7969 L50.7188,363.1406 L49.6094,363.1406 Q49,363.1406 48.7344,362.9063 Q48.4688,362.6719 48.4688,362.2813 Q48.4688,361.9063 48.7344,361.6719 Q49,361.4375 49.6094,361.4375 L53.2813,361.4375 L56.6719,369.7969 Q57.2656,369.7969 57.4531,369.9375 Q57.8438,370.2031 57.8438,370.6563 Q57.8438,371.0313 57.5859,371.2656 Q57.3281,371.5 56.7188,371.5 L54.4219,371.5 Q53.8125,371.5 53.5469,371.2656 Q53.2813,371.0313 53.2813,370.6406 Q53.2813,370.2656 53.5469,370.0313 Q53.8125,369.7969 54.4219,369.7969 L54.8438,369.7969 L54.4375,368.7656 Z M53.7188,367.0625 L52.3594,363.6875 L50.9844,367.0625 L53.7188,367.0625 Z "/><text fill="#000000" font-size="12" font-style="italic" lengthAdjust="spacingAndGlyphs" textLength="129" x="72.75" y="371.4531">AbstractRenderWindow</text><line style="stroke: #A80036; stroke-width: 1.5;" x1="7" x2="235" y1="383" y2="383"/><rect fill="none" height="6" style="stroke: #C82930; stroke-width: 1.0;" width="6" x="14" y="392.418"/><text fill="#000000" font-size="11" lengthAdjust="spacingAndGlyphs" textLength="111" x="26" y="398">int windowWidth = 800</text><rect fill="none" height="6" style="stroke: #C82930; stroke-width: 1.0;" width="6" x="14" y="406.2539"/><text fill="#000000" font-size="11" lengthAdjust="spacingAndGlyphs" textLength="114" x="26" y="411.8359">int windowHeight = 600</text><line style="stroke: #A80036; stroke-width: 1.0;" x1="7" x2="235" y1="418.6719" y2="418.6719"/><line style="stroke: #A80036; stroke-width: 1.0;" x1="7" x2="235" y1="420.6719" y2="420.6719"/><ellipse cx="17" cy="431.0898" fill="#84BE84" rx="3" ry="3" style="stroke: #038048; stroke-width: 1.0;"/><text fill="#000000" font-size="11" lengthAdjust="spacingAndGlyphs" textLength="204" x="26" y="433.6719">virtual draw(AbstractDrawable drawable)</text><rect fill="#FEFECE" filter="url(#f1)" height="89.5078" style="stroke: #A80036; stroke-width: 1.5;" width="198" x="22" y="85"/><ellipse cx="59.5" cy="101" fill="#ADD1B2" rx="11" ry="11" style="stroke: #A80036; stroke-width: 1.0;"/><path d="M62.2656,96.875 Q62.4219,96.6563 62.6094,96.5469 Q62.7969,96.4375 63.0156,96.4375 Q63.3906,96.4375 63.625,96.6953 Q63.8594,96.9531 63.8594,97.5625 L63.8594,99.0156 Q63.8594,99.625 63.625,99.8906 Q63.3906,100.1563 63.0156,100.1563 Q62.6719,100.1563 62.4688,99.9531 Q62.2656,99.7656 62.1563,99.25 Q62.1094,98.8906 61.9219,98.7031 Q61.5938,98.3281 60.9844,98.1094 Q60.375,97.8906 59.75,97.8906 Q58.9844,97.8906 58.3516,98.2188 Q57.7188,98.5469 57.2266,99.2969 Q56.7344,100.0469 56.7344,101.0781 L56.7344,102.1719 Q56.7344,103.4063 57.625,104.2266 Q58.5156,105.0469 60.1094,105.0469 Q61.0469,105.0469 61.7031,104.7969 Q62.0938,104.6406 62.5156,104.2031 Q62.7813,103.9375 62.9297,103.8594 Q63.0781,103.7813 63.2813,103.7813 Q63.6094,103.7813 63.8672,104.0391 Q64.125,104.2969 64.125,104.6406 Q64.125,104.9844 63.7813,105.3906 Q63.2813,105.9688 62.4844,106.2969 Q61.4063,106.75 60.1094,106.75 Q58.5938,106.75 57.3906,106.125 Q56.4063,105.625 55.7188,104.5547 Q55.0313,103.4844 55.0313,102.2031 L55.0313,101.0469 Q55.0313,99.7188 55.6484,98.5703 Q56.2656,97.4219 57.3594,96.8047 Q58.4531,96.1875 59.6875,96.1875 Q60.4219,96.1875 61.0703,96.3516 Q61.7188,96.5156 62.2656,96.875 Z "/><text fill="#000000" font-size="12" lengthAdjust="spacingAndGlyphs" textLength="116" x="78.5" y="105.4531">SFMLRenderWindow</text><line style="stroke: #A80036; stroke-width: 1.5;" x1="23" x2="219" y1="117" y2="117"/><rect fill="none" height="6" style="stroke: #C82930; stroke-width: 1.0;" width="6" x="30" y="126.418"/><text fill="#000000" font-size="11" lengthAdjust="spacingAndGlyphs" textLength="111" x="42" y="132">int windowWidth = 800</text><rect fill="none" height="6" style="stroke: #C82930; stroke-width: 1.0;" width="6" x="30" y="140.2539"/><text fill="#000000" font-size="11" lengthAdjust="spacingAndGlyphs" textLength="114" x="42" y="145.8359">int windowHeight = 600</text><line style="stroke: #A80036; stroke-width: 1.0;" x1="23" x2="219" y1="152.6719" y2="152.6719"/><line style="stroke: #A80036; stroke-width: 1.0;" x1="23" x2="219" y1="154.6719" y2="154.6719"/><ellipse cx="33" cy="165.0898" fill="#84BE84" rx="3" ry="3" style="stroke: #038048; stroke-width: 1.0;"/><text fill="#000000" font-size="11" lengthAdjust="spacingAndGlyphs" textLength="172" x="42" y="167.6719">draw(AbstractDrawable drawable)</text><rect fill="#FEFECE" filter="url(#f1)" height="158.6875" style="stroke: #A80036; stroke-width: 1.5;" width="284" x="271" y="316.5"/><ellipse cx="377.75" cy="332.5" fill="#ADD1B2" rx="11" ry="11" style="stroke: #A80036; stroke-width: 1.0;"/><path d="M380.5156,328.375 Q380.6719,328.1563 380.8594,328.0469 Q381.0469,327.9375 381.2656,327.9375 Q381.6406,327.9375 381.875,328.1953 Q382.1094,328.4531 382.1094,329.0625 L382.1094,330.5156 Q382.1094,331.125 381.875,331.3906 Q381.6406,331.6563 381.2656,331.6563 Q380.9219,331.6563 380.7188,331.4531 Q380.5156,331.2656 380.4063,330.75 Q380.3594,330.3906 380.1719,330.2031 Q379.8438,329.8281 379.2344,329.6094 Q378.625,329.3906 378,329.3906 Q377.2344,329.3906 376.6016,329.7188 Q375.9688,330.0469 375.4766,330.7969 Q374.9844,331.5469 374.9844,332.5781 L374.9844,333.6719 Q374.9844,334.9063 375.875,335.7266 Q376.7656,336.5469 378.3594,336.5469 Q379.2969,336.5469 379.9531,336.2969 Q380.3438,336.1406 380.7656,335.7031 Q381.0313,335.4375 381.1797,335.3594 Q381.3281,335.2813 381.5313,335.2813 Q381.8594,335.2813 382.1172,335.5391 Q382.375,335.7969 382.375,336.1406 Q382.375,336.4844 382.0313,336.8906 Q381.5313,337.4688 380.7344,337.7969 Q379.6563,338.25 378.3594,338.25 Q376.8438,338.25 375.6406,337.625 Q374.6563,337.125 373.9688,336.0547 Q373.2813,334.9844 373.2813,333.7031 L373.2813,332.5469 Q373.2813,331.2188 373.8984,330.0703 Q374.5156,328.9219 375.6094,328.3047 Q376.7031,327.6875 377.9375,327.6875 Q378.6719,327.6875 379.3203,327.8516 Q379.9688,328.0156 380.5156,328.375 Z "/><text fill="#000000" font-size="12" lengthAdjust="spacingAndGlyphs" textLength="62" x="398.25" y="336.9531">Messenger</text><line style="stroke: #A80036; stroke-width: 1.5;" x1="272" x2="554" y1="348.5" y2="348.5"/><rect fill="none" height="6" style="stroke: #C82930; stroke-width: 1.0;" width="6" x="279" y="357.918"/><text fill="#000000" font-size="11" lengthAdjust="spacingAndGlyphs" textLength="148" x="291" y="363.5">list&lt;Message&gt; MessageQueue</text><line style="stroke: #A80036; stroke-width: 1.0;" x1="272" x2="554" y1="370.3359" y2="370.3359"/><line style="stroke: #A80036; stroke-width: 1.0;" x1="272" x2="554" y1="372.3359" y2="372.3359"/><ellipse cx="282" cy="382.7539" fill="#84BE84" rx="3" ry="3" style="stroke: #038048; stroke-width: 1.0;"/><text fill="#000000" font-size="11" lengthAdjust="spacingAndGlyphs" textLength="62" x="291" y="385.3359">Messenger()</text><ellipse cx="282" cy="396.5898" fill="#84BE84" rx="3" ry="3" style="stroke: #038048; stroke-width: 1.0;"/><text fill="#000000" font-size="11" lengthAdjust="spacingAndGlyphs" textLength="179" x="291" y="399.1719">appendMessage(Message message)</text><ellipse cx="282" cy="410.4258" fill="#84BE84" rx="3" ry="3" style="stroke: #038048; stroke-width: 1.0;"/><text fill="#000000" font-size="11" lengthAdjust="spacingAndGlyphs" textLength="258" x="291" y="413.0078">list&lt;Message&gt; retrieveMessages(Message message)</text><ellipse cx="282" cy="424.2617" fill="#84BE84" rx="3" ry="3" style="stroke: #038048; stroke-width: 1.0;"/><text fill="#000000" font-size="11" lengthAdjust="spacingAndGlyphs" textLength="250" x="291" y="426.8438">void insertMessage(int position, Message message)</text><ellipse cx="282" cy="438.0977" fill="#84BE84" rx="3" ry="3" style="stroke: #038048; stroke-width: 1.0;"/><text fill="#000000" font-size="11" lengthAdjust="spacingAndGlyphs" textLength="117" x="291" y="440.6797">Message popMessage()</text><ellipse cx="282" cy="451.9336" fill="#84BE84" rx="3" ry="3" style="stroke: #038048; stroke-width: 1.0;"/><text fill="#000000" font-size="11" lengthAdjust="spacingAndGlyphs" textLength="195" x="291" y="454.5156">Message deleteMessage(int messageID)</text><ellipse cx="282" cy="465.7695" fill="#84BE84" rx="3" ry="3" style="stroke: #038048; stroke-width: 1.0;"/><text fill="#000000" font-size="11" lengthAdjust="spacingAndGlyphs" textLength="184" x="291" y="468.3516">Message hasMessage(int messageID)</text><rect fill="#FEFECE" filter="url(#f1)" height="61.8359" style="stroke: #A80036; stroke-width: 1.5;" width="93" x="342.75" y="731"/><ellipse cx="362.25" cy="747" fill="#ADD1B2" rx="11" ry="11" style="stroke: #A80036; stroke-width: 1.0;"/><path d="M365.0156,742.875 Q365.1719,742.6563 365.3594,742.5469 Q365.5469,742.4375 365.7656,742.4375 Q366.1406,742.4375 366.375,742.6953 Q366.6094,742.9531 366.6094,743.5625 L366.6094,745.0156 Q366.6094,745.625 366.375,745.8906 Q366.1406,746.1563 365.7656,746.1563 Q365.4219,746.1563 365.2188,745.9531 Q365.0156,745.7656 364.9063,745.25 Q364.8594,744.8906 364.6719,744.7031 Q364.3438,744.3281 363.7344,744.1094 Q363.125,743.8906 362.5,743.8906 Q361.7344,743.8906 361.1016,744.2188 Q360.4688,744.5469 359.9766,745.2969 Q359.4844,746.0469 359.4844,747.0781 L359.4844,748.1719 Q359.4844,749.4063 360.375,750.2266 Q361.2656,751.0469 362.8594,751.0469 Q363.7969,751.0469 364.4531,750.7969 Q364.8438,750.6406 365.2656,750.2031 Q365.5313,749.9375 365.6797,749.8594 Q365.8281,749.7813 366.0313,749.7813 Q366.3594,749.7813 366.6172,750.0391 Q366.875,750.2969 366.875,750.6406 Q366.875,750.9844 366.5313,751.3906 Q366.0313,751.9688 365.2344,752.2969 Q364.1563,752.75 362.8594,752.75 Q361.3438,752.75 360.1406,752.125 Q359.1563,751.625 358.4688,750.5547 Q357.7813,749.4844 357.7813,748.2031 L357.7813,747.0469 Q357.7813,745.7188 358.3984,744.5703 Q359.0156,743.4219 360.1094,742.8047 Q361.2031,742.1875 362.4375,742.1875 Q363.1719,742.1875 363.8203,742.3516 Q364.4688,742.5156 365.0156,742.875 Z "/><text fill="#000000" font-size="12" lengthAdjust="spacingAndGlyphs" textLength="51" x="377.25" y="751.4531">Message</text><line style="stroke: #A80036; stroke-width: 1.5;" x1="343.75" x2="434.75" y1="763" y2="763"/><rect fill="none" height="6" style="stroke: #C82930; stroke-width: 1.0;" width="6" x="350.75" y="772.418"/><text fill="#000000" font-size="11" lengthAdjust="spacingAndGlyphs" textLength="67" x="362.75" y="778">int messageID</text><line style="stroke: #A80036; stroke-width: 1.5;" x1="343.75" x2="434.75" y1="784.8359" y2="784.8359"/><rect fill="#FEFECE" filter="url(#f1)" height="131.0156" style="stroke: #A80036; stroke-width: 1.5;" width="164" x="1128" y="330.5"/><ellipse cx="1168.2" cy="346.5" fill="#ADD1B2" rx="11" ry="11" style="stroke: #A80036; stroke-width: 1.0;"/><path d="M1170.9656,342.375 Q1171.1219,342.1563 1171.3094,342.0469 Q1171.4969,341.9375 1171.7156,341.9375 Q1172.0906,341.9375 1172.325,342.1953 Q1172.5594,342.4531 1172.5594,343.0625 L1172.5594,344.5156 Q1172.5594,345.125 1172.325,345.3906 Q1172.0906,345.6563 1171.7156,345.6563 Q1171.3719,345.6563 1171.1688,345.4531 Q1170.9656,345.2656 1170.8563,344.75 Q1170.8094,344.3906 1170.6219,344.2031 Q1170.2938,343.8281 1169.6844,343.6094 Q1169.075,343.3906 1168.45,343.3906 Q1167.6844,343.3906 1167.0516,343.7188 Q1166.4188,344.0469 1165.9266,344.7969 Q1165.4344,345.5469 1165.4344,346.5781 L1165.4344,347.6719 Q1165.4344,348.9063 1166.325,349.7266 Q1167.2156,350.5469 1168.8094,350.5469 Q1169.7469,350.5469 1170.4031,350.2969 Q1170.7938,350.1406 1171.2156,349.7031 Q1171.4813,349.4375 1171.6297,349.3594 Q1171.7781,349.2813 1171.9813,349.2813 Q1172.3094,349.2813 1172.5672,349.5391 Q1172.825,349.7969 1172.825,350.1406 Q1172.825,350.4844 1172.4813,350.8906 Q1171.9813,351.4688 1171.1844,351.7969 Q1170.1063,352.25 1168.8094,352.25 Q1167.2938,352.25 1166.0906,351.625 Q1165.1063,351.125 1164.4188,350.0547 Q1163.7313,348.9844 1163.7313,347.7031 L1163.7313,346.5469 Q1163.7313,345.2188 1164.3484,344.0703 Q1164.9656,342.9219 1166.0594,342.3047 Q1167.1531,341.6875 1168.3875,341.6875 Q1169.1219,341.6875 1169.7703,341.8516 Q1170.4188,342.0156 1170.9656,342.375 Z "/><text fill="#000000" font-size="12" lengthAdjust="spacingAndGlyphs" textLength="76" x="1187.8" y="350.9531">JobScheduler</text><line style="stroke: #A80036; stroke-width: 1.5;" x1="1129" x2="1291" y1="362.5" y2="362.5"/><rect fill="none" height="6" style="stroke: #C82930; stroke-width: 1.0;" width="6" x="1136" y="371.918"/><text fill="#000000" font-size="11" lengthAdjust="spacingAndGlyphs" textLength="113" x="1148" y="377.5">Queue&lt;Job&gt; JobQueue</text><rect fill="none" height="6" style="stroke: #C82930; stroke-width: 1.0;" width="6" x="1136" y="385.7539"/><text fill="#000000" font-size="11" lengthAdjust="spacingAndGlyphs" textLength="138" x="1148" y="391.3359">list&lt;WorkerThread&gt; workers</text><line style="stroke: #A80036; stroke-width: 1.0;" x1="1129" x2="1291" y1="398.1719" y2="398.1719"/><line style="stroke: #A80036; stroke-width: 1.0;" x1="1129" x2="1291" y1="400.1719" y2="400.1719"/><ellipse cx="1139" cy="410.5898" fill="#84BE84" rx="3" ry="3" style="stroke: #038048; stroke-width: 1.0;"/><text fill="#000000" font-size="11" lengthAdjust="spacingAndGlyphs" textLength="74" x="1148" y="413.1719">createWorker()</text><ellipse cx="1139" cy="424.4258" fill="#84BE84" rx="3" ry="3" style="stroke: #038048; stroke-width: 1.0;"/><text fill="#000000" font-size="11" lengthAdjust="spacingAndGlyphs" textLength="83" x="1148" y="427.0078">pushJob(Job job)</text><ellipse cx="1139" cy="438.2617" fill="#84BE84" rx="3" ry="3" style="stroke: #038048; stroke-width: 1.0;"/><text fill="#000000" font-size="11" lengthAdjust="spacingAndGlyphs" textLength="80" x="1148" y="440.8438">processQueue()</text><ellipse cx="1139" cy="452.0977" fill="#84BE84" rx="3" ry="3" style="stroke: #038048; stroke-width: 1.0;"/><text fill="#000000" font-size="11" lengthAdjust="spacingAndGlyphs" textLength="73" x="1148" y="454.6797">syncWorkers()</text><rect fill="#FEFECE" filter="url(#f1)" height="75.6719" style="stroke: #A80036; stroke-width: 1.5;" width="111" x="1154.75" y="724"/><ellipse cx="1196.3" cy="740" fill="#ADD1B2" rx="11" ry="11" style="stroke: #A80036; stroke-width: 1.0;"/><path d="M1199.0656,735.875 Q1199.2219,735.6563 1199.4094,735.5469 Q1199.5969,735.4375 1199.8156,735.4375 Q1200.1906,735.4375 1200.425,735.6953 Q1200.6594,735.9531 1200.6594,736.5625 L1200.6594,738.0156 Q1200.6594,738.625 1200.425,738.8906 Q1200.1906,739.1563 1199.8156,739.1563 Q1199.4719,739.1563 1199.2688,738.9531 Q1199.0656,738.7656 1198.9563,738.25 Q1198.9094,737.8906 1198.7219,737.7031 Q1198.3938,737.3281 1197.7844,737.1094 Q1197.175,736.8906 1196.55,736.8906 Q1195.7844,736.8906 1195.1516,737.2188 Q1194.5188,737.5469 1194.0266,738.2969 Q1193.5344,739.0469 1193.5344,740.0781 L1193.5344,741.1719 Q1193.5344,742.4063 1194.425,743.2266 Q1195.3156,744.0469 1196.9094,744.0469 Q1197.8469,744.0469 1198.5031,743.7969 Q1198.8938,743.6406 1199.3156,743.2031 Q1199.5813,742.9375 1199.7297,742.8594 Q1199.8781,742.7813 1200.0813,742.7813 Q1200.4094,742.7813 1200.6672,743.0391 Q1200.925,743.2969 1200.925,743.6406 Q1200.925,743.9844 1200.5813,744.3906 Q1200.0813,744.9688 1199.2844,745.2969 Q1198.2063,745.75 1196.9094,745.75 Q1195.3938,745.75 1194.1906,745.125 Q1193.2063,744.625 1192.5188,743.5547 Q1191.8313,742.4844 1191.8313,741.2031 L1191.8313,740.0469 Q1191.8313,738.7188 1192.4484,737.5703 Q1193.0656,736.4219 1194.1594,735.8047 Q1195.2531,735.1875 1196.4875,735.1875 Q1197.2219,735.1875 1197.8703,735.3516 Q1198.5188,735.5156 1199.0656,735.875 Z "/><text fill="#000000" font-size="12" lengthAdjust="spacingAndGlyphs" textLength="20" x="1216.2" y="744.4531">Job</text><line style="stroke: #A80036; stroke-width: 1.5;" x1="1155.75" x2="1264.75" y1="756" y2="756"/><rect fill="none" height="6" style="stroke: #C82930; stroke-width: 1.0;" width="6" x="1162.75" y="765.418"/><text fill="#000000" font-size="11" lengthAdjust="spacingAndGlyphs" textLength="85" x="1174.75" y="771">std::function func</text><rect fill="none" height="6" style="stroke: #C82930; stroke-width: 1.0;" width="6" x="1162.75" y="779.2539"/><text fill="#000000" font-size="11" lengthAdjust="spacingAndGlyphs" textLength="82" x="1174.75" y="784.8359">*void parameters</text><line style="stroke: #A80036; stroke-width: 1.5;" x1="1155.75" x2="1264.75" y1="791.6719" y2="791.6719"/><path d="M121,175.19 C121,222.21 121,296.43 121,345.42 " fill="none" style="stroke: #A80036; stroke-width: 1.0;"/><polygon fill="#A80036" points="121,350.67,125,341.67,121,345.67,117,341.67,121,350.67" style="stroke: #A80036; stroke-width: 1.0;"/><path d="M1435,427.1 C1435,493.36 1435,651.68 1435,723.92 " fill="none" style="stroke: #A80036; stroke-width: 1.0;"/><path d="M1612.83,396 C1596.32,396 1579.81,396 1563.3,396 " fill="none" style="stroke: #A80036; stroke-width: 1.0;"/><polygon fill="none" points="1563.16,403,1543.16,396,1563.16,389,1563.16,403" style="stroke: #A80036; stroke-width: 1.0;"/><path d="M2392.23,1699.354 C2397.3,1722.108 2402.7,1746.342 2407.24,1766.717 " fill="none" style="stroke: #A80036; stroke-width: 1.0;"/><polygon fill="none" points="2389.38,1686.535,2386.7793,1693.2608,2391.9875,1698.2483,2394.5882,1691.5225,2389.38,1686.535" style="stroke: #A80036; stroke-width: 1.0;"/><text fill="#000000" font-size="13" lengthAdjust="spacingAndGlyphs" textLength="21" x="2401" y="1731.5">one</text><polygon fill="#000000" points="2407,1740.8516,2410,1746.8516,2413,1740.8516,2407,1740.8516" style="stroke: #000000; stroke-width: 1.0;"/><path d="M2329.86,1686.535 C2310.47,1714.259 2288.3,1745.952 2270.83,1770.922 " fill="none" style="stroke: #A80036; stroke-width: 1.0;"/><path d="M2005.21,1621 C2025.53,1621 2045.52,1621 2063.46,1621 " fill="none" style="stroke: #A80036; stroke-width: 1.0;"/><polygon fill="none" points="1992.17,1621,1998.17,1625,2004.17,1621,1998.17,1617,1992.17,1621" style="stroke: #A80036; stroke-width: 1.0;"/><text fill="#000000" font-size="13" lengthAdjust="spacingAndGlyphs" textLength="21" x="2010.25" y="1613">one</text><polygon fill="#000000" points="2034.25,1606.6758,2040.25,1609.6758,2034.25,1612.6758,2034.25,1606.6758" style="stroke: #000000; stroke-width: 1.0;"/><path d="M2274.98,1478.8 C2294.63,1506.541 2313.37,1532.992 2329.2,1555.343 " fill="none" style="stroke: #A80036; stroke-width: 1.0;"/><polygon fill="none" points="2267.41,1468.11,2267.6121,1475.3183,2274.3436,1477.9041,2274.1415,1470.6958,2267.41,1468.11" style="stroke: #A80036; stroke-width: 1.0;"/><path d="M1957.22,1478.657 C1932.06,1512.462 1908.31,1544.358 1889.77,1569.265 " fill="none" style="stroke: #A80036; stroke-width: 1.0;"/><polygon fill="none" points="1965.07,1468.11,1958.2787,1470.5345,1957.9046,1477.7359,1964.696,1475.3114,1965.07,1468.11" style="stroke: #A80036; stroke-width: 1.0;"/><path d="M1245.6,1234.875 C1246.16,1176.079 1257.2,1027.262 1352.5,987 C1402.24,965.984 1788.44,966.764 1838.5,987 C1869.31,999.454 1898.62,1017.075 1925.88,1037.435 " fill="none" style="stroke: #A80036; stroke-width: 1.0;"/><polygon fill="none" points="1930.2,1031.922,1941.69,1049.721,1921.61,1042.976,1930.2,1031.922" style="stroke: #A80036; stroke-width: 1.0;"/><path d="M1078.49,1234.804 C1076.33,1175.846 1080.56,1026.689 1174.5,987 C1208.48,972.644 1804.3,973.176 1838.5,987 C1869.31,999.454 1898.62,1017.075 1925.88,1037.435 " fill="none" style="stroke: #A80036; stroke-width: 1.0;"/><polygon fill="none" points="1930.2,1031.922,1941.69,1049.721,1921.61,1042.976,1930.2,1031.922" style="stroke: #A80036; stroke-width: 1.0;"/><path d="M1838.13,1259 C1854.56,1259 1871,1259 1887.44,1259 " fill="none" style="stroke: #A80036; stroke-width: 1.0;"/><polygon fill="none" points="1887.49,1252,1907.49,1259,1887.49,1266,1887.49,1252" style="stroke: #A80036; stroke-width: 1.0;"/><path d="M1589.69,1234.881 C1590.47,1176.1 1602.08,1027.313 1697.5,987 C1755.23,962.611 1780.4,963.516 1838.5,987 C1869.31,999.454 1898.62,1017.075 1925.88,1037.435 " fill="none" style="stroke: #A80036; stroke-width: 1.0;"/><polygon fill="none" points="1930.2,1031.922,1941.69,1049.721,1921.61,1042.976,1930.2,1031.922" style="stroke: #A80036; stroke-width: 1.0;"/><path d="M1415.95,1234.833 C1414.93,1175.94 1422.01,1026.921 1516.5,987 C1549.46,973.076 1805.33,973.593 1838.5,987 C1869.31,999.454 1898.62,1017.075 1925.88,1037.435 " fill="none" style="stroke: #A80036; stroke-width: 1.0;"/><polygon fill="none" points="1930.2,1031.922,1941.69,1049.721,1921.61,1042.976,1930.2,1031.922" style="stroke: #A80036; stroke-width: 1.0;"/><path d="M866.719,420.05 C850.287,472.06 809.701,600.52 783.307,684.06 " fill="none" style="stroke: #A80036; stroke-width: 1.0;"/><polygon fill="none" points="789.952,686.27,777.252,703.23,776.603,682.05,789.952,686.27" style="stroke: #A80036; stroke-width: 1.0;"/><path d="M721.533,420.05 C727.23,471.89 741.276,599.71 750.458,683.27 " fill="none" style="stroke: #A80036; stroke-width: 1.0;"/><polygon fill="none" points="757.425,682.58,752.651,703.23,743.509,684.11,757.425,682.58" style="stroke: #A80036; stroke-width: 1.0;"/><path d="M1014.72,420.05 C975.212,472.72 876.912,603.78 814.339,687.21 " fill="none" style="stroke: #A80036; stroke-width: 1.0;"/><polygon fill="none" points="819.929,691.43,802.329,703.23,808.729,683.03,819.929,691.43" style="stroke: #A80036; stroke-width: 1.0;"/><path d="M423.951,204.53 C367.659,229.63 306.513,259.62 253,292 C224.65,309.16 195.373,331.46 171.617,350.92 " fill="none" style="stroke: #A80036; stroke-width: 1.0;"/><polygon fill="none" points="435.885,199.25,428.7795,198.0203,424.9116,204.1063,432.017,205.336,435.885,199.25" style="stroke: #A80036; stroke-width: 1.0;"/><path d="M612.717,265.32 C617.232,329.78 626.004,407.68 643,476 C663.344,557.78 702.663,646.99 729.846,703.42 " fill="none" style="stroke: #A80036; stroke-width: 1.0;"/><polygon fill="none" points="611.843,252.19,608.2542,258.4446,612.6474,264.163,616.2362,257.9084,611.843,252.19" style="stroke: #A80036; stroke-width: 1.0;"/><path d="M793.371,150.07 C939.362,170.52 1144.91,211.61 1309,292 C1346.3,310.27 1382.31,341.52 1406.21,364.82 " fill="none" style="stroke: #A80036; stroke-width: 1.0;"/><polygon fill="none" points="780.318,148.27,785.7173,153.0499,792.2062,149.9043,786.8069,145.1244,780.318,148.27" style="stroke: #A80036; stroke-width: 1.0;"/><path d="M1799.83,463.7 C1835.18,496.53 1879.69,537.86 1924.19,579.18 " fill="none" style="stroke: #A80036; stroke-width: 1.0;"/><polygon fill="#A80036" points="1790.11,454.68,1791.7813,461.6947,1798.8993,462.85,1797.228,455.8352,1790.11,454.68" style="stroke: #A80036; stroke-width: 1.0;"/><path d="M2120,957.825 C2120,987.995 2120,1019.259 2120,1049.712 " fill="none" style="stroke: #A80036; stroke-width: 1.0;"/><polygon fill="none" points="2120,944.509,2116,950.509,2120,956.509,2124,950.509,2120,944.509" style="stroke: #A80036; stroke-width: 1.0;"/><text fill="#000000" font-size="13" lengthAdjust="spacingAndGlyphs" textLength="32" x="2121" y="991.5">many</text><polygon fill="#000000" points="2132.5,1000.8516,2135.5,1006.8516,2138.5,1000.8516,2132.5,1000.8516" style="stroke: #000000; stroke-width: 1.0;"/><path d="M510.73,262.69 C497.151,281.07 483.567,299.46 471.03,316.44 " fill="none" style="stroke: #A80036; stroke-width: 1.0;"/><polygon fill="#A80036" points="518.49,252.18,511.7092,254.6337,511.3662,261.8367,518.147,259.3829,518.49,252.18" style="stroke: #A80036; stroke-width: 1.0;"/><path d="M406.936,488.97 C401.708,568.26 394.471,678.02 391.006,730.58 " fill="none" style="stroke: #A80036; stroke-width: 1.0;"/><polygon fill="none" points="407.822,475.53,403.4351,481.2532,407.0309,487.5039,411.4177,481.7807,407.822,475.53" style="stroke: #A80036; stroke-width: 1.0;"/><path d="M422.778,475.62 C427.371,493.17 434.112,511 444,526 C451.98,538.11 588.27,637.76 678.939,703.35 " fill="none" style="stroke: #A80036; stroke-width: 1.0; stroke-dasharray: 7.0,7.0;"/><text fill="#000000" font-size="13" lengthAdjust="spacingAndGlyphs" textLength="135" x="445" y="520.5">Kampf::getMessenger()</text><path d="M792.917,167.7 C891.693,192.74 1012.46,232.4 1109,292 C1125.84,302.39 1141.9,316.18 1156.06,330.28 " fill="none" style="stroke: #A80036; stroke-width: 1.0;"/><polygon fill="#A80036" points="780.059,164.49,784.9117,169.824,791.7018,167.3961,786.8491,162.0621,780.059,164.49" style="stroke: #A80036; stroke-width: 1.0;"/><path d="M1210,475.05 C1210,551.71 1210,665.4 1210,723.64 " fill="none" style="stroke: #A80036; stroke-width: 1.0;"/><polygon fill="none" points="1210,461.66,1206,467.66,1210,473.66,1214,467.66,1210,461.66" style="stroke: #A80036; stroke-width: 1.0;"/><path d="M1130.26,461.61 C1123.19,466.65 1116.04,471.52 1109,476 C1084.19,491.8 1074.36,489.51 1050,506 C962.243,565.39 872.143,648.42 815.909,703.4 " fill="none" style="stroke: #A80036; stroke-width: 1.0; stroke-dasharray: 7.0,7.0;"/><text fill="#000000" font-size="13" lengthAdjust="spacingAndGlyphs" textLength="149" x="1051" y="520.5">Kampf::getJobScheduler()</text></g></svg>