<?xml version="1.0" encoding="UTF-8" standalone="yes"?><svg xmlns="http://www.w3.org/2000/svg" xmlns:xlink="http://www.w3.org/1999/xlink" height="637pt" style="width:663px;height:637px;" version="1.1" viewBox="0 0 663 637" width="663pt"><defs><filter height="300%" id="f1" width="300%" x="-1" y="-1"><feGaussianBlur result="blurOut" stdDeviation="2.0"/><feColorMatrix in="blurOut" result="blurOut2" type="matrix" values="0 0 0 0 0 0 0 0 0 0 0 0 0 0 0 0 0 0 .4 0"/><feOffset dx="4.0" dy="4.0" in="blurOut2" result="blurOut3"/><feBlend in="SourceGraphic" in2="blurOut3" mode="normal"/></filter></defs><g><text fill="#000000" font-size="13" font-weight="bold" lengthAdjust="spacingAndGlyphs" textLength="161" x="251.5" y="20">Basic System Process</text><rect fill="#FFFFFF" filter="url(#f1)" height="411.7266" style="stroke: #000000; stroke-width: 2.0;" width="571" x="83.5" y="145.3984"/><rect fill="#FFFFFF" filter="url(#f1)" height="309.3281" style="stroke: #000000; stroke-width: 2.0;" width="520.5" x="93.5" y="198.6641"/><rect fill="#FFFFFF" filter="url(#f1)" height="46.2656" style="stroke: #000000; stroke-width: 2.0;" width="224.5" x="280.5" y="352.3281"/><rect fill="#FFFFFF" filter="url(#f1)" height="46.2656" style="stroke: #000000; stroke-width: 2.0;" width="323.5" x="280.5" y="454.7266"/><line style="stroke: #A80036; stroke-width: 1.0; stroke-dasharray: 5.0,5.0;" x1="28" x2="28" y1="86.2656" y2="574.125"/><line style="stroke: #A80036; stroke-width: 1.0; stroke-dasharray: 5.0,5.0;" x1="134.5" x2="134.5" y1="86.2656" y2="574.125"/><line style="stroke: #A80036; stroke-width: 1.0; stroke-dasharray: 5.0,5.0;" x1="259.5" x2="259.5" y1="86.2656" y2="574.125"/><line style="stroke: #A80036; stroke-width: 1.0; stroke-dasharray: 5.0,5.0;" x1="317.5" x2="317.5" y1="86.2656" y2="574.125"/><line style="stroke: #A80036; stroke-width: 1.0; stroke-dasharray: 5.0,5.0;" x1="457" x2="457" y1="86.2656" y2="574.125"/><line style="stroke: #A80036; stroke-width: 1.0; stroke-dasharray: 5.0,5.0;" x1="549" x2="549" y1="86.2656" y2="574.125"/><text fill="#000000" font-size="13" lengthAdjust="spacingAndGlyphs" textLength="41" x="5" y="84.1328">Kampf</text><ellipse cx="28.5" cy="55.1328" fill="#FEFECE" filter="url(#f1)" rx="12" ry="12" style="stroke: #A80036; stroke-width: 2.0;"/><polygon fill="#A80036" points="24.5,43.1328,30.5,38.1328,28.5,43.1328,30.5,48.1328,24.5,43.1328" style="stroke: #A80036; stroke-width: 1.0;"/><text fill="#000000" font-size="13" lengthAdjust="spacingAndGlyphs" textLength="41" x="5" y="586">Kampf</text><ellipse cx="28.5" cy="604.1328" fill="#FEFECE" filter="url(#f1)" rx="12" ry="12" style="stroke: #A80036; stroke-width: 2.0;"/><polygon fill="#A80036" points="24.5,592.1328,30.5,587.1328,28.5,592.1328,30.5,597.1328,24.5,592.1328" style="stroke: #A80036; stroke-width: 1.0;"/><text fill="#000000" font-size="13" lengthAdjust="spacingAndGlyphs" textLength="56" x="103.5" y="84.1328">Manager</text><path d="M116.5,39.1328 C116.5,29.1328 134.5,29.1328 134.5,29.1328 C134.5,29.1328 152.5,29.1328 152.5,39.1328 L152.5,61.1328 C152.5,71.1328 134.5,71.1328 134.5,71.1328 C134.5,71.1328 116.5,71.1328 116.5,61.1328 L116.5,39.1328 " fill="#FEFECE" filter="url(#f1)" style="stroke: #A80036; stroke-width: 1.5;"/><path d="M116.5,39.1328 C116.5,49.1328 134.5,49.1328 134.5,49.1328 C134.5,49.1328 152.5,49.1328 152.5,39.1328 " fill="none" style="stroke: #A80036; stroke-width: 1.5;"/><text fill="#000000" font-size="13" lengthAdjust="spacingAndGlyphs" textLength="56" x="103.5" y="586">Manager</text><path d="M116.5,598.1328 C116.5,588.1328 134.5,588.1328 134.5,588.1328 C134.5,588.1328 152.5,588.1328 152.5,598.1328 L152.5,620.1328 C152.5,630.1328 134.5,630.1328 134.5,630.1328 C134.5,630.1328 116.5,630.1328 116.5,620.1328 L116.5,598.1328 " fill="#FEFECE" filter="url(#f1)" style="stroke: #A80036; stroke-width: 1.5;"/><path d="M116.5,598.1328 C116.5,608.1328 134.5,608.1328 134.5,608.1328 C134.5,608.1328 152.5,608.1328 152.5,598.1328 " fill="none" style="stroke: #A80036; stroke-width: 1.5;"/><text fill="#000000" font-size="13" lengthAdjust="spacingAndGlyphs" textLength="36" x="238.5" y="84.1328">Entity</text><ellipse cx="259.5" cy="55.1328" fill="#FEFECE" filter="url(#f1)" rx="12" ry="12" style="stroke: #A80036; stroke-width: 2.0;"/><line style="stroke: #A80036; stroke-width: 2.0;" x1="247.5" x2="271.5" y1="69.1328" y2="69.1328"/><text fill="#000000" font-size="13" lengthAdjust="spacingAndGlyphs" textLength="36" x="238.5" y="586">Entity</text><ellipse cx="259.5" cy="604.1328" fill="#FEFECE" filter="url(#f1)" rx="12" ry="12" style="stroke: #A80036; stroke-width: 2.0;"/><line style="stroke: #A80036; stroke-width: 2.0;" x1="247.5" x2="271.5" y1="618.1328" y2="618.1328"/><text fill="#000000" font-size="13" lengthAdjust="spacingAndGlyphs" textLength="49" x="290.5" y="84.1328">System</text><ellipse cx="318" cy="55.1328" fill="#FEFECE" filter="url(#f1)" rx="12" ry="12" style="stroke: #A80036; stroke-width: 2.0;"/><polygon fill="#A80036" points="314,43.1328,320,38.1328,318,43.1328,320,48.1328,314,43.1328" style="stroke: #A80036; stroke-width: 1.0;"/><text fill="#000000" font-size="13" lengthAdjust="spacingAndGlyphs" textLength="49" x="290.5" y="586">System</text><ellipse cx="318" cy="604.1328" fill="#FEFECE" filter="url(#f1)" rx="12" ry="12" style="stroke: #A80036; stroke-width: 2.0;"/><polygon fill="#A80036" points="314,592.1328,320,587.1328,318,592.1328,320,597.1328,314,592.1328" style="stroke: #A80036; stroke-width: 1.0;"/><text fill="#000000" font-size="13" lengthAdjust="spacingAndGlyphs" textLength="70" x="419" y="84.1328">Messenger</text><path d="M439,39.1328 C439,29.1328 457,29.1328 457,29.1328 C457,29.1328 475,29.1328 475,39.1328 L475,61.1328 C475,71.1328 457,71.1328 457,71.1328 C457,71.1328 439,71.1328 439,61.1328 L439,39.1328 " fill="#FEFECE" filter="url(#f1)" style="stroke: #A80036; stroke-width: 1.5;"/><path d="M439,39.1328 C439,49.1328 457,49.1328 457,49.1328 C457,49.1328 475,49.1328 475,39.1328 " fill="none" style="stroke: #A80036; stroke-width: 1.5;"/><text fill="#000000" font-size="13" lengthAdjust="spacingAndGlyphs" textLength="70" x="419" y="586">Messenger</text><path d="M439,598.1328 C439,588.1328 457,588.1328 457,588.1328 C457,588.1328 475,588.1328 475,598.1328 L475,620.1328 C475,630.1328 457,630.1328 457,630.1328 C457,630.1328 439,630.1328 439,620.1328 L439,598.1328 " fill="#FEFECE" filter="url(#f1)" style="stroke: #A80036; stroke-width: 1.5;"/><path d="M439,598.1328 C439,608.1328 457,608.1328 457,608.1328 C457,608.1328 475,608.1328 475,598.1328 " fill="none" style="stroke: #A80036; stroke-width: 1.5;"/><text fill="#000000" font-size="13" lengthAdjust="spacingAndGlyphs" textLength="83" x="505" y="84.1328">JobScheduler</text><ellipse cx="549.5" cy="55.1328" fill="#FEFECE" filter="url(#f1)" rx="12" ry="12" style="stroke: #A80036; stroke-width: 2.0;"/><polygon fill="#A80036" points="545.5,43.1328,551.5,38.1328,549.5,43.1328,551.5,48.1328,545.5,43.1328" style="stroke: #A80036; stroke-width: 1.0;"/><text fill="#000000" font-size="13" lengthAdjust="spacingAndGlyphs" textLength="83" x="505" y="586">JobScheduler</text><ellipse cx="549.5" cy="604.1328" fill="#FEFECE" filter="url(#f1)" rx="12" ry="12" style="stroke: #A80036; stroke-width: 2.0;"/><polygon fill="#A80036" points="545.5,592.1328,551.5,587.1328,549.5,592.1328,551.5,597.1328,545.5,592.1328" style="stroke: #A80036; stroke-width: 1.0;"/><line style="stroke: #A80036; stroke-width: 1.0;" x1="28.5" x2="70.5" y1="117.3984" y2="117.3984"/><line style="stroke: #A80036; stroke-width: 1.0;" x1="70.5" x2="70.5" y1="117.3984" y2="130.3984"/><line style="stroke: #A80036; stroke-width: 1.0;" x1="28.5" x2="70.5" y1="130.3984" y2="130.3984"/><polygon fill="#A80036" points="38.5,126.3984,28.5,130.3984,38.5,134.3984,34.5,130.3984" style="stroke: #A80036; stroke-width: 1.0;"/><text fill="#000000" font-size="13" lengthAdjust="spacingAndGlyphs" textLength="92" x="35.5" y="113.2656">runMainLoop()</text><rect fill="none" height="411.7266" style="stroke: #000000; stroke-width: 2.0;" width="571" x="83.5" y="145.3984"/><polygon fill="#EEEEEE" points="83.5,145.3984,160.5,145.3984,160.5,152.3984,150.5,162.3984,83.5,162.3984,83.5,145.3984" style="stroke: #000000; stroke-width: 2.0;"/><text fill="#000000" font-size="13" font-weight="bold" lengthAdjust="spacingAndGlyphs" textLength="32" x="98.5" y="159.3984">loop</text><text fill="#000000" font-size="11" font-weight="bold" lengthAdjust="spacingAndGlyphs" textLength="103" x="175.5" y="158.3984">[list of systems]</text><polygon fill="#A80036" points="145.5,179.5313,135.5,183.5313,145.5,187.5313,141.5,183.5313" style="stroke: #A80036; stroke-width: 1.0;"/><line style="stroke: #A80036; stroke-width: 1.0;" x1="139.5" x2="317" y1="183.5313" y2="183.5313"/><text fill="#000000" font-size="13" lengthAdjust="spacingAndGlyphs" textLength="89" x="151.5" y="179.5313">getEntityList()</text><rect fill="none" height="309.3281" style="stroke: #000000; stroke-width: 2.0;" width="520.5" x="93.5" y="198.6641"/><polygon fill="#EEEEEE" points="93.5,198.6641,170.5,198.6641,170.5,205.6641,160.5,215.6641,93.5,215.6641,93.5,198.6641" style="stroke: #000000; stroke-width: 2.0;"/><text fill="#000000" font-size="13" font-weight="bold" lengthAdjust="spacingAndGlyphs" textLength="32" x="108.5" y="212.6641">loop</text><polygon fill="#A80036" points="247.5,232.7969,257.5,236.7969,247.5,240.7969,251.5,236.7969" style="stroke: #A80036; stroke-width: 1.0;"/><line style="stroke: #A80036; stroke-width: 1.0;" x1="134.5" x2="253.5" y1="236.7969" y2="236.7969"/><text fill="#000000" font-size="13" lengthAdjust="spacingAndGlyphs" textLength="98" x="141.5" y="232.7969">grab all entities</text><polygon fill="#A80036" points="145.5,261.9297,135.5,265.9297,145.5,269.9297,141.5,265.9297" style="stroke: #A80036; stroke-width: 1.0;"/><line style="stroke: #A80036; stroke-width: 1.0; stroke-dasharray: 2.0,2.0;" x1="139.5" x2="258.5" y1="265.9297" y2="265.9297"/><text fill="#000000" font-size="13" lengthAdjust="spacingAndGlyphs" textLength="101" x="151.5" y="261.9297">entity reference</text><polygon fill="#A80036" points="306,291.0625,316,295.0625,306,299.0625,310,295.0625" style="stroke: #A80036; stroke-width: 1.0;"/><line style="stroke: #A80036; stroke-width: 1.0; stroke-dasharray: 2.0,2.0;" x1="134.5" x2="312" y1="295.0625" y2="295.0625"/><text fill="#000000" font-size="13" lengthAdjust="spacingAndGlyphs" textLength="85" x="141.5" y="291.0625">list of entities</text><line style="stroke: #A80036; stroke-width: 1.0;" x1="318" x2="360" y1="324.3281" y2="324.3281"/><line style="stroke: #A80036; stroke-width: 1.0;" x1="360" x2="360" y1="324.3281" y2="337.3281"/><line style="stroke: #A80036; stroke-width: 1.0;" x1="318" x2="360" y1="337.3281" y2="337.3281"/><polygon fill="#A80036" points="328,333.3281,318,337.3281,328,341.3281,324,337.3281" style="stroke: #A80036; stroke-width: 1.0;"/><text fill="#000000" font-size="13" lengthAdjust="spacingAndGlyphs" textLength="115" x="325" y="320.1953">createMessages()</text><rect fill="none" height="46.2656" style="stroke: #000000; stroke-width: 2.0;" width="224.5" x="280.5" y="352.3281"/><polygon fill="#EEEEEE" points="280.5,352.3281,357.5,352.3281,357.5,359.3281,347.5,369.3281,280.5,369.3281,280.5,352.3281" style="stroke: #000000; stroke-width: 2.0;"/><text fill="#000000" font-size="13" font-weight="bold" lengthAdjust="spacingAndGlyphs" textLength="32" x="295.5" y="366.3281">loop</text><text fill="#000000" font-size="11" font-weight="bold" lengthAdjust="spacingAndGlyphs" textLength="100" x="372.5" y="365.3281">[list of entities]</text><polygon fill="#A80036" points="445,386.4609,455,390.4609,445,394.4609,449,390.4609" style="stroke: #A80036; stroke-width: 1.0;"/><line style="stroke: #A80036; stroke-width: 1.0;" x1="318" x2="451" y1="390.4609" y2="390.4609"/><text fill="#000000" font-size="13" lengthAdjust="spacingAndGlyphs" textLength="115" x="325" y="386.4609">appendMessage()</text><line style="stroke: #A80036; stroke-width: 1.0;" x1="318" x2="360" y1="426.7266" y2="426.7266"/><line style="stroke: #A80036; stroke-width: 1.0;" x1="360" x2="360" y1="426.7266" y2="439.7266"/><line style="stroke: #A80036; stroke-width: 1.0;" x1="318" x2="360" y1="439.7266" y2="439.7266"/><polygon fill="#A80036" points="328,435.7266,318,439.7266,328,443.7266,324,439.7266" style="stroke: #A80036; stroke-width: 1.0;"/><text fill="#000000" font-size="13" lengthAdjust="spacingAndGlyphs" textLength="94" x="325" y="422.5938">generateJobs()</text><rect fill="none" height="46.2656" style="stroke: #000000; stroke-width: 2.0;" width="323.5" x="280.5" y="454.7266"/><polygon fill="#EEEEEE" points="280.5,454.7266,357.5,454.7266,357.5,461.7266,347.5,471.7266,280.5,471.7266,280.5,454.7266" style="stroke: #000000; stroke-width: 2.0;"/><text fill="#000000" font-size="13" font-weight="bold" lengthAdjust="spacingAndGlyphs" textLength="32" x="295.5" y="468.7266">loop</text><text fill="#000000" font-size="11" font-weight="bold" lengthAdjust="spacingAndGlyphs" textLength="115" x="372.5" y="467.7266">[list of messages]</text><polygon fill="#A80036" points="537.5,488.8594,547.5,492.8594,537.5,496.8594,541.5,492.8594" style="stroke: #A80036; stroke-width: 1.0;"/><line style="stroke: #A80036; stroke-width: 1.0;" x1="318" x2="543.5" y1="492.8594" y2="492.8594"/><text fill="#000000" font-size="13" lengthAdjust="spacingAndGlyphs" textLength="60" x="325" y="488.8594">pushJob()</text><line style="stroke: #A80036; stroke-width: 1.0;" x1="549.5" x2="591.5" y1="536.125" y2="536.125"/><line style="stroke: #A80036; stroke-width: 1.0;" x1="591.5" x2="591.5" y1="536.125" y2="549.125"/><line style="stroke: #A80036; stroke-width: 1.0;" x1="549.5" x2="591.5" y1="549.125" y2="549.125"/><polygon fill="#A80036" points="559.5,545.125,549.5,549.125,559.5,553.125,555.5,549.125" style="stroke: #A80036; stroke-width: 1.0;"/><text fill="#000000" font-size="13" lengthAdjust="spacingAndGlyphs" textLength="86" x="556.5" y="531.9922">processJobs()</text></g></svg>