<?xml version="1.0" encoding="UTF-8" standalone="yes"?><svg xmlns="http://www.w3.org/2000/svg" xmlns:xlink="http://www.w3.org/1999/xlink" height="363pt" style="width:700px;height:363px;" version="1.1" viewBox="0 0 700 363" width="700pt"><defs><filter height="300%" id="f1" width="300%" x="-1" y="-1"><feGaussianBlur result="blurOut" stdDeviation="2.0"/><feColorMatrix in="blurOut" result="blurOut2" type="matrix" values="0 0 0 0 0 0 0 0 0 0 0 0 0 0 0 0 0 0 .4 0"/><feOffset dx="4.0" dy="4.0" in="blurOut2" result="blurOut3"/><feBlend in="SourceGraphic" in2="blurOut3" mode="normal"/></filter></defs><g><ellipse cx="183.5" cy="20" fill="#000000" filter="url(#f1)" rx="10" ry="10" style="stroke: none; stroke-width: 1.0;"/><rect fill="#FEFECE" filter="url(#f1)" height="47.9375" rx="12.5" ry="12.5" style="stroke: #A80036; stroke-width: 1.5;" width="267" x="50" y="50"/><text fill="#000000" font-size="12" lengthAdjust="spacingAndGlyphs" textLength="247" x="60" y="72">Read input events from underlying tech</text><text fill="#000000" font-size="12" lengthAdjust="spacingAndGlyphs" textLength="160" x="60" y="85.9688">(e.g. SDL_KeyboardEvent)</text><line style="stroke: #A80036; stroke-width: 1.5;" x1="183.5" x2="183.5" y1="30" y2="50"/><polygon fill="#A80036" points="179.5,40,183.5,50,187.5,40,183.5,44" style="stroke: #A80036; stroke-width: 1.0;"/><polygon fill="#FBFB77" filter="url(#f1)" points="335.5,114.7891,335.5,155.0547,691.5,155.0547,691.5,124.7891,681.5,114.7891,335.5,114.7891" style="stroke: #A80036; stroke-width: 1.0;"/><polygon fill="#FBFB77" points="335.5,114.7891,335.5,130.9219,315.5,134.9219,335.5,138.9219,335.5,155.0547,691.5,155.0547,691.5,124.7891,681.5,114.7891,335.5,114.7891" style="stroke: #A80036; stroke-width: 1.0;"/><line style="stroke: #A80036; stroke-width: 1.0;" x1="681.5" x2="681.5" y1="114.7891" y2="124.7891"/><line style="stroke: #A80036; stroke-width: 1.0;" x1="681.5" x2="691.5" y1="124.7891" y2="124.7891"/><text fill="#000000" font-size="13" lengthAdjust="spacingAndGlyphs" textLength="276" x="341.5" y="132.7891">Obscuring underlying technology (e.g. SDL)</text><text fill="#000000" font-size="13" lengthAdjust="spacingAndGlyphs" textLength="335" x="341.5" y="147.9219">Adding value (e.g. duration?/double-press?/etc) here</text><rect fill="#FEFECE" filter="url(#f1)" height="33.9688" rx="12.5" ry="12.5" style="stroke: #A80036; stroke-width: 1.5;" width="264" x="51.5" y="117.9375"/><text fill="#000000" font-size="12" lengthAdjust="spacingAndGlyphs" textLength="244" x="61.5" y="139.9375">Wrap raw event with engine-level event</text><line style="stroke: #A80036; stroke-width: 1.5;" x1="183.5" x2="183.5" y1="97.9375" y2="117.9375"/><polygon fill="#A80036" points="179.5,107.9375,183.5,117.9375,187.5,107.9375,183.5,111.9375" style="stroke: #A80036; stroke-width: 1.0;"/><polygon fill="#FBFB77" filter="url(#f1)" points="364,179.4727,364,204.6055,603,204.6055,603,189.4727,593,179.4727,364,179.4727" style="stroke: #A80036; stroke-width: 1.0;"/><polygon fill="#FBFB77" points="364,179.4727,364,188.0391,344,192.0391,364,196.0391,364,204.6055,603,204.6055,603,189.4727,593,179.4727,364,179.4727" style="stroke: #A80036; stroke-width: 1.0;"/><line style="stroke: #A80036; stroke-width: 1.0;" x1="593" x2="593" y1="179.4727" y2="189.4727"/><line style="stroke: #A80036; stroke-width: 1.0;" x1="593" x2="603" y1="189.4727" y2="189.4727"/><text fill="#000000" font-size="13" lengthAdjust="spacingAndGlyphs" textLength="218" x="370" y="197.4727">Callbacks fire here (gotta be fast!)</text><rect fill="#FEFECE" filter="url(#f1)" height="33.9688" rx="12.5" ry="12.5" style="stroke: #A80036; stroke-width: 1.5;" width="321" x="23" y="175.0547"/><text fill="#000000" font-size="12" lengthAdjust="spacingAndGlyphs" textLength="301" x="33" y="197.0547">Push engine-level event to listeners/subscribers</text><line style="stroke: #A80036; stroke-width: 1.5;" x1="183.5" x2="183.5" y1="151.9063" y2="175.0547"/><polygon fill="#A80036" points="179.5,165.0547,183.5,175.0547,187.5,165.0547,183.5,169.0547" style="stroke: #A80036; stroke-width: 1.0;"/><polygon fill="#FBFB77" filter="url(#f1)" points="366,233.4414,366,258.5742,627,258.5742,627,243.4414,617,233.4414,366,233.4414" style="stroke: #A80036; stroke-width: 1.0;"/><polygon fill="#FBFB77" points="366,233.4414,366,242.0078,346,246.0078,366,250.0078,366,258.5742,627,258.5742,627,243.4414,617,233.4414,366,233.4414" style="stroke: #A80036; stroke-width: 1.0;"/><line style="stroke: #A80036; stroke-width: 1.0;" x1="617" x2="617" y1="233.4414" y2="243.4414"/><line style="stroke: #A80036; stroke-width: 1.0;" x1="617" x2="627" y1="243.4414" y2="243.4414"/><text fill="#000000" font-size="13" lengthAdjust="spacingAndGlyphs" textLength="240" x="372" y="251.4414">Key bindings here, at application level</text><rect fill="#FEFECE" filter="url(#f1)" height="33.9688" rx="12.5" ry="12.5" style="stroke: #A80036; stroke-width: 1.5;" width="325" x="21" y="229.0234"/><text fill="#000000" font-size="12" lengthAdjust="spacingAndGlyphs" textLength="305" x="31" y="251.0234">Map engine-level event to application-level event</text><line style="stroke: #A80036; stroke-width: 1.5;" x1="183.5" x2="183.5" y1="209.0234" y2="229.0234"/><polygon fill="#A80036" points="179.5,219.0234,183.5,229.0234,187.5,219.0234,183.5,223.0234" style="stroke: #A80036; stroke-width: 1.0;"/><polygon fill="#FBFB77" filter="url(#f1)" points="377,287.4102,377,312.543,491,312.543,491,297.4102,481,287.4102,377,287.4102" style="stroke: #A80036; stroke-width: 1.0;"/><polygon fill="#FBFB77" points="377,287.4102,377,295.9766,357,299.9766,377,303.9766,377,312.543,491,312.543,491,297.4102,481,287.4102,377,287.4102" style="stroke: #A80036; stroke-width: 1.0;"/><line style="stroke: #A80036; stroke-width: 1.0;" x1="481" x2="481" y1="287.4102" y2="297.4102"/><line style="stroke: #A80036; stroke-width: 1.0;" x1="481" x2="491" y1="297.4102" y2="297.4102"/><text fill="#000000" font-size="13" lengthAdjust="spacingAndGlyphs" textLength="93" x="383" y="305.4102">Callbacks here</text><rect fill="#FEFECE" filter="url(#f1)" height="33.9688" rx="12.5" ry="12.5" style="stroke: #A80036; stroke-width: 1.5;" width="347" x="10" y="282.9922"/><text fill="#000000" font-size="12" lengthAdjust="spacingAndGlyphs" textLength="327" x="20" y="304.9922">Push application-level event to listeners/subscribers</text><line style="stroke: #A80036; stroke-width: 1.5;" x1="183.5" x2="183.5" y1="262.9922" y2="282.9922"/><polygon fill="#A80036" points="179.5,272.9922,183.5,282.9922,187.5,272.9922,183.5,276.9922" style="stroke: #A80036; stroke-width: 1.0;"/><ellipse cx="183.5" cy="346.9609" fill="none" filter="url(#f1)" rx="10" ry="10" style="stroke: #000000; stroke-width: 1.0;"/><ellipse cx="184" cy="347.4609" fill="#000000" filter="url(#f1)" rx="6" ry="6" style="stroke: none; stroke-width: 1.0;"/><line style="stroke: #A80036; stroke-width: 1.5;" x1="183.5" x2="183.5" y1="316.9609" y2="336.9609"/><polygon fill="#A80036" points="179.5,326.9609,183.5,336.9609,187.5,326.9609,183.5,330.9609" style="stroke: #A80036; stroke-width: 1.0;"/></g></svg>