<?xml version="1.0" encoding="UTF-8" standalone="yes"?><svg xmlns="http://www.w3.org/2000/svg" xmlns:xlink="http://www.w3.org/1999/xlink" height="371pt" style="width:628px;height:371px;" version="1.1" viewBox="0 0 628 371" width="628pt"><defs><filter height="300%" id="f1" width="300%" x="-1" y="-1"><feGaussianBlur result="blurOut" stdDeviation="2.0"/><feColorMatrix in="blurOut" result="blurOut2" type="matrix" values="0 0 0 0 0 0 0 0 0 0 0 0 0 0 0 0 0 0 .4 0"/><feOffset dx="4.0" dy="4.0" in="blurOut2" result="blurOut3"/><feBlend in="SourceGraphic" in2="blurOut3" mode="normal"/></filter></defs><g><ellipse cx="163" cy="20" fill="#000000" filter="url(#f1)" rx="10" ry="10" style="stroke: none; stroke-width: 1.0;"/><rect fill="#FEFECE" filter="url(#f1)" height="50.1875" rx="12.5" ry="12.5" style="stroke: #A80036; stroke-width: 1.5;" width="233" x="46.5" y="50"/><text fill="#000000" font-size="12" lengthAdjust="spacingAndGlyphs" textLength="213" x="56.5" y="72">Read input events from underlying tech</text><text fill="#000000" font-size="12" lengthAdjust="spacingAndGlyphs" textLength="144" x="56.5" y="87.0938">(e.g. SDL_KeyboardEvent)</text><line style="stroke: #A80036; stroke-width: 1.5;" x1="163" x2="163" y1="30" y2="50"/><polygon fill="#A80036" points="159,40,163,50,167,40,163,44" style="stroke: #A80036; stroke-width: 1.0;"/><polygon fill="#FBFB77" filter="url(#f1)" points="298.5,116.3828,298.5,159.0859,619.5,159.0859,619.5,126.3828,609.5,116.3828,298.5,116.3828" style="stroke: #A80036; stroke-width: 1.0;"/><polygon fill="#FBFB77" points="298.5,116.3828,298.5,133.7344,278.5,137.7344,298.5,141.7344,298.5,159.0859,619.5,159.0859,619.5,126.3828,609.5,116.3828,298.5,116.3828" style="stroke: #A80036; stroke-width: 1.0;"/><line style="stroke: #A80036; stroke-width: 1.0;" x1="609.5" x2="609.5" y1="116.3828" y2="126.3828"/><line style="stroke: #A80036; stroke-width: 1.0;" x1="609.5" x2="619.5" y1="126.3828" y2="126.3828"/><text fill="#000000" font-size="13" lengthAdjust="spacingAndGlyphs" textLength="252" x="304.5" y="134.3828">Obscuring underlying technology (e.g. SDL)</text><text fill="#000000" font-size="13" lengthAdjust="spacingAndGlyphs" textLength="300" x="304.5" y="150.7344">Adding value (e.g. duration?/double-press?/etc) here</text><rect fill="#FEFECE" filter="url(#f1)" height="35.0938" rx="12.5" ry="12.5" style="stroke: #A80036; stroke-width: 1.5;" width="231" x="47.5" y="120.1875"/><text fill="#000000" font-size="12" lengthAdjust="spacingAndGlyphs" textLength="211" x="57.5" y="142.1875">Wrap raw event with engine-level event</text><line style="stroke: #A80036; stroke-width: 1.5;" x1="163" x2="163" y1="100.1875" y2="120.1875"/><polygon fill="#A80036" points="159,110.1875,163,120.1875,167,110.1875,163,114.1875" style="stroke: #A80036; stroke-width: 1.0;"/><polygon fill="#FBFB77" filter="url(#f1)" points="325,183.457,325,209.8086,540,209.8086,540,193.457,530,183.457,325,183.457" style="stroke: #A80036; stroke-width: 1.0;"/><polygon fill="#FBFB77" points="325,183.457,325,192.6328,305,196.6328,325,200.6328,325,209.8086,540,209.8086,540,193.457,530,183.457,325,183.457" style="stroke: #A80036; stroke-width: 1.0;"/><line style="stroke: #A80036; stroke-width: 1.0;" x1="530" x2="530" y1="183.457" y2="193.457"/><line style="stroke: #A80036; stroke-width: 1.0;" x1="530" x2="540" y1="193.457" y2="193.457"/><text fill="#000000" font-size="13" lengthAdjust="spacingAndGlyphs" textLength="194" x="331" y="201.457">Callbacks fire here (gotta be fast!)</text><rect fill="#FEFECE" filter="url(#f1)" height="35.0938" rx="12.5" ry="12.5" style="stroke: #A80036; stroke-width: 1.5;" width="284" x="21" y="179.0859"/><text fill="#000000" font-size="12" lengthAdjust="spacingAndGlyphs" textLength="264" x="31" y="201.0859">Push engine-level event to listeners/subscribers</text><line style="stroke: #A80036; stroke-width: 1.5;" x1="163" x2="163" y1="155.2813" y2="179.0859"/><polygon fill="#A80036" points="159,169.0859,163,179.0859,167,169.0859,163,173.0859" style="stroke: #A80036; stroke-width: 1.0;"/><polygon fill="#FBFB77" filter="url(#f1)" points="324,238.5508,324,264.9023,563,264.9023,563,248.5508,553,238.5508,324,238.5508" style="stroke: #A80036; stroke-width: 1.0;"/><polygon fill="#FBFB77" points="324,238.5508,324,247.7266,304,251.7266,324,255.7266,324,264.9023,563,264.9023,563,248.5508,553,238.5508,324,238.5508" style="stroke: #A80036; stroke-width: 1.0;"/><line style="stroke: #A80036; stroke-width: 1.0;" x1="553" x2="553" y1="238.5508" y2="248.5508"/><line style="stroke: #A80036; stroke-width: 1.0;" x1="553" x2="563" y1="248.5508" y2="248.5508"/><text fill="#000000" font-size="13" lengthAdjust="spacingAndGlyphs" textLength="218" x="330" y="256.5508">Key bindings here, at application level</text><rect fill="#FEFECE" filter="url(#f1)" height="35.0938" rx="12.5" ry="12.5" style="stroke: #A80036; stroke-width: 1.5;" width="282" x="22" y="234.1797"/><text fill="#000000" font-size="12" lengthAdjust="spacingAndGlyphs" textLength="262" x="32" y="256.1797">Map engine-level event to application-level event</text><line style="stroke: #A80036; stroke-width: 1.5;" x1="163" x2="163" y1="214.1797" y2="234.1797"/><polygon fill="#A80036" points="159,224.1797,163,234.1797,167,224.1797,163,228.1797" style="stroke: #A80036; stroke-width: 1.0;"/><polygon fill="#FBFB77" filter="url(#f1)" points="336,293.6445,336,319.9961,443,319.9961,443,303.6445,433,293.6445,336,293.6445" style="stroke: #A80036; stroke-width: 1.0;"/><polygon fill="#FBFB77" points="336,293.6445,336,302.8203,316,306.8203,336,310.8203,336,319.9961,443,319.9961,443,303.6445,433,293.6445,336,293.6445" style="stroke: #A80036; stroke-width: 1.0;"/><line style="stroke: #A80036; stroke-width: 1.0;" x1="433" x2="433" y1="293.6445" y2="303.6445"/><line style="stroke: #A80036; stroke-width: 1.0;" x1="433" x2="443" y1="303.6445" y2="303.6445"/><text fill="#000000" font-size="13" lengthAdjust="spacingAndGlyphs" textLength="86" x="342" y="311.6445">Callbacks here</text><rect fill="#FEFECE" filter="url(#f1)" height="35.0938" rx="12.5" ry="12.5" style="stroke: #A80036; stroke-width: 1.5;" width="306" x="10" y="289.2734"/><text fill="#000000" font-size="12" lengthAdjust="spacingAndGlyphs" textLength="286" x="20" y="311.2734">Push application-level event to listeners/subscribers</text><line style="stroke: #A80036; stroke-width: 1.5;" x1="163" x2="163" y1="269.2734" y2="289.2734"/><polygon fill="#A80036" points="159,279.2734,163,289.2734,167,279.2734,163,283.2734" style="stroke: #A80036; stroke-width: 1.0;"/><ellipse cx="163" cy="354.3672" fill="none" filter="url(#f1)" rx="10" ry="10" style="stroke: #000000; stroke-width: 1.0;"/><ellipse cx="163.5" cy="354.8672" fill="#000000" filter="url(#f1)" rx="6" ry="6" style="stroke: none; stroke-width: 1.0;"/><line style="stroke: #A80036; stroke-width: 1.5;" x1="163" x2="163" y1="324.3672" y2="344.3672"/><polygon fill="#A80036" points="159,334.3672,163,344.3672,167,334.3672,163,338.3672" style="stroke: #A80036; stroke-width: 1.0;"/></g></svg>